<svg width="20" height="21" viewBox="0 0 20 21" fill="none" xmlns="http://www.w3.org/2000/svg">
<path d="M15.8202 2.89994H2.50016C2.08682 2.89994 1.70016 2.99994 1.34016 3.19994C0.980156 3.39994 0.69349 3.67327 0.480156 4.01994C0.266823 4.36661 0.160156 4.74661 0.160156 5.15994V15.1599C0.160156 15.5733 0.26349 15.9599 0.470156 16.3199C0.676823 16.6799 0.956823 16.9666 1.31016 17.1799C1.66349 17.3933 2.06016 17.4999 2.50016 17.4999H15.8202C16.2335 17.4999 16.6202 17.3966 16.9802 17.1899C17.3402 16.9833 17.6268 16.7033 17.8402 16.3499C18.0535 15.9966 18.1602 15.5999 18.1602 15.1599V5.15994C18.1602 4.74661 18.0535 4.36661 17.8402 4.01994C17.6268 3.67327 17.3402 3.39994 16.9802 3.19994C16.6202 2.99994 16.2335 2.89994 15.8202 2.89994ZM2.50016 4.15994H15.8202C16.1135 4.15994 16.3535 4.25994 16.5402 4.45994C16.7268 4.65994 16.8202 4.89327 16.8202 5.15994V5.65994L9.66016 10.2399C9.48682 10.3199 9.30682 10.3599 9.12016 10.3599C8.93349 10.3599 8.75349 10.3199 8.58016 10.2399L1.50016 5.65994V5.15994C1.50016 4.86661 1.59349 4.62661 1.78016 4.43994C1.96682 4.25327 2.20682 4.15994 2.50016 4.15994ZM15.8202 16.2399H2.50016C2.22016 16.2399 1.98349 16.1366 1.79016 15.9299C1.59682 15.7233 1.50016 15.4933 1.50016 15.2399V7.15994L8.00016 11.3199C8.28016 11.5466 8.66682 11.6599 9.16016 11.6599C9.65349 11.6599 10.0402 11.5466 10.3202 11.3199L16.8202 7.15994V15.1599C16.8202 15.4533 16.7268 15.7066 16.5402 15.9199C16.3535 16.1333 16.1135 16.2399 15.8202 16.2399Z" fill="#9CA3AF"/>
</svg>
