<svg width="15" height="15" viewBox="0 0 15 15" fill="none" xmlns="http://www.w3.org/2000/svg">
<g clip-path="url(#clip0_322_2342)">
<path d="M7.48419 1.90205C7.06419 1.90205 6.67452 2.00705 6.31519 2.21705C5.95586 2.42705 5.67119 2.71172 5.46119 3.07105C5.25119 3.43038 5.14619 3.82005 5.14619 4.24005H3.95619C3.95619 3.60538 4.11252 3.01972 4.42519 2.48305C4.73786 1.94638 5.16252 1.52172 5.69919 1.20905C6.23586 0.896384 6.82152 0.740051 7.45619 0.740051C8.09086 0.740051 8.67652 0.896384 9.21319 1.20905C9.74986 1.52172 10.1745 1.94638 10.4872 2.48305C10.7999 3.01972 10.9562 3.60538 10.9562 4.24005H13.2522C13.5882 4.24005 13.8729 4.35905 14.1062 4.59705C14.3395 4.83505 14.4562 5.12672 14.4562 5.47205C14.4562 5.54672 14.4515 5.61672 14.4422 5.68205L13.1402 13.2141C13.0655 13.6527 12.8602 14.0167 12.5242 14.3061C12.1882 14.5954 11.8009 14.7401 11.3622 14.7401H3.55019C3.11152 14.7401 2.72419 14.5954 2.38819 14.3061C2.05219 14.0167 1.84686 13.6527 1.77219 13.2141L0.470191 5.69605C0.414191 5.36005 0.481857 5.05205 0.673191 4.77205C0.864524 4.49205 1.12352 4.31938 1.45019 4.25405C1.51552 4.24472 1.58552 4.24005 1.66019 4.24005H9.82219C9.82219 3.82005 9.71719 3.43038 9.50719 3.07105C9.29719 2.71172 9.01252 2.42705 8.65319 2.21705C8.29386 2.00705 7.90419 1.90205 7.48419 1.90205ZM13.2522 5.40205H1.66019C1.65086 5.40205 1.63686 5.42072 1.61819 5.45805V5.48605L2.92019 13.0181C2.94819 13.1674 3.01352 13.2934 3.11619 13.3961C3.21886 13.4987 3.34019 13.5547 3.48019 13.5641L3.55019 13.5781H11.3622C11.5022 13.5781 11.6305 13.5337 11.7472 13.4451C11.8639 13.3564 11.9409 13.2374 11.9782 13.0881L13.2942 5.47205C13.2942 5.43472 13.2849 5.41605 13.2662 5.41605L13.2522 5.40205Z" fill="white"/>
</g>
<defs>
<clipPath id="clip0_322_2342">
<rect width="14" height="14" fill="white" transform="matrix(1 0 0 -1 0.330078 14.7401)"/>
</clipPath>
</defs>
</svg>
