<svg width="23" height="17" viewBox="0 0 23 17" fill="none" xmlns="http://www.w3.org/2000/svg">
<g clip-path="url(#clip0_322_1712)">
<path d="M13.3945 8.50604H9.25046V4.29804C9.25046 4.15938 9.20246 4.03671 9.10646 3.93004C9.01046 3.82338 8.88246 3.77004 8.72246 3.77004C8.56246 3.77004 8.43446 3.82338 8.33846 3.93004C8.24246 4.03671 8.19446 4.15938 8.19446 4.29804V8.44204H4.05046C3.91179 8.44204 3.78913 8.49004 3.68246 8.58604C3.57579 8.68204 3.52246 8.81271 3.52246 8.97804C3.52246 9.14338 3.57046 9.27138 3.66646 9.36204C3.76246 9.45271 3.89046 9.49804 4.05046 9.49804H8.19446V13.642C8.19446 13.7807 8.24246 13.9034 8.33846 14.01C8.43446 14.1167 8.56513 14.17 8.73046 14.17C8.89579 14.17 9.02379 14.122 9.11446 14.026C9.20513 13.93 9.25046 13.802 9.25046 13.642V9.49804H13.3945C13.5331 9.49804 13.6558 9.45004 13.7625 9.35404C13.8691 9.25804 13.9225 9.13004 13.9225 8.97004C13.9225 8.81004 13.8718 8.69271 13.7705 8.61804C13.6691 8.54338 13.5438 8.50604 13.3945 8.50604Z" fill="#634C9F"/>
</g>
<defs>
<clipPath id="clip0_322_1712">
<rect width="16" height="16" fill="white" transform="matrix(1 0 0 -1 3.39258 16.9701)"/>
</clipPath>
</defs>
</svg>
