<svg width="21" height="15" viewBox="0 0 21 15" fill="none" xmlns="http://www.w3.org/2000/svg">
<g clip-path="url(#clip0_322_1940)">
<path d="M16.2305 7.16805C16.2305 7.14005 16.2189 7.11439 16.1955 7.09105C16.1722 7.06772 16.1465 7.05605 16.1185 7.05605L13.7805 4.71805C13.6872 4.63405 13.5799 4.59205 13.4585 4.59205C13.3372 4.59205 13.2299 4.63405 13.1365 4.71805C13.0432 4.80205 12.9989 4.90939 13.0035 5.04005C13.0082 5.17072 13.0525 5.27805 13.1365 5.36205L14.7185 6.94405H4.14852C4.02719 6.94405 3.91986 6.98605 3.82652 7.07005C3.73319 7.15405 3.68652 7.26839 3.68652 7.41305C3.68652 7.55772 3.72852 7.66972 3.81252 7.74905C3.89652 7.82839 4.00852 7.86805 4.14852 7.86805H14.7745L13.1925 9.45005C13.1085 9.53405 13.0665 9.63905 13.0665 9.76505C13.0665 9.89105 13.1085 10.0007 13.1925 10.0941C13.2205 10.1221 13.2625 10.1477 13.3185 10.1711C13.3745 10.1944 13.4305 10.2061 13.4865 10.2061C13.5425 10.2061 13.5985 10.1944 13.6545 10.1711C13.7105 10.1477 13.7525 10.1221 13.7805 10.0941L16.1185 7.75605C16.1372 7.73739 16.1559 7.71405 16.1745 7.68605C16.1932 7.65805 16.2119 7.64405 16.2305 7.64405C16.2585 7.52272 16.2725 7.42939 16.2725 7.36405C16.2725 7.29872 16.2585 7.23339 16.2305 7.16805Z" fill="#212529"/>
</g>
<defs>
<clipPath id="clip0_322_1940">
<rect width="14" height="14" fill="white" transform="matrix(1 0 0 -1 3.56641 14.3501)"/>
</clipPath>
</defs>
</svg>
