<svg width="21" height="15" viewBox="0 0 21 15" fill="none" xmlns="http://www.w3.org/2000/svg">
<g clip-path="url(#clip0_322_2515)">
<path d="M16.2305 6.84304C16.2305 6.81504 16.2189 6.78938 16.1955 6.76604C16.1722 6.74271 16.1465 6.73104 16.1185 6.73104L13.7805 4.39304C13.6872 4.30904 13.5799 4.26704 13.4585 4.26704C13.3372 4.26704 13.2299 4.30904 13.1365 4.39304C13.0432 4.47704 12.9989 4.58438 13.0035 4.71504C13.0082 4.84571 13.0525 4.95304 13.1365 5.03704L14.7185 6.61904H4.14852C4.02719 6.61904 3.91986 6.66104 3.82652 6.74504C3.73319 6.82904 3.68652 6.94338 3.68652 7.08804C3.68652 7.23271 3.72852 7.34471 3.81252 7.42404C3.89652 7.50338 4.00852 7.54304 4.14852 7.54304H14.7745L13.1925 9.12504C13.1085 9.20904 13.0665 9.31404 13.0665 9.44004C13.0665 9.56604 13.1085 9.67571 13.1925 9.76904C13.2205 9.79704 13.2625 9.82271 13.3185 9.84604C13.3745 9.86938 13.4305 9.88104 13.4865 9.88104C13.5425 9.88104 13.5985 9.86938 13.6545 9.84604C13.7105 9.82271 13.7525 9.79704 13.7805 9.76904L16.1185 7.43104C16.1372 7.41238 16.1559 7.38904 16.1745 7.36104C16.1932 7.33304 16.2119 7.31904 16.2305 7.31904C16.2585 7.19771 16.2725 7.10438 16.2725 7.03904C16.2725 6.97371 16.2585 6.90838 16.2305 6.84304Z" fill="#212529"/>
</g>
<defs>
<clipPath id="clip0_322_2515">
<rect width="14" height="14" fill="white" transform="matrix(1 0 0 -1 3.56641 14.0251)"/>
</clipPath>
</defs>
</svg>
