<svg width="20" height="15" viewBox="0 0 20 15" fill="none" xmlns="http://www.w3.org/2000/svg">
<g clip-path="url(#clip0_322_1627)">
<path d="M15.8643 7.40804C15.8643 7.38004 15.8526 7.35438 15.8293 7.33104C15.806 7.30771 15.7803 7.29604 15.7523 7.29604L13.4143 4.95804C13.321 4.87404 13.2136 4.83204 13.0923 4.83204C12.971 4.83204 12.8636 4.87404 12.7703 4.95804C12.677 5.04204 12.6326 5.14938 12.6373 5.28004C12.642 5.41071 12.6863 5.51804 12.7703 5.60204L14.3523 7.18404H3.78231C3.66098 7.18404 3.55365 7.22604 3.46031 7.31004C3.36698 7.39404 3.32031 7.50838 3.32031 7.65304C3.32031 7.79771 3.36231 7.90971 3.44631 7.98904C3.53031 8.06838 3.64231 8.10804 3.78231 8.10804H14.4083L12.8263 9.69004C12.7423 9.77404 12.7003 9.87904 12.7003 10.005C12.7003 10.131 12.7423 10.2407 12.8263 10.334C12.8543 10.362 12.8963 10.3877 12.9523 10.411C13.0083 10.4344 13.0643 10.446 13.1203 10.446C13.1763 10.446 13.2323 10.4344 13.2883 10.411C13.3443 10.3877 13.3863 10.362 13.4143 10.334L15.7523 7.99604C15.771 7.97738 15.7896 7.95404 15.8083 7.92604C15.827 7.89804 15.8456 7.88404 15.8643 7.88404C15.8923 7.76271 15.9063 7.66938 15.9063 7.60404C15.9063 7.53871 15.8923 7.47338 15.8643 7.40804Z" fill="#212529"/>
</g>
<defs>
<clipPath id="clip0_322_1627">
<rect width="14" height="14" fill="white" transform="matrix(1 0 0 -1 3.2002 14.5901)"/>
</clipPath>
</defs>
</svg>
