<svg width="30" height="19" viewBox="0 0 30 19" fill="none" xmlns="http://www.w3.org/2000/svg">
<g clip-path="url(#clip0_322_1577)">
<path d="M26.87 17.5721C26.87 17.5701 26.8487 17.5682 26.8063 17.5666C26.7639 17.5649 26.7172 17.5641 26.6663 17.5641L22.4152 17.3971C22.2455 17.3911 22.0503 17.3881 21.8297 17.3881C21.6091 17.3881 21.4139 17.3911 21.2442 17.3971C21.0745 17.4031 20.9939 17.4107 21.0024 17.4201C21.0109 17.4294 21.0915 17.4371 21.2442 17.4431L24.1207 17.5561H4.90157C4.68095 17.5561 4.48579 17.5591 4.31608 17.5651C4.14638 17.5711 4.06152 17.5792 4.06152 17.5896C4.06152 17.5999 4.13789 17.6079 4.29063 17.6136C4.44336 17.6192 4.64701 17.6221 4.90157 17.6221H24.2226L21.346 17.7351C21.1933 17.7411 21.1169 17.7486 21.1169 17.7576C21.1169 17.7666 21.1933 17.7744 21.346 17.7811C21.397 17.7831 21.4733 17.7849 21.5751 17.7866C21.677 17.7882 21.7788 17.7891 21.8806 17.7891C21.9824 17.7891 22.0843 17.7882 22.1861 17.7866C22.2879 17.7849 22.3643 17.7831 22.4152 17.7811L26.6663 17.6141C26.7003 17.6127 26.7342 17.6111 26.7681 17.6091C26.8021 17.6071 26.836 17.6061 26.87 17.6061C26.9209 17.5974 26.9463 17.5907 26.9463 17.5861C26.9463 17.5814 26.9209 17.5767 26.87 17.5721Z" fill="white"/>
</g>
<defs>
<clipPath id="clip0_322_1577">
<rect width="25.4558" height="1" fill="white" transform="matrix(1 0 0 -1 3.86328 18.085)"/>
</clipPath>
</defs>
</svg>
