<svg width="23" height="17" viewBox="0 0 23 17" fill="none" xmlns="http://www.w3.org/2000/svg">
<g clip-path="url(#clip0_322_2202)">
<path d="M13.5751 7.92603H9.43113V3.71803C9.43113 3.57936 9.38313 3.45669 9.28713 3.35003C9.19113 3.24336 9.06313 3.19003 8.90313 3.19003C8.74313 3.19003 8.61513 3.24336 8.51913 3.35003C8.42313 3.45669 8.37513 3.57936 8.37513 3.71803V7.86203H4.23113C4.09246 7.86203 3.96979 7.91003 3.86313 8.00603C3.75646 8.10203 3.70312 8.23269 3.70312 8.39803C3.70312 8.56336 3.75113 8.69136 3.84713 8.78203C3.94313 8.87269 4.07113 8.91803 4.23113 8.91803H8.37513V13.062C8.37513 13.2007 8.42313 13.3234 8.51913 13.43C8.61513 13.5367 8.74579 13.59 8.91113 13.59C9.07646 13.59 9.20446 13.542 9.29513 13.446C9.38579 13.35 9.43113 13.222 9.43113 13.062V8.91803H13.5751C13.7138 8.91803 13.8365 8.87003 13.9431 8.77403C14.0498 8.67803 14.1031 8.55003 14.1031 8.39003C14.1031 8.23003 14.0525 8.11269 13.9511 8.03803C13.8498 7.96336 13.7245 7.92603 13.5751 7.92603Z" fill="#634C9F"/>
</g>
<defs>
<clipPath id="clip0_322_2202">
<rect width="16" height="16" fill="white" transform="matrix(1 0 0 -1 3.57324 16.39)"/>
</clipPath>
</defs>
</svg>
