<svg width="32" height="36" viewBox="0 0 32 36" fill="none" xmlns="http://www.w3.org/2000/svg">
<g clip-path="url(#clip0_322_2706)">
<path d="M20.6402 17.362H5.98823C5.7829 17.362 5.6069 17.428 5.46023 17.56C5.31357 17.692 5.24023 17.8716 5.24023 18.099C5.24023 18.3263 5.30623 18.5023 5.43823 18.627C5.57023 18.7516 5.75357 18.814 5.98823 18.814H20.6402C20.8456 18.814 21.0216 18.748 21.1682 18.616C21.3149 18.484 21.3882 18.308 21.3882 18.088C21.3882 17.868 21.3149 17.692 21.1682 17.56C21.0216 17.428 20.8456 17.362 20.6402 17.362ZM5.98823 13.226H20.6402C20.8456 13.226 21.0216 13.16 21.1682 13.028C21.3149 12.896 21.3882 12.72 21.3882 12.5C21.3882 12.28 21.3149 12.1186 21.1682 12.016C21.0216 11.9133 20.8456 11.862 20.6402 11.862H5.98823C5.79757 11.862 5.62523 11.9243 5.47123 12.049C5.31723 12.1736 5.24023 12.3276 5.24023 12.511C5.24023 12.6943 5.31723 12.8593 5.47123 13.006C5.62523 13.1526 5.79757 13.226 5.98823 13.226ZM20.6402 22.862H5.98823C5.7829 22.862 5.6069 22.928 5.46023 23.06C5.31357 23.192 5.24023 23.3716 5.24023 23.599C5.24023 23.8263 5.30623 24.0023 5.43823 24.127C5.57023 24.2516 5.75357 24.314 5.98823 24.314H20.6402C20.8456 24.314 21.0216 24.248 21.1682 24.116C21.3149 23.984 21.3882 23.808 21.3882 23.588C21.3882 23.368 21.3149 23.192 21.1682 23.06C21.0216 22.928 20.8456 22.862 20.6402 22.862Z" fill="#030712"/>
</g>
<defs>
<clipPath id="clip0_322_2706">
<rect width="22" height="22" fill="white" transform="matrix(1 0 0 -1 5.08008 29)"/>
</clipPath>
</defs>
</svg>
