<svg width="68" height="12" viewBox="0 0 68 12" fill="none" xmlns="http://www.w3.org/2000/svg">
<g clip-path="url(#clip0_322_2314)">
<g clip-path="url(#clip1_322_2314)">
<path d="M6.62256 0.755024C6.5639 0.637691 6.47956 0.544191 6.36956 0.474524C6.25956 0.404858 6.13856 0.370024 6.00656 0.370024C5.87456 0.370024 5.75173 0.404858 5.63806 0.474524C5.5244 0.544191 5.43823 0.637691 5.37956 0.755024L4.00456 3.60402L0.913563 4.05502C0.788897 4.06969 0.67523 4.11919 0.572563 4.20352C0.469897 4.28786 0.40023 4.39236 0.363563 4.51702C0.326897 4.64169 0.32323 4.76819 0.352563 4.89652C0.381897 5.02486 0.44423 5.13302 0.539563 5.22102L2.77256 7.44302L2.24456 10.567C2.22256 10.699 2.23723 10.8237 2.28856 10.941C2.3399 11.0584 2.4169 11.1574 2.51956 11.238C2.62223 11.3187 2.73956 11.3627 2.87156 11.37C3.00356 11.3774 3.12823 11.3517 3.24556 11.293L6.00656 9.81902L8.76756 11.293C8.8849 11.3517 9.00773 11.3774 9.13606 11.37C9.2644 11.3627 9.38356 11.3205 9.49356 11.2435C9.60356 11.1665 9.6824 11.0675 9.73006 10.9465C9.77773 10.8255 9.79056 10.699 9.76856 10.567L9.22956 7.44302L11.4736 5.22102C11.5689 5.13302 11.6312 5.02486 11.6606 4.89652C11.6899 4.76819 11.6826 4.64169 11.6386 4.51702C11.5946 4.39236 11.5249 4.28786 11.4296 4.20352C11.3342 4.11919 11.2206 4.06969 11.0886 4.05502L8.00856 3.60402L6.62256 0.755024Z" fill="#D1D5DB"/>
<path d="M19.9976 0.755024C19.9389 0.637691 19.8546 0.544191 19.7446 0.474524C19.6346 0.404858 19.5136 0.370024 19.3816 0.370024C19.2496 0.370024 19.1267 0.404858 19.0131 0.474524C18.8994 0.544191 18.8132 0.637691 18.7546 0.755024L17.3796 3.60402L14.2886 4.05502C14.1639 4.06969 14.0502 4.11919 13.9476 4.20352C13.8449 4.28786 13.7752 4.39236 13.7386 4.51702C13.7019 4.64169 13.6982 4.76819 13.7276 4.89652C13.7569 5.02486 13.8192 5.13302 13.9146 5.22102L16.1476 7.44302L15.6196 10.567C15.5976 10.699 15.6122 10.8237 15.6636 10.941C15.7149 11.0584 15.7919 11.1574 15.8946 11.238C15.9972 11.3187 16.1146 11.3627 16.2466 11.37C16.3786 11.3774 16.5032 11.3517 16.6206 11.293L19.3816 9.81902L22.1426 11.293C22.2599 11.3517 22.3827 11.3774 22.5111 11.37C22.6394 11.3627 22.7586 11.3205 22.8686 11.2435C22.9786 11.1665 23.0574 11.0675 23.1051 10.9465C23.1527 10.8255 23.1656 10.699 23.1436 10.567L22.6046 7.44302L24.8486 5.22102C24.9439 5.13302 25.0062 5.02486 25.0356 4.89652C25.0649 4.76819 25.0576 4.64169 25.0136 4.51702C24.9696 4.39236 24.8999 4.28786 24.8046 4.20352C24.7092 4.11919 24.5956 4.06969 24.4636 4.05502L21.3836 3.60402L19.9976 0.755024Z" fill="#D1D5DB"/>
<path d="M33.3726 0.755024C33.3139 0.637691 33.2296 0.544191 33.1196 0.474524C33.0096 0.404858 32.8886 0.370024 32.7566 0.370024C32.6246 0.370024 32.5017 0.404858 32.3881 0.474524C32.2744 0.544191 32.1882 0.637691 32.1296 0.755024L30.7546 3.60402L27.6636 4.05502C27.5389 4.06969 27.4252 4.11919 27.3226 4.20352C27.2199 4.28786 27.1502 4.39236 27.1136 4.51702C27.0769 4.64169 27.0732 4.76819 27.1026 4.89652C27.1319 5.02486 27.1942 5.13302 27.2896 5.22102L29.5226 7.44302L28.9946 10.567C28.9726 10.699 28.9872 10.8237 29.0386 10.941C29.0899 11.0584 29.1669 11.1574 29.2696 11.238C29.3722 11.3187 29.4896 11.3627 29.6216 11.37C29.7536 11.3774 29.8782 11.3517 29.9956 11.293L32.7566 9.81902L35.5176 11.293C35.6349 11.3517 35.7577 11.3774 35.8861 11.37C36.0144 11.3627 36.1336 11.3205 36.2436 11.2435C36.3536 11.1665 36.4324 11.0675 36.4801 10.9465C36.5277 10.8255 36.5406 10.699 36.5186 10.567L35.9796 7.44302L38.2236 5.22102C38.3189 5.13302 38.3812 5.02486 38.4106 4.89652C38.4399 4.76819 38.4326 4.64169 38.3886 4.51702C38.3446 4.39236 38.2749 4.28786 38.1796 4.20352C38.0842 4.11919 37.9706 4.06969 37.8386 4.05502L34.7586 3.60402L33.3726 0.755024Z" fill="#D1D5DB"/>
<path d="M46.7476 0.755024C46.6889 0.637691 46.6046 0.544191 46.4946 0.474524C46.3846 0.404858 46.2636 0.370024 46.1316 0.370024C45.9996 0.370024 45.8767 0.404858 45.7631 0.474524C45.6494 0.544191 45.5632 0.637691 45.5046 0.755024L44.1296 3.60402L41.0386 4.05502C40.9139 4.06969 40.8002 4.11919 40.6976 4.20352C40.5949 4.28786 40.5252 4.39236 40.4886 4.51702C40.4519 4.64169 40.4482 4.76819 40.4776 4.89652C40.5069 5.02486 40.5692 5.13302 40.6646 5.22102L42.8976 7.44302L42.3696 10.567C42.3476 10.699 42.3622 10.8237 42.4136 10.941C42.4649 11.0584 42.5419 11.1574 42.6446 11.238C42.7472 11.3187 42.8646 11.3627 42.9966 11.37C43.1286 11.3774 43.2532 11.3517 43.3706 11.293L46.1316 9.81902L48.8926 11.293C49.0099 11.3517 49.1327 11.3774 49.2611 11.37C49.3894 11.3627 49.5086 11.3205 49.6186 11.2435C49.7286 11.1665 49.8074 11.0675 49.8551 10.9465C49.9027 10.8255 49.9156 10.699 49.8936 10.567L49.3546 7.44302L51.5986 5.22102C51.6939 5.13302 51.7562 5.02486 51.7856 4.89652C51.8149 4.76819 51.8076 4.64169 51.7636 4.51702C51.7196 4.39236 51.6499 4.28786 51.5546 4.20352C51.4592 4.11919 51.3456 4.06969 51.2136 4.05502L48.1336 3.60402L46.7476 0.755024Z" fill="#D1D5DB"/>
<path d="M60.1226 0.755024C60.0639 0.637691 59.9796 0.544191 59.8696 0.474524C59.7596 0.404858 59.6386 0.370024 59.5066 0.370024C59.3746 0.370024 59.2517 0.404858 59.1381 0.474524C59.0244 0.544191 58.9382 0.637691 58.8796 0.755024L57.5046 3.60402L54.4136 4.05502C54.2889 4.06969 54.1752 4.11919 54.0726 4.20352C53.9699 4.28786 53.9002 4.39236 53.8636 4.51702C53.8269 4.64169 53.8232 4.76819 53.8526 4.89652C53.8819 5.02486 53.9442 5.13302 54.0396 5.22102L56.2726 7.44302L55.7446 10.567C55.7226 10.699 55.7372 10.8237 55.7886 10.941C55.8399 11.0584 55.9169 11.1574 56.0196 11.238C56.1222 11.3187 56.2396 11.3627 56.3716 11.37C56.5036 11.3774 56.6282 11.3517 56.7456 11.293L59.5066 9.81902L62.2676 11.293C62.3849 11.3517 62.5077 11.3774 62.6361 11.37C62.7644 11.3627 62.8836 11.3205 62.9936 11.2435C63.1036 11.1665 63.1824 11.0675 63.2301 10.9465C63.2777 10.8255 63.2906 10.699 63.2686 10.567L62.7296 7.44302L64.9736 5.22102C65.0689 5.13302 65.1312 5.02486 65.1606 4.89652C65.1899 4.76819 65.1826 4.64169 65.1386 4.51702C65.0946 4.39236 65.0249 4.28786 64.9296 4.20352C64.8342 4.11919 64.7206 4.06969 64.5886 4.05502L61.5086 3.60402L60.1226 0.755024Z" fill="#D1D5DB"/>
</g>
<g clip-path="url(#clip2_322_2314)">
<g clip-path="url(#clip3_322_2314)">
<path d="M6.62256 0.755024C6.5639 0.637691 6.47956 0.544191 6.36956 0.474524C6.25956 0.404858 6.13856 0.370024 6.00656 0.370024C5.87456 0.370024 5.75173 0.404858 5.63806 0.474524C5.5244 0.544191 5.43823 0.637691 5.37956 0.755024L4.00456 3.60402L0.913563 4.05502C0.788897 4.06969 0.67523 4.11919 0.572563 4.20352C0.469897 4.28786 0.40023 4.39236 0.363563 4.51702C0.326897 4.64169 0.32323 4.76819 0.352563 4.89652C0.381897 5.02486 0.44423 5.13302 0.539563 5.22102L2.77256 7.44302L2.24456 10.567C2.22256 10.699 2.23723 10.8237 2.28856 10.941C2.3399 11.0584 2.4169 11.1574 2.51956 11.238C2.62223 11.3187 2.73956 11.3627 2.87156 11.37C3.00356 11.3774 3.12823 11.3517 3.24556 11.293L6.00656 9.81902L8.76756 11.293C8.8849 11.3517 9.00773 11.3774 9.13606 11.37C9.2644 11.3627 9.38356 11.3205 9.49356 11.2435C9.60356 11.1665 9.6824 11.0675 9.73006 10.9465C9.77773 10.8255 9.79056 10.699 9.76856 10.567L9.22956 7.44302L11.4736 5.22102C11.5689 5.13302 11.6312 5.02486 11.6606 4.89652C11.6899 4.76819 11.6826 4.64169 11.6386 4.51702C11.5946 4.39236 11.5249 4.28786 11.4296 4.20352C11.3342 4.11919 11.2206 4.06969 11.0886 4.05502L8.00856 3.60402L6.62256 0.755024Z" fill="#FACC15"/>
<path d="M19.9976 0.755024C19.9389 0.637691 19.8546 0.544191 19.7446 0.474524C19.6346 0.404858 19.5136 0.370024 19.3816 0.370024C19.2496 0.370024 19.1267 0.404858 19.0131 0.474524C18.8994 0.544191 18.8132 0.637691 18.7546 0.755024L17.3796 3.60402L14.2886 4.05502C14.1639 4.06969 14.0502 4.11919 13.9476 4.20352C13.8449 4.28786 13.7752 4.39236 13.7386 4.51702C13.7019 4.64169 13.6982 4.76819 13.7276 4.89652C13.7569 5.02486 13.8192 5.13302 13.9146 5.22102L16.1476 7.44302L15.6196 10.567C15.5976 10.699 15.6122 10.8237 15.6636 10.941C15.7149 11.0584 15.7919 11.1574 15.8946 11.238C15.9972 11.3187 16.1146 11.3627 16.2466 11.37C16.3786 11.3774 16.5032 11.3517 16.6206 11.293L19.3816 9.81902L22.1426 11.293C22.2599 11.3517 22.3827 11.3774 22.5111 11.37C22.6394 11.3627 22.7586 11.3205 22.8686 11.2435C22.9786 11.1665 23.0574 11.0675 23.1051 10.9465C23.1527 10.8255 23.1656 10.699 23.1436 10.567L22.6046 7.44302L24.8486 5.22102C24.9439 5.13302 25.0062 5.02486 25.0356 4.89652C25.0649 4.76819 25.0576 4.64169 25.0136 4.51702C24.9696 4.39236 24.8999 4.28786 24.8046 4.20352C24.7092 4.11919 24.5956 4.06969 24.4636 4.05502L21.3836 3.60402L19.9976 0.755024Z" fill="#FACC15"/>
<path d="M33.3726 0.755024C33.3139 0.637691 33.2296 0.544191 33.1196 0.474524C33.0096 0.404858 32.8886 0.370024 32.7566 0.370024C32.6246 0.370024 32.5017 0.404858 32.3881 0.474524C32.2744 0.544191 32.1882 0.637691 32.1296 0.755024L30.7546 3.60402L27.6636 4.05502C27.5389 4.06969 27.4252 4.11919 27.3226 4.20352C27.2199 4.28786 27.1502 4.39236 27.1136 4.51702C27.0769 4.64169 27.0732 4.76819 27.1026 4.89652C27.1319 5.02486 27.1942 5.13302 27.2896 5.22102L29.5226 7.44302L28.9946 10.567C28.9726 10.699 28.9872 10.8237 29.0386 10.941C29.0899 11.0584 29.1669 11.1574 29.2696 11.238C29.3722 11.3187 29.4896 11.3627 29.6216 11.37C29.7536 11.3774 29.8782 11.3517 29.9956 11.293L32.7566 9.81902L35.5176 11.293C35.6349 11.3517 35.7577 11.3774 35.8861 11.37C36.0144 11.3627 36.1336 11.3205 36.2436 11.2435C36.3536 11.1665 36.4324 11.0675 36.4801 10.9465C36.5277 10.8255 36.5406 10.699 36.5186 10.567L35.9796 7.44302L38.2236 5.22102C38.3189 5.13302 38.3812 5.02486 38.4106 4.89652C38.4399 4.76819 38.4326 4.64169 38.3886 4.51702C38.3446 4.39236 38.2749 4.28786 38.1796 4.20352C38.0842 4.11919 37.9706 4.06969 37.8386 4.05502L34.7586 3.60402L33.3726 0.755024Z" fill="#FACC15"/>
<path d="M46.7476 0.755024C46.6889 0.637691 46.6046 0.544191 46.4946 0.474524C46.3846 0.404858 46.2636 0.370024 46.1316 0.370024C45.9996 0.370024 45.8767 0.404858 45.7631 0.474524C45.6494 0.544191 45.5632 0.637691 45.5046 0.755024L44.1296 3.60402L41.0386 4.05502C40.9139 4.06969 40.8002 4.11919 40.6976 4.20352C40.5949 4.28786 40.5252 4.39236 40.4886 4.51702C40.4519 4.64169 40.4482 4.76819 40.4776 4.89652C40.5069 5.02486 40.5692 5.13302 40.6646 5.22102L42.8976 7.44302L42.3696 10.567C42.3476 10.699 42.3622 10.8237 42.4136 10.941C42.4649 11.0584 42.5419 11.1574 42.6446 11.238C42.7472 11.3187 42.8646 11.3627 42.9966 11.37C43.1286 11.3774 43.2532 11.3517 43.3706 11.293L46.1316 9.81902L48.8926 11.293C49.0099 11.3517 49.1327 11.3774 49.2611 11.37C49.3894 11.3627 49.5086 11.3205 49.6186 11.2435C49.7286 11.1665 49.8074 11.0675 49.8551 10.9465C49.9027 10.8255 49.9156 10.699 49.8936 10.567L49.3546 7.44302L51.5986 5.22102C51.6939 5.13302 51.7562 5.02486 51.7856 4.89652C51.8149 4.76819 51.8076 4.64169 51.7636 4.51702C51.7196 4.39236 51.6499 4.28786 51.5546 4.20352C51.4592 4.11919 51.3456 4.06969 51.2136 4.05502L48.1336 3.60402L46.7476 0.755024Z" fill="#FACC15"/>
<path d="M60.1226 0.755024C60.0639 0.637691 59.9796 0.544191 59.8696 0.474524C59.7596 0.404858 59.6386 0.370024 59.5066 0.370024C59.3746 0.370024 59.2517 0.404858 59.1381 0.474524C59.0244 0.544191 58.9382 0.637691 58.8796 0.755024L57.5046 3.60402L54.4136 4.05502C54.2889 4.06969 54.1752 4.11919 54.0726 4.20352C53.9699 4.28786 53.9002 4.39236 53.8636 4.51702C53.8269 4.64169 53.8232 4.76819 53.8526 4.89652C53.8819 5.02486 53.9442 5.13302 54.0396 5.22102L56.2726 7.44302L55.7446 10.567C55.7226 10.699 55.7372 10.8237 55.7886 10.941C55.8399 11.0584 55.9169 11.1574 56.0196 11.238C56.1222 11.3187 56.2396 11.3627 56.3716 11.37C56.5036 11.3774 56.6282 11.3517 56.7456 11.293L59.5066 9.81902L62.2676 11.293C62.3849 11.3517 62.5077 11.3774 62.6361 11.37C62.7644 11.3627 62.8836 11.3205 62.9936 11.2435C63.1036 11.1665 63.1824 11.0675 63.2301 10.9465C63.2777 10.8255 63.2906 10.699 63.2686 10.567L62.7296 7.44302L64.9736 5.22102C65.0689 5.13302 65.1312 5.02486 65.1606 4.89652C65.1899 4.76819 65.1826 4.64169 65.1386 4.51702C65.0946 4.39236 65.0249 4.28786 64.9296 4.20352C64.8342 4.11919 64.7206 4.06969 64.5886 4.05502L61.5086 3.60402L60.1226 0.755024Z" fill="#FACC15"/>
</g>
</g>
</g>
<defs>
<clipPath id="clip0_322_2314">
<rect width="66.88" height="11" fill="white" transform="translate(0.330078 0.370026)"/>
</clipPath>
<clipPath id="clip1_322_2314">
<rect width="66.88" height="11" fill="white" transform="matrix(1 0 0 -1 0.330078 11.37)"/>
</clipPath>
<clipPath id="clip2_322_2314">
<rect width="57.91" height="11" fill="white" transform="translate(0.330078 0.370026)"/>
</clipPath>
<clipPath id="clip3_322_2314">
<rect width="66.88" height="11" fill="white" transform="matrix(1 0 0 -1 0.330078 11.37)"/>
</clipPath>
</defs>
</svg>
