<svg width="68" height="12" viewBox="0 0 68 12" fill="none" xmlns="http://www.w3.org/2000/svg">
<g clip-path="url(#clip0_322_2007)">
<g clip-path="url(#clip1_322_2007)">
<path d="M6.96241 0.435048C6.90374 0.317714 6.81941 0.224214 6.70941 0.154548C6.59941 0.084881 6.47841 0.0500477 6.34641 0.0500477C6.21441 0.0500477 6.09157 0.084881 5.97791 0.154548C5.86424 0.224214 5.77807 0.317714 5.71941 0.435048L4.34441 3.28405L1.25341 3.73505C1.12874 3.74971 1.01507 3.79921 0.912407 3.88355C0.80974 3.96788 0.740074 4.07238 0.703407 4.19705C0.66674 4.32171 0.663074 4.44821 0.692407 4.57655C0.72174 4.70488 0.784074 4.81305 0.879407 4.90105L3.11241 7.12305L2.58441 10.247C2.56241 10.379 2.57707 10.5037 2.62841 10.621C2.67974 10.7384 2.75674 10.8374 2.85941 10.918C2.96207 10.9987 3.07941 11.0427 3.21141 11.05C3.34341 11.0574 3.46807 11.0317 3.58541 10.973L6.34641 9.49905L9.10741 10.973C9.22474 11.0317 9.34757 11.0574 9.47591 11.05C9.60424 11.0427 9.72341 11.0005 9.83341 10.9235C9.94341 10.8465 10.0222 10.7475 10.0699 10.6265C10.1176 10.5055 10.1304 10.379 10.1084 10.247L9.56941 7.12305L11.8134 4.90105C11.9087 4.81305 11.9711 4.70488 12.0004 4.57655C12.0297 4.44821 12.0224 4.32171 11.9784 4.19705C11.9344 4.07238 11.8647 3.96788 11.7694 3.88355C11.6741 3.79921 11.5604 3.74971 11.4284 3.73505L8.34841 3.28405L6.96241 0.435048Z" fill="#D1D5DB"/>
<path d="M20.3374 0.435048C20.2787 0.317714 20.1944 0.224214 20.0844 0.154548C19.9744 0.084881 19.8534 0.0500477 19.7214 0.0500477C19.5894 0.0500477 19.4666 0.084881 19.3529 0.154548C19.2392 0.224214 19.1531 0.317714 19.0944 0.435048L17.7194 3.28405L14.6284 3.73505C14.5037 3.74971 14.3901 3.79921 14.2874 3.88355C14.1847 3.96788 14.1151 4.07238 14.0784 4.19705C14.0417 4.32171 14.0381 4.44821 14.0674 4.57655C14.0967 4.70488 14.1591 4.81305 14.2544 4.90105L16.4874 7.12305L15.9594 10.247C15.9374 10.379 15.9521 10.5037 16.0034 10.621C16.0547 10.7384 16.1317 10.8374 16.2344 10.918C16.3371 10.9987 16.4544 11.0427 16.5864 11.05C16.7184 11.0574 16.8431 11.0317 16.9604 10.973L19.7214 9.49905L22.4824 10.973C22.5997 11.0317 22.7226 11.0574 22.8509 11.05C22.9792 11.0427 23.0984 11.0005 23.2084 10.9235C23.3184 10.8465 23.3972 10.7475 23.4449 10.6265C23.4926 10.5055 23.5054 10.379 23.4834 10.247L22.9444 7.12305L25.1884 4.90105C25.2837 4.81305 25.3461 4.70488 25.3754 4.57655C25.4047 4.44821 25.3974 4.32171 25.3534 4.19705C25.3094 4.07238 25.2397 3.96788 25.1444 3.88355C25.0491 3.79921 24.9354 3.74971 24.8034 3.73505L21.7234 3.28405L20.3374 0.435048Z" fill="#D1D5DB"/>
<path d="M33.7124 0.435048C33.6537 0.317714 33.5694 0.224214 33.4594 0.154548C33.3494 0.084881 33.2284 0.0500477 33.0964 0.0500477C32.9644 0.0500477 32.8416 0.084881 32.7279 0.154548C32.6142 0.224214 32.5281 0.317714 32.4694 0.435048L31.0944 3.28405L28.0034 3.73505C27.8787 3.74971 27.7651 3.79921 27.6624 3.88355C27.5597 3.96788 27.4901 4.07238 27.4534 4.19705C27.4167 4.32171 27.4131 4.44821 27.4424 4.57655C27.4717 4.70488 27.5341 4.81305 27.6294 4.90105L29.8624 7.12305L29.3344 10.247C29.3124 10.379 29.3271 10.5037 29.3784 10.621C29.4297 10.7384 29.5067 10.8374 29.6094 10.918C29.7121 10.9987 29.8294 11.0427 29.9614 11.05C30.0934 11.0574 30.2181 11.0317 30.3354 10.973L33.0964 9.49905L35.8574 10.973C35.9747 11.0317 36.0976 11.0574 36.2259 11.05C36.3542 11.0427 36.4734 11.0005 36.5834 10.9235C36.6934 10.8465 36.7722 10.7475 36.8199 10.6265C36.8676 10.5055 36.8804 10.379 36.8584 10.247L36.3194 7.12305L38.5634 4.90105C38.6587 4.81305 38.7211 4.70488 38.7504 4.57655C38.7797 4.44821 38.7724 4.32171 38.7284 4.19705C38.6844 4.07238 38.6147 3.96788 38.5194 3.88355C38.4241 3.79921 38.3104 3.74971 38.1784 3.73505L35.0984 3.28405L33.7124 0.435048Z" fill="#D1D5DB"/>
<path d="M47.0874 0.435048C47.0287 0.317714 46.9444 0.224214 46.8344 0.154548C46.7244 0.084881 46.6034 0.0500477 46.4714 0.0500477C46.3394 0.0500477 46.2166 0.084881 46.1029 0.154548C45.9892 0.224214 45.9031 0.317714 45.8444 0.435048L44.4694 3.28405L41.3784 3.73505C41.2537 3.74971 41.1401 3.79921 41.0374 3.88355C40.9347 3.96788 40.8651 4.07238 40.8284 4.19705C40.7917 4.32171 40.7881 4.44821 40.8174 4.57655C40.8467 4.70488 40.9091 4.81305 41.0044 4.90105L43.2374 7.12305L42.7094 10.247C42.6874 10.379 42.7021 10.5037 42.7534 10.621C42.8047 10.7384 42.8817 10.8374 42.9844 10.918C43.0871 10.9987 43.2044 11.0427 43.3364 11.05C43.4684 11.0574 43.5931 11.0317 43.7104 10.973L46.4714 9.49905L49.2324 10.973C49.3497 11.0317 49.4726 11.0574 49.6009 11.05C49.7292 11.0427 49.8484 11.0005 49.9584 10.9235C50.0684 10.8465 50.1472 10.7475 50.1949 10.6265C50.2426 10.5055 50.2554 10.379 50.2334 10.247L49.6944 7.12305L51.9384 4.90105C52.0337 4.81305 52.0961 4.70488 52.1254 4.57655C52.1547 4.44821 52.1474 4.32171 52.1034 4.19705C52.0594 4.07238 51.9897 3.96788 51.8944 3.88355C51.7991 3.79921 51.6854 3.74971 51.5534 3.73505L48.4734 3.28405L47.0874 0.435048Z" fill="#D1D5DB"/>
<path d="M60.4624 0.435048C60.4037 0.317714 60.3194 0.224214 60.2094 0.154548C60.0994 0.084881 59.9784 0.0500477 59.8464 0.0500477C59.7144 0.0500477 59.5916 0.084881 59.4779 0.154548C59.3642 0.224214 59.2781 0.317714 59.2194 0.435048L57.8444 3.28405L54.7534 3.73505C54.6287 3.74971 54.5151 3.79921 54.4124 3.88355C54.3097 3.96788 54.2401 4.07238 54.2034 4.19705C54.1667 4.32171 54.1631 4.44821 54.1924 4.57655C54.2217 4.70488 54.2841 4.81305 54.3794 4.90105L56.6124 7.12305L56.0844 10.247C56.0624 10.379 56.0771 10.5037 56.1284 10.621C56.1797 10.7384 56.2567 10.8374 56.3594 10.918C56.4621 10.9987 56.5794 11.0427 56.7114 11.05C56.8434 11.0574 56.9681 11.0317 57.0854 10.973L59.8464 9.49905L62.6074 10.973C62.7247 11.0317 62.8476 11.0574 62.9759 11.05C63.1042 11.0427 63.2234 11.0005 63.3334 10.9235C63.4434 10.8465 63.5222 10.7475 63.5699 10.6265C63.6176 10.5055 63.6304 10.379 63.6084 10.247L63.0694 7.12305L65.3134 4.90105C65.4087 4.81305 65.4711 4.70488 65.5004 4.57655C65.5297 4.44821 65.5224 4.32171 65.4784 4.19705C65.4344 4.07238 65.3647 3.96788 65.2694 3.88355C65.1741 3.79921 65.0604 3.74971 64.9284 3.73505L61.8484 3.28405L60.4624 0.435048Z" fill="#D1D5DB"/>
</g>
<g clip-path="url(#clip2_322_2007)">
<g clip-path="url(#clip3_322_2007)">
<path d="M6.96241 0.435048C6.90374 0.317714 6.81941 0.224214 6.70941 0.154548C6.59941 0.084881 6.47841 0.0500477 6.34641 0.0500477C6.21441 0.0500477 6.09157 0.084881 5.97791 0.154548C5.86424 0.224214 5.77807 0.317714 5.71941 0.435048L4.34441 3.28405L1.25341 3.73505C1.12874 3.74971 1.01507 3.79921 0.912407 3.88355C0.80974 3.96788 0.740074 4.07238 0.703407 4.19705C0.66674 4.32171 0.663074 4.44821 0.692407 4.57655C0.72174 4.70488 0.784074 4.81305 0.879407 4.90105L3.11241 7.12305L2.58441 10.247C2.56241 10.379 2.57707 10.5037 2.62841 10.621C2.67974 10.7384 2.75674 10.8374 2.85941 10.918C2.96207 10.9987 3.07941 11.0427 3.21141 11.05C3.34341 11.0574 3.46807 11.0317 3.58541 10.973L6.34641 9.49905L9.10741 10.973C9.22474 11.0317 9.34757 11.0574 9.47591 11.05C9.60424 11.0427 9.72341 11.0005 9.83341 10.9235C9.94341 10.8465 10.0222 10.7475 10.0699 10.6265C10.1176 10.5055 10.1304 10.379 10.1084 10.247L9.56941 7.12305L11.8134 4.90105C11.9087 4.81305 11.9711 4.70488 12.0004 4.57655C12.0297 4.44821 12.0224 4.32171 11.9784 4.19705C11.9344 4.07238 11.8647 3.96788 11.7694 3.88355C11.6741 3.79921 11.5604 3.74971 11.4284 3.73505L8.34841 3.28405L6.96241 0.435048Z" fill="#FACC15"/>
<path d="M20.3374 0.435048C20.2787 0.317714 20.1944 0.224214 20.0844 0.154548C19.9744 0.084881 19.8534 0.0500477 19.7214 0.0500477C19.5894 0.0500477 19.4666 0.084881 19.3529 0.154548C19.2392 0.224214 19.1531 0.317714 19.0944 0.435048L17.7194 3.28405L14.6284 3.73505C14.5037 3.74971 14.3901 3.79921 14.2874 3.88355C14.1847 3.96788 14.1151 4.07238 14.0784 4.19705C14.0417 4.32171 14.0381 4.44821 14.0674 4.57655C14.0967 4.70488 14.1591 4.81305 14.2544 4.90105L16.4874 7.12305L15.9594 10.247C15.9374 10.379 15.9521 10.5037 16.0034 10.621C16.0547 10.7384 16.1317 10.8374 16.2344 10.918C16.3371 10.9987 16.4544 11.0427 16.5864 11.05C16.7184 11.0574 16.8431 11.0317 16.9604 10.973L19.7214 9.49905L22.4824 10.973C22.5997 11.0317 22.7226 11.0574 22.8509 11.05C22.9792 11.0427 23.0984 11.0005 23.2084 10.9235C23.3184 10.8465 23.3972 10.7475 23.4449 10.6265C23.4926 10.5055 23.5054 10.379 23.4834 10.247L22.9444 7.12305L25.1884 4.90105C25.2837 4.81305 25.3461 4.70488 25.3754 4.57655C25.4047 4.44821 25.3974 4.32171 25.3534 4.19705C25.3094 4.07238 25.2397 3.96788 25.1444 3.88355C25.0491 3.79921 24.9354 3.74971 24.8034 3.73505L21.7234 3.28405L20.3374 0.435048Z" fill="#FACC15"/>
<path d="M33.7124 0.435048C33.6537 0.317714 33.5694 0.224214 33.4594 0.154548C33.3494 0.084881 33.2284 0.0500477 33.0964 0.0500477C32.9644 0.0500477 32.8416 0.084881 32.7279 0.154548C32.6142 0.224214 32.5281 0.317714 32.4694 0.435048L31.0944 3.28405L28.0034 3.73505C27.8787 3.74971 27.7651 3.79921 27.6624 3.88355C27.5597 3.96788 27.4901 4.07238 27.4534 4.19705C27.4167 4.32171 27.4131 4.44821 27.4424 4.57655C27.4717 4.70488 27.5341 4.81305 27.6294 4.90105L29.8624 7.12305L29.3344 10.247C29.3124 10.379 29.3271 10.5037 29.3784 10.621C29.4297 10.7384 29.5067 10.8374 29.6094 10.918C29.7121 10.9987 29.8294 11.0427 29.9614 11.05C30.0934 11.0574 30.2181 11.0317 30.3354 10.973L33.0964 9.49905L35.8574 10.973C35.9747 11.0317 36.0976 11.0574 36.2259 11.05C36.3542 11.0427 36.4734 11.0005 36.5834 10.9235C36.6934 10.8465 36.7722 10.7475 36.8199 10.6265C36.8676 10.5055 36.8804 10.379 36.8584 10.247L36.3194 7.12305L38.5634 4.90105C38.6587 4.81305 38.7211 4.70488 38.7504 4.57655C38.7797 4.44821 38.7724 4.32171 38.7284 4.19705C38.6844 4.07238 38.6147 3.96788 38.5194 3.88355C38.4241 3.79921 38.3104 3.74971 38.1784 3.73505L35.0984 3.28405L33.7124 0.435048Z" fill="#FACC15"/>
</g>
</g>
</g>
<defs>
<clipPath id="clip0_322_2007">
<rect width="66.88" height="11" fill="white" transform="translate(0.669922 0.0500488)"/>
</clipPath>
<clipPath id="clip1_322_2007">
<rect width="66.88" height="11" fill="white" transform="matrix(1 0 0 -1 0.669922 11.05)"/>
</clipPath>
<clipPath id="clip2_322_2007">
<rect width="31.16" height="11" fill="white" transform="translate(0.669922 0.0500488)"/>
</clipPath>
<clipPath id="clip3_322_2007">
<rect width="66.88" height="11" fill="white" transform="matrix(1 0 0 -1 0.669922 11.05)"/>
</clipPath>
</defs>
</svg>
