<svg width="67" height="12" viewBox="0 0 67 12" fill="none" xmlns="http://www.w3.org/2000/svg">
<g clip-path="url(#clip0_322_1970)">
<g clip-path="url(#clip1_322_1970)">
<path d="M6.29249 0.435048C6.23382 0.317714 6.14949 0.224214 6.03949 0.154548C5.92949 0.084881 5.80849 0.0500477 5.67649 0.0500477C5.54449 0.0500477 5.42165 0.084881 5.30799 0.154548C5.19432 0.224214 5.10815 0.317714 5.04949 0.435048L3.67449 3.28405L0.583485 3.73505C0.458819 3.74971 0.345152 3.79921 0.242485 3.88355C0.139819 3.96788 0.0701519 4.07238 0.0334852 4.19705C-0.00318142 4.32171 -0.00684809 4.44821 0.0224852 4.57655C0.0518186 4.70488 0.114152 4.81305 0.209485 4.90105L2.44249 7.12305L1.91449 10.247C1.89249 10.379 1.90715 10.5037 1.95849 10.621C2.00982 10.7384 2.08682 10.8374 2.18949 10.918C2.29215 10.9987 2.40949 11.0427 2.54149 11.05C2.67349 11.0574 2.79815 11.0317 2.91549 10.973L5.67649 9.49905L8.43749 10.973C8.55482 11.0317 8.67765 11.0574 8.80599 11.05C8.93432 11.0427 9.05349 11.0005 9.16349 10.9235C9.27349 10.8465 9.35232 10.7475 9.39999 10.6265C9.44765 10.5055 9.46049 10.379 9.43849 10.247L8.89949 7.12305L11.1435 4.90105C11.2388 4.81305 11.3012 4.70488 11.3305 4.57655C11.3598 4.44821 11.3525 4.32171 11.3085 4.19705C11.2645 4.07238 11.1948 3.96788 11.0995 3.88355C11.0042 3.79921 10.8905 3.74971 10.7585 3.73505L7.67849 3.28405L6.29249 0.435048Z" fill="#D1D5DB"/>
<path d="M19.6675 0.435048C19.6088 0.317714 19.5245 0.224214 19.4145 0.154548C19.3045 0.084881 19.1835 0.0500477 19.0515 0.0500477C18.9195 0.0500477 18.7967 0.084881 18.683 0.154548C18.5693 0.224214 18.4832 0.317714 18.4245 0.435048L17.0495 3.28405L13.9585 3.73505C13.8338 3.74971 13.7202 3.79921 13.6175 3.88355C13.5148 3.96788 13.4452 4.07238 13.4085 4.19705C13.3718 4.32171 13.3682 4.44821 13.3975 4.57655C13.4268 4.70488 13.4892 4.81305 13.5845 4.90105L15.8175 7.12305L15.2895 10.247C15.2675 10.379 15.2822 10.5037 15.3335 10.621C15.3848 10.7384 15.4618 10.8374 15.5645 10.918C15.6672 10.9987 15.7845 11.0427 15.9165 11.05C16.0485 11.0574 16.1732 11.0317 16.2905 10.973L19.0515 9.49905L21.8125 10.973C21.9298 11.0317 22.0527 11.0574 22.181 11.05C22.3093 11.0427 22.4285 11.0005 22.5385 10.9235C22.6485 10.8465 22.7273 10.7475 22.775 10.6265C22.8227 10.5055 22.8355 10.379 22.8135 10.247L22.2745 7.12305L24.5185 4.90105C24.6138 4.81305 24.6762 4.70488 24.7055 4.57655C24.7348 4.44821 24.7275 4.32171 24.6835 4.19705C24.6395 4.07238 24.5698 3.96788 24.4745 3.88355C24.3792 3.79921 24.2655 3.74971 24.1335 3.73505L21.0535 3.28405L19.6675 0.435048Z" fill="#D1D5DB"/>
<path d="M33.0425 0.435048C32.9838 0.317714 32.8995 0.224214 32.7895 0.154548C32.6795 0.084881 32.5585 0.0500477 32.4265 0.0500477C32.2945 0.0500477 32.1717 0.084881 32.058 0.154548C31.9443 0.224214 31.8582 0.317714 31.7995 0.435048L30.4245 3.28405L27.3335 3.73505C27.2088 3.74971 27.0952 3.79921 26.9925 3.88355C26.8898 3.96788 26.8202 4.07238 26.7835 4.19705C26.7468 4.32171 26.7432 4.44821 26.7725 4.57655C26.8018 4.70488 26.8642 4.81305 26.9595 4.90105L29.1925 7.12305L28.6645 10.247C28.6425 10.379 28.6572 10.5037 28.7085 10.621C28.7598 10.7384 28.8368 10.8374 28.9395 10.918C29.0422 10.9987 29.1595 11.0427 29.2915 11.05C29.4235 11.0574 29.5482 11.0317 29.6655 10.973L32.4265 9.49905L35.1875 10.973C35.3048 11.0317 35.4277 11.0574 35.556 11.05C35.6843 11.0427 35.8035 11.0005 35.9135 10.9235C36.0235 10.8465 36.1023 10.7475 36.15 10.6265C36.1977 10.5055 36.2105 10.379 36.1885 10.247L35.6495 7.12305L37.8935 4.90105C37.9888 4.81305 38.0512 4.70488 38.0805 4.57655C38.1098 4.44821 38.1025 4.32171 38.0585 4.19705C38.0145 4.07238 37.9448 3.96788 37.8495 3.88355C37.7542 3.79921 37.6405 3.74971 37.5085 3.73505L34.4285 3.28405L33.0425 0.435048Z" fill="#D1D5DB"/>
<path d="M46.4175 0.435048C46.3588 0.317714 46.2745 0.224214 46.1645 0.154548C46.0545 0.084881 45.9335 0.0500477 45.8015 0.0500477C45.6695 0.0500477 45.5467 0.084881 45.433 0.154548C45.3193 0.224214 45.2332 0.317714 45.1745 0.435048L43.7995 3.28405L40.7085 3.73505C40.5838 3.74971 40.4702 3.79921 40.3675 3.88355C40.2648 3.96788 40.1952 4.07238 40.1585 4.19705C40.1218 4.32171 40.1182 4.44821 40.1475 4.57655C40.1768 4.70488 40.2392 4.81305 40.3345 4.90105L42.5675 7.12305L42.0395 10.247C42.0175 10.379 42.0322 10.5037 42.0835 10.621C42.1348 10.7384 42.2118 10.8374 42.3145 10.918C42.4172 10.9987 42.5345 11.0427 42.6665 11.05C42.7985 11.0574 42.9232 11.0317 43.0405 10.973L45.8015 9.49905L48.5625 10.973C48.6798 11.0317 48.8027 11.0574 48.931 11.05C49.0593 11.0427 49.1785 11.0005 49.2885 10.9235C49.3985 10.8465 49.4773 10.7475 49.525 10.6265C49.5727 10.5055 49.5855 10.379 49.5635 10.247L49.0245 7.12305L51.2685 4.90105C51.3638 4.81305 51.4262 4.70488 51.4555 4.57655C51.4848 4.44821 51.4775 4.32171 51.4335 4.19705C51.3895 4.07238 51.3198 3.96788 51.2245 3.88355C51.1292 3.79921 51.0155 3.74971 50.8835 3.73505L47.8035 3.28405L46.4175 0.435048Z" fill="#D1D5DB"/>
<path d="M59.7925 0.435048C59.7338 0.317714 59.6495 0.224214 59.5395 0.154548C59.4295 0.084881 59.3085 0.0500477 59.1765 0.0500477C59.0445 0.0500477 58.9217 0.084881 58.808 0.154548C58.6943 0.224214 58.6082 0.317714 58.5495 0.435048L57.1745 3.28405L54.0835 3.73505C53.9588 3.74971 53.8452 3.79921 53.7425 3.88355C53.6398 3.96788 53.5702 4.07238 53.5335 4.19705C53.4968 4.32171 53.4932 4.44821 53.5225 4.57655C53.5518 4.70488 53.6142 4.81305 53.7095 4.90105L55.9425 7.12305L55.4145 10.247C55.3925 10.379 55.4072 10.5037 55.4585 10.621C55.5098 10.7384 55.5868 10.8374 55.6895 10.918C55.7922 10.9987 55.9095 11.0427 56.0415 11.05C56.1735 11.0574 56.2982 11.0317 56.4155 10.973L59.1765 9.49905L61.9375 10.973C62.0548 11.0317 62.1777 11.0574 62.306 11.05C62.4343 11.0427 62.5535 11.0005 62.6635 10.9235C62.7735 10.8465 62.8523 10.7475 62.9 10.6265C62.9477 10.5055 62.9605 10.379 62.9385 10.247L62.3995 7.12305L64.6435 4.90105C64.7388 4.81305 64.8012 4.70488 64.8305 4.57655C64.8598 4.44821 64.8525 4.32171 64.8085 4.19705C64.7645 4.07238 64.6948 3.96788 64.5995 3.88355C64.5042 3.79921 64.3905 3.74971 64.2585 3.73505L61.1785 3.28405L59.7925 0.435048Z" fill="#D1D5DB"/>
</g>
<g clip-path="url(#clip2_322_1970)">
<g clip-path="url(#clip3_322_1970)">
<path d="M6.29249 0.435048C6.23382 0.317714 6.14949 0.224214 6.03949 0.154548C5.92949 0.084881 5.80849 0.0500477 5.67649 0.0500477C5.54449 0.0500477 5.42165 0.084881 5.30799 0.154548C5.19432 0.224214 5.10815 0.317714 5.04949 0.435048L3.67449 3.28405L0.583485 3.73505C0.458819 3.74971 0.345152 3.79921 0.242485 3.88355C0.139819 3.96788 0.0701519 4.07238 0.0334852 4.19705C-0.00318142 4.32171 -0.00684809 4.44821 0.0224852 4.57655C0.0518186 4.70488 0.114152 4.81305 0.209485 4.90105L2.44249 7.12305L1.91449 10.247C1.89249 10.379 1.90715 10.5037 1.95849 10.621C2.00982 10.7384 2.08682 10.8374 2.18949 10.918C2.29215 10.9987 2.40949 11.0427 2.54149 11.05C2.67349 11.0574 2.79815 11.0317 2.91549 10.973L5.67649 9.49905L8.43749 10.973C8.55482 11.0317 8.67765 11.0574 8.80599 11.05C8.93432 11.0427 9.05349 11.0005 9.16349 10.9235C9.27349 10.8465 9.35232 10.7475 9.39999 10.6265C9.44765 10.5055 9.46049 10.379 9.43849 10.247L8.89949 7.12305L11.1435 4.90105C11.2388 4.81305 11.3012 4.70488 11.3305 4.57655C11.3598 4.44821 11.3525 4.32171 11.3085 4.19705C11.2645 4.07238 11.1948 3.96788 11.0995 3.88355C11.0042 3.79921 10.8905 3.74971 10.7585 3.73505L7.67849 3.28405L6.29249 0.435048Z" fill="#FACC15"/>
<path d="M19.6675 0.435048C19.6088 0.317714 19.5245 0.224214 19.4145 0.154548C19.3045 0.084881 19.1835 0.0500477 19.0515 0.0500477C18.9195 0.0500477 18.7967 0.084881 18.683 0.154548C18.5693 0.224214 18.4832 0.317714 18.4245 0.435048L17.0495 3.28405L13.9585 3.73505C13.8338 3.74971 13.7202 3.79921 13.6175 3.88355C13.5148 3.96788 13.4452 4.07238 13.4085 4.19705C13.3718 4.32171 13.3682 4.44821 13.3975 4.57655C13.4268 4.70488 13.4892 4.81305 13.5845 4.90105L15.8175 7.12305L15.2895 10.247C15.2675 10.379 15.2822 10.5037 15.3335 10.621C15.3848 10.7384 15.4618 10.8374 15.5645 10.918C15.6672 10.9987 15.7845 11.0427 15.9165 11.05C16.0485 11.0574 16.1732 11.0317 16.2905 10.973L19.0515 9.49905L21.8125 10.973C21.9298 11.0317 22.0527 11.0574 22.181 11.05C22.3093 11.0427 22.4285 11.0005 22.5385 10.9235C22.6485 10.8465 22.7273 10.7475 22.775 10.6265C22.8227 10.5055 22.8355 10.379 22.8135 10.247L22.2745 7.12305L24.5185 4.90105C24.6138 4.81305 24.6762 4.70488 24.7055 4.57655C24.7348 4.44821 24.7275 4.32171 24.6835 4.19705C24.6395 4.07238 24.5698 3.96788 24.4745 3.88355C24.3792 3.79921 24.2655 3.74971 24.1335 3.73505L21.0535 3.28405L19.6675 0.435048Z" fill="#FACC15"/>
<path d="M33.0425 0.435048C32.9838 0.317714 32.8995 0.224214 32.7895 0.154548C32.6795 0.084881 32.5585 0.0500477 32.4265 0.0500477C32.2945 0.0500477 32.1717 0.084881 32.058 0.154548C31.9443 0.224214 31.8582 0.317714 31.7995 0.435048L30.4245 3.28405L27.3335 3.73505C27.2088 3.74971 27.0952 3.79921 26.9925 3.88355C26.8898 3.96788 26.8202 4.07238 26.7835 4.19705C26.7468 4.32171 26.7432 4.44821 26.7725 4.57655C26.8018 4.70488 26.8642 4.81305 26.9595 4.90105L29.1925 7.12305L28.6645 10.247C28.6425 10.379 28.6572 10.5037 28.7085 10.621C28.7598 10.7384 28.8368 10.8374 28.9395 10.918C29.0422 10.9987 29.1595 11.0427 29.2915 11.05C29.4235 11.0574 29.5482 11.0317 29.6655 10.973L32.4265 9.49905L35.1875 10.973C35.3048 11.0317 35.4277 11.0574 35.556 11.05C35.6843 11.0427 35.8035 11.0005 35.9135 10.9235C36.0235 10.8465 36.1023 10.7475 36.15 10.6265C36.1977 10.5055 36.2105 10.379 36.1885 10.247L35.6495 7.12305L37.8935 4.90105C37.9888 4.81305 38.0512 4.70488 38.0805 4.57655C38.1098 4.44821 38.1025 4.32171 38.0585 4.19705C38.0145 4.07238 37.9448 3.96788 37.8495 3.88355C37.7542 3.79921 37.6405 3.74971 37.5085 3.73505L34.4285 3.28405L33.0425 0.435048Z" fill="#FACC15"/>
<path d="M46.4175 0.435048C46.3588 0.317714 46.2745 0.224214 46.1645 0.154548C46.0545 0.084881 45.9335 0.0500477 45.8015 0.0500477C45.6695 0.0500477 45.5467 0.084881 45.433 0.154548C45.3193 0.224214 45.2332 0.317714 45.1745 0.435048L43.7995 3.28405L40.7085 3.73505C40.5838 3.74971 40.4702 3.79921 40.3675 3.88355C40.2648 3.96788 40.1952 4.07238 40.1585 4.19705C40.1218 4.32171 40.1182 4.44821 40.1475 4.57655C40.1768 4.70488 40.2392 4.81305 40.3345 4.90105L42.5675 7.12305L42.0395 10.247C42.0175 10.379 42.0322 10.5037 42.0835 10.621C42.1348 10.7384 42.2118 10.8374 42.3145 10.918C42.4172 10.9987 42.5345 11.0427 42.6665 11.05C42.7985 11.0574 42.9232 11.0317 43.0405 10.973L45.8015 9.49905L48.5625 10.973C48.6798 11.0317 48.8027 11.0574 48.931 11.05C49.0593 11.0427 49.1785 11.0005 49.2885 10.9235C49.3985 10.8465 49.4773 10.7475 49.525 10.6265C49.5727 10.5055 49.5855 10.379 49.5635 10.247L49.0245 7.12305L51.2685 4.90105C51.3638 4.81305 51.4262 4.70488 51.4555 4.57655C51.4848 4.44821 51.4775 4.32171 51.4335 4.19705C51.3895 4.07238 51.3198 3.96788 51.2245 3.88355C51.1292 3.79921 51.0155 3.74971 50.8835 3.73505L47.8035 3.28405L46.4175 0.435048Z" fill="#FACC15"/>
<path d="M59.7925 0.435048C59.7338 0.317714 59.6495 0.224214 59.5395 0.154548C59.4295 0.084881 59.3085 0.0500477 59.1765 0.0500477C59.0445 0.0500477 58.9217 0.084881 58.808 0.154548C58.6943 0.224214 58.6082 0.317714 58.5495 0.435048L57.1745 3.28405L54.0835 3.73505C53.9588 3.74971 53.8452 3.79921 53.7425 3.88355C53.6398 3.96788 53.5702 4.07238 53.5335 4.19705C53.4968 4.32171 53.4932 4.44821 53.5225 4.57655C53.5518 4.70488 53.6142 4.81305 53.7095 4.90105L55.9425 7.12305L55.4145 10.247C55.3925 10.379 55.4072 10.5037 55.4585 10.621C55.5098 10.7384 55.5868 10.8374 55.6895 10.918C55.7922 10.9987 55.9095 11.0427 56.0415 11.05C56.1735 11.0574 56.2982 11.0317 56.4155 10.973L59.1765 9.49905L61.9375 10.973C62.0548 11.0317 62.1777 11.0574 62.306 11.05C62.4343 11.0427 62.5535 11.0005 62.6635 10.9235C62.7735 10.8465 62.8523 10.7475 62.9 10.6265C62.9477 10.5055 62.9605 10.379 62.9385 10.247L62.3995 7.12305L64.6435 4.90105C64.7388 4.81305 64.8012 4.70488 64.8305 4.57655C64.8598 4.44821 64.8525 4.32171 64.8085 4.19705C64.7645 4.07238 64.6948 3.96788 64.5995 3.88355C64.5042 3.79921 64.3905 3.74971 64.2585 3.73505L61.1785 3.28405L59.7925 0.435048Z" fill="#FACC15"/>
</g>
</g>
</g>
<defs>
<clipPath id="clip0_322_1970">
<rect width="66.88" height="11" fill="white" transform="translate(0 0.0500488)"/>
</clipPath>
<clipPath id="clip1_322_1970">
<rect width="66.88" height="11" fill="white" transform="matrix(1 0 0 -1 0 11.05)"/>
</clipPath>
<clipPath id="clip2_322_1970">
<rect width="53.5" height="11" fill="white" transform="translate(0 0.0500488)"/>
</clipPath>
<clipPath id="clip3_322_1970">
<rect width="66.88" height="11" fill="white" transform="matrix(1 0 0 -1 0 11.05)"/>
</clipPath>
</defs>
</svg>
