<svg width="67" height="12" viewBox="0 0 67 12" fill="none" xmlns="http://www.w3.org/2000/svg">
<g clip-path="url(#clip0_322_1694)">
<g clip-path="url(#clip1_322_1694)">
<path d="M6.29249 0.855092C6.23382 0.737758 6.14949 0.644258 6.03949 0.574592C5.92949 0.504925 5.80849 0.470092 5.67649 0.470092C5.54449 0.470092 5.42165 0.504925 5.30799 0.574592C5.19432 0.644258 5.10815 0.737758 5.04949 0.855092L3.67449 3.70409L0.583485 4.15509C0.458819 4.16976 0.345152 4.21926 0.242485 4.30359C0.139819 4.38792 0.0701519 4.49242 0.0334852 4.61709C-0.00318142 4.74176 -0.00684809 4.86826 0.0224852 4.99659C0.0518186 5.12492 0.114152 5.23309 0.209485 5.32109L2.44249 7.54309L1.91449 10.6671C1.89249 10.7991 1.90715 10.9238 1.95849 11.0411C2.00982 11.1584 2.08682 11.2574 2.18949 11.3381C2.29215 11.4188 2.40949 11.4628 2.54149 11.4701C2.67349 11.4774 2.79815 11.4518 2.91549 11.3931L5.67649 9.91909L8.43749 11.3931C8.55482 11.4518 8.67765 11.4774 8.80599 11.4701C8.93432 11.4628 9.05349 11.4206 9.16349 11.3436C9.27349 11.2666 9.35232 11.1676 9.39999 11.0466C9.44765 10.9256 9.46049 10.7991 9.43849 10.6671L8.89949 7.54309L11.1435 5.32109C11.2388 5.23309 11.3012 5.12492 11.3305 4.99659C11.3598 4.86826 11.3525 4.74176 11.3085 4.61709C11.2645 4.49242 11.1948 4.38792 11.0995 4.30359C11.0042 4.21926 10.8905 4.16976 10.7585 4.15509L7.67849 3.70409L6.29249 0.855092Z" fill="#D1D5DB"/>
<path d="M19.6675 0.855092C19.6088 0.737758 19.5245 0.644258 19.4145 0.574592C19.3045 0.504925 19.1835 0.470092 19.0515 0.470092C18.9195 0.470092 18.7967 0.504925 18.683 0.574592C18.5693 0.644258 18.4832 0.737758 18.4245 0.855092L17.0495 3.70409L13.9585 4.15509C13.8338 4.16976 13.7202 4.21926 13.6175 4.30359C13.5148 4.38792 13.4452 4.49242 13.4085 4.61709C13.3718 4.74176 13.3682 4.86826 13.3975 4.99659C13.4268 5.12492 13.4892 5.23309 13.5845 5.32109L15.8175 7.54309L15.2895 10.6671C15.2675 10.7991 15.2822 10.9238 15.3335 11.0411C15.3848 11.1584 15.4618 11.2574 15.5645 11.3381C15.6672 11.4188 15.7845 11.4628 15.9165 11.4701C16.0485 11.4774 16.1732 11.4518 16.2905 11.3931L19.0515 9.91909L21.8125 11.3931C21.9298 11.4518 22.0527 11.4774 22.181 11.4701C22.3093 11.4628 22.4285 11.4206 22.5385 11.3436C22.6485 11.2666 22.7273 11.1676 22.775 11.0466C22.8227 10.9256 22.8355 10.7991 22.8135 10.6671L22.2745 7.54309L24.5185 5.32109C24.6138 5.23309 24.6762 5.12492 24.7055 4.99659C24.7348 4.86826 24.7275 4.74176 24.6835 4.61709C24.6395 4.49242 24.5698 4.38792 24.4745 4.30359C24.3792 4.21926 24.2655 4.16976 24.1335 4.15509L21.0535 3.70409L19.6675 0.855092Z" fill="#D1D5DB"/>
<path d="M33.0425 0.855092C32.9838 0.737758 32.8995 0.644258 32.7895 0.574592C32.6795 0.504925 32.5585 0.470092 32.4265 0.470092C32.2945 0.470092 32.1717 0.504925 32.058 0.574592C31.9443 0.644258 31.8582 0.737758 31.7995 0.855092L30.4245 3.70409L27.3335 4.15509C27.2088 4.16976 27.0952 4.21926 26.9925 4.30359C26.8898 4.38792 26.8202 4.49242 26.7835 4.61709C26.7468 4.74176 26.7432 4.86826 26.7725 4.99659C26.8018 5.12492 26.8642 5.23309 26.9595 5.32109L29.1925 7.54309L28.6645 10.6671C28.6425 10.7991 28.6572 10.9238 28.7085 11.0411C28.7598 11.1584 28.8368 11.2574 28.9395 11.3381C29.0422 11.4188 29.1595 11.4628 29.2915 11.4701C29.4235 11.4774 29.5482 11.4518 29.6655 11.3931L32.4265 9.91909L35.1875 11.3931C35.3048 11.4518 35.4277 11.4774 35.556 11.4701C35.6843 11.4628 35.8035 11.4206 35.9135 11.3436C36.0235 11.2666 36.1023 11.1676 36.15 11.0466C36.1977 10.9256 36.2105 10.7991 36.1885 10.6671L35.6495 7.54309L37.8935 5.32109C37.9888 5.23309 38.0512 5.12492 38.0805 4.99659C38.1098 4.86826 38.1025 4.74176 38.0585 4.61709C38.0145 4.49242 37.9448 4.38792 37.8495 4.30359C37.7542 4.21926 37.6405 4.16976 37.5085 4.15509L34.4285 3.70409L33.0425 0.855092Z" fill="#D1D5DB"/>
<path d="M46.4175 0.855092C46.3588 0.737758 46.2745 0.644258 46.1645 0.574592C46.0545 0.504925 45.9335 0.470092 45.8015 0.470092C45.6695 0.470092 45.5467 0.504925 45.433 0.574592C45.3193 0.644258 45.2332 0.737758 45.1745 0.855092L43.7995 3.70409L40.7085 4.15509C40.5838 4.16976 40.4702 4.21926 40.3675 4.30359C40.2648 4.38792 40.1952 4.49242 40.1585 4.61709C40.1218 4.74176 40.1182 4.86826 40.1475 4.99659C40.1768 5.12492 40.2392 5.23309 40.3345 5.32109L42.5675 7.54309L42.0395 10.6671C42.0175 10.7991 42.0322 10.9238 42.0835 11.0411C42.1348 11.1584 42.2118 11.2574 42.3145 11.3381C42.4172 11.4188 42.5345 11.4628 42.6665 11.4701C42.7985 11.4774 42.9232 11.4518 43.0405 11.3931L45.8015 9.91909L48.5625 11.3931C48.6798 11.4518 48.8027 11.4774 48.931 11.4701C49.0593 11.4628 49.1785 11.4206 49.2885 11.3436C49.3985 11.2666 49.4773 11.1676 49.525 11.0466C49.5727 10.9256 49.5855 10.7991 49.5635 10.6671L49.0245 7.54309L51.2685 5.32109C51.3638 5.23309 51.4262 5.12492 51.4555 4.99659C51.4848 4.86826 51.4775 4.74176 51.4335 4.61709C51.3895 4.49242 51.3198 4.38792 51.2245 4.30359C51.1292 4.21926 51.0155 4.16976 50.8835 4.15509L47.8035 3.70409L46.4175 0.855092Z" fill="#D1D5DB"/>
<path d="M59.7925 0.855092C59.7338 0.737758 59.6495 0.644258 59.5395 0.574592C59.4295 0.504925 59.3085 0.470092 59.1765 0.470092C59.0445 0.470092 58.9217 0.504925 58.808 0.574592C58.6943 0.644258 58.6082 0.737758 58.5495 0.855092L57.1745 3.70409L54.0835 4.15509C53.9588 4.16976 53.8452 4.21926 53.7425 4.30359C53.6398 4.38792 53.5702 4.49242 53.5335 4.61709C53.4968 4.74176 53.4932 4.86826 53.5225 4.99659C53.5518 5.12492 53.6142 5.23309 53.7095 5.32109L55.9425 7.54309L55.4145 10.6671C55.3925 10.7991 55.4072 10.9238 55.4585 11.0411C55.5098 11.1584 55.5868 11.2574 55.6895 11.3381C55.7922 11.4188 55.9095 11.4628 56.0415 11.4701C56.1735 11.4774 56.2982 11.4518 56.4155 11.3931L59.1765 9.91909L61.9375 11.3931C62.0548 11.4518 62.1777 11.4774 62.306 11.4701C62.4343 11.4628 62.5535 11.4206 62.6635 11.3436C62.7735 11.2666 62.8523 11.1676 62.9 11.0466C62.9477 10.9256 62.9605 10.7991 62.9385 10.6671L62.3995 7.54309L64.6435 5.32109C64.7388 5.23309 64.8012 5.12492 64.8305 4.99659C64.8598 4.86826 64.8525 4.74176 64.8085 4.61709C64.7645 4.49242 64.6948 4.38792 64.5995 4.30359C64.5042 4.21926 64.3905 4.16976 64.2585 4.15509L61.1785 3.70409L59.7925 0.855092Z" fill="#D1D5DB"/>
</g>
<g clip-path="url(#clip2_322_1694)">
<g clip-path="url(#clip3_322_1694)">
<path d="M6.29249 0.855092C6.23382 0.737758 6.14949 0.644258 6.03949 0.574592C5.92949 0.504925 5.80849 0.470092 5.67649 0.470092C5.54449 0.470092 5.42165 0.504925 5.30799 0.574592C5.19432 0.644258 5.10815 0.737758 5.04949 0.855092L3.67449 3.70409L0.583485 4.15509C0.458819 4.16976 0.345152 4.21926 0.242485 4.30359C0.139819 4.38792 0.0701519 4.49242 0.0334852 4.61709C-0.00318142 4.74176 -0.00684809 4.86826 0.0224852 4.99659C0.0518186 5.12492 0.114152 5.23309 0.209485 5.32109L2.44249 7.54309L1.91449 10.6671C1.89249 10.7991 1.90715 10.9238 1.95849 11.0411C2.00982 11.1584 2.08682 11.2574 2.18949 11.3381C2.29215 11.4188 2.40949 11.4628 2.54149 11.4701C2.67349 11.4774 2.79815 11.4518 2.91549 11.3931L5.67649 9.91909L8.43749 11.3931C8.55482 11.4518 8.67765 11.4774 8.80599 11.4701C8.93432 11.4628 9.05349 11.4206 9.16349 11.3436C9.27349 11.2666 9.35232 11.1676 9.39999 11.0466C9.44765 10.9256 9.46049 10.7991 9.43849 10.6671L8.89949 7.54309L11.1435 5.32109C11.2388 5.23309 11.3012 5.12492 11.3305 4.99659C11.3598 4.86826 11.3525 4.74176 11.3085 4.61709C11.2645 4.49242 11.1948 4.38792 11.0995 4.30359C11.0042 4.21926 10.8905 4.16976 10.7585 4.15509L7.67849 3.70409L6.29249 0.855092Z" fill="#FACC15"/>
<path d="M19.6675 0.855092C19.6088 0.737758 19.5245 0.644258 19.4145 0.574592C19.3045 0.504925 19.1835 0.470092 19.0515 0.470092C18.9195 0.470092 18.7967 0.504925 18.683 0.574592C18.5693 0.644258 18.4832 0.737758 18.4245 0.855092L17.0495 3.70409L13.9585 4.15509C13.8338 4.16976 13.7202 4.21926 13.6175 4.30359C13.5148 4.38792 13.4452 4.49242 13.4085 4.61709C13.3718 4.74176 13.3682 4.86826 13.3975 4.99659C13.4268 5.12492 13.4892 5.23309 13.5845 5.32109L15.8175 7.54309L15.2895 10.6671C15.2675 10.7991 15.2822 10.9238 15.3335 11.0411C15.3848 11.1584 15.4618 11.2574 15.5645 11.3381C15.6672 11.4188 15.7845 11.4628 15.9165 11.4701C16.0485 11.4774 16.1732 11.4518 16.2905 11.3931L19.0515 9.91909L21.8125 11.3931C21.9298 11.4518 22.0527 11.4774 22.181 11.4701C22.3093 11.4628 22.4285 11.4206 22.5385 11.3436C22.6485 11.2666 22.7273 11.1676 22.775 11.0466C22.8227 10.9256 22.8355 10.7991 22.8135 10.6671L22.2745 7.54309L24.5185 5.32109C24.6138 5.23309 24.6762 5.12492 24.7055 4.99659C24.7348 4.86826 24.7275 4.74176 24.6835 4.61709C24.6395 4.49242 24.5698 4.38792 24.4745 4.30359C24.3792 4.21926 24.2655 4.16976 24.1335 4.15509L21.0535 3.70409L19.6675 0.855092Z" fill="#FACC15"/>
<path d="M33.0425 0.855092C32.9838 0.737758 32.8995 0.644258 32.7895 0.574592C32.6795 0.504925 32.5585 0.470092 32.4265 0.470092C32.2945 0.470092 32.1717 0.504925 32.058 0.574592C31.9443 0.644258 31.8582 0.737758 31.7995 0.855092L30.4245 3.70409L27.3335 4.15509C27.2088 4.16976 27.0952 4.21926 26.9925 4.30359C26.8898 4.38792 26.8202 4.49242 26.7835 4.61709C26.7468 4.74176 26.7432 4.86826 26.7725 4.99659C26.8018 5.12492 26.8642 5.23309 26.9595 5.32109L29.1925 7.54309L28.6645 10.6671C28.6425 10.7991 28.6572 10.9238 28.7085 11.0411C28.7598 11.1584 28.8368 11.2574 28.9395 11.3381C29.0422 11.4188 29.1595 11.4628 29.2915 11.4701C29.4235 11.4774 29.5482 11.4518 29.6655 11.3931L32.4265 9.91909L35.1875 11.3931C35.3048 11.4518 35.4277 11.4774 35.556 11.4701C35.6843 11.4628 35.8035 11.4206 35.9135 11.3436C36.0235 11.2666 36.1023 11.1676 36.15 11.0466C36.1977 10.9256 36.2105 10.7991 36.1885 10.6671L35.6495 7.54309L37.8935 5.32109C37.9888 5.23309 38.0512 5.12492 38.0805 4.99659C38.1098 4.86826 38.1025 4.74176 38.0585 4.61709C38.0145 4.49242 37.9448 4.38792 37.8495 4.30359C37.7542 4.21926 37.6405 4.16976 37.5085 4.15509L34.4285 3.70409L33.0425 0.855092Z" fill="#FACC15"/>
<path d="M46.4175 0.855092C46.3588 0.737758 46.2745 0.644258 46.1645 0.574592C46.0545 0.504925 45.9335 0.470092 45.8015 0.470092C45.6695 0.470092 45.5467 0.504925 45.433 0.574592C45.3193 0.644258 45.2332 0.737758 45.1745 0.855092L43.7995 3.70409L40.7085 4.15509C40.5838 4.16976 40.4702 4.21926 40.3675 4.30359C40.2648 4.38792 40.1952 4.49242 40.1585 4.61709C40.1218 4.74176 40.1182 4.86826 40.1475 4.99659C40.1768 5.12492 40.2392 5.23309 40.3345 5.32109L42.5675 7.54309L42.0395 10.6671C42.0175 10.7991 42.0322 10.9238 42.0835 11.0411C42.1348 11.1584 42.2118 11.2574 42.3145 11.3381C42.4172 11.4188 42.5345 11.4628 42.6665 11.4701C42.7985 11.4774 42.9232 11.4518 43.0405 11.3931L45.8015 9.91909L48.5625 11.3931C48.6798 11.4518 48.8027 11.4774 48.931 11.4701C49.0593 11.4628 49.1785 11.4206 49.2885 11.3436C49.3985 11.2666 49.4773 11.1676 49.525 11.0466C49.5727 10.9256 49.5855 10.7991 49.5635 10.6671L49.0245 7.54309L51.2685 5.32109C51.3638 5.23309 51.4262 5.12492 51.4555 4.99659C51.4848 4.86826 51.4775 4.74176 51.4335 4.61709C51.3895 4.49242 51.3198 4.38792 51.2245 4.30359C51.1292 4.21926 51.0155 4.16976 50.8835 4.15509L47.8035 3.70409L46.4175 0.855092Z" fill="#FACC15"/>
<path d="M59.7925 0.855092C59.7338 0.737758 59.6495 0.644258 59.5395 0.574592C59.4295 0.504925 59.3085 0.470092 59.1765 0.470092C59.0445 0.470092 58.9217 0.504925 58.808 0.574592C58.6943 0.644258 58.6082 0.737758 58.5495 0.855092L57.1745 3.70409L54.0835 4.15509C53.9588 4.16976 53.8452 4.21926 53.7425 4.30359C53.6398 4.38792 53.5702 4.49242 53.5335 4.61709C53.4968 4.74176 53.4932 4.86826 53.5225 4.99659C53.5518 5.12492 53.6142 5.23309 53.7095 5.32109L55.9425 7.54309L55.4145 10.6671C55.3925 10.7991 55.4072 10.9238 55.4585 11.0411C55.5098 11.1584 55.5868 11.2574 55.6895 11.3381C55.7922 11.4188 55.9095 11.4628 56.0415 11.4701C56.1735 11.4774 56.2982 11.4518 56.4155 11.3931L59.1765 9.91909L61.9375 11.3931C62.0548 11.4518 62.1777 11.4774 62.306 11.4701C62.4343 11.4628 62.5535 11.4206 62.6635 11.3436C62.7735 11.2666 62.8523 11.1676 62.9 11.0466C62.9477 10.9256 62.9605 10.7991 62.9385 10.6671L62.3995 7.54309L64.6435 5.32109C64.7388 5.23309 64.8012 5.12492 64.8305 4.99659C64.8598 4.86826 64.8525 4.74176 64.8085 4.61709C64.7645 4.49242 64.6948 4.38792 64.5995 4.30359C64.5042 4.21926 64.3905 4.16976 64.2585 4.15509L61.1785 3.70409L59.7925 0.855092Z" fill="#FACC15"/>
</g>
</g>
</g>
<defs>
<clipPath id="clip0_322_1694">
<rect width="66.88" height="11" fill="white" transform="translate(0 0.470093)"/>
</clipPath>
<clipPath id="clip1_322_1694">
<rect width="66.88" height="11" fill="white" transform="matrix(1 0 0 -1 0 11.4701)"/>
</clipPath>
<clipPath id="clip2_322_1694">
<rect width="53.5" height="11" fill="white" transform="translate(0 0.470093)"/>
</clipPath>
<clipPath id="clip3_322_1694">
<rect width="66.88" height="11" fill="white" transform="matrix(1 0 0 -1 0 11.4701)"/>
</clipPath>
</defs>
</svg>
