<svg width="68" height="12" viewBox="0 0 68 12" fill="none" xmlns="http://www.w3.org/2000/svg">
<g clip-path="url(#clip0_322_2184)">
<g clip-path="url(#clip1_322_2184)">
<path d="M6.46241 1.27501C6.40374 1.15768 6.31941 1.06418 6.20941 0.994513C6.09941 0.924847 5.97841 0.890013 5.84641 0.890013C5.71441 0.890013 5.59157 0.924847 5.47791 0.994513C5.36424 1.06418 5.27807 1.15768 5.21941 1.27501L3.84441 4.12401L0.753407 4.57501C0.62874 4.58968 0.515074 4.63918 0.412407 4.72351C0.30974 4.80785 0.240074 4.91235 0.203407 5.03701C0.16674 5.16168 0.163074 5.28818 0.192407 5.41651C0.22174 5.54485 0.284074 5.65301 0.379407 5.74101L2.61241 7.96301L2.08441 11.087C2.06241 11.219 2.07707 11.3437 2.12841 11.461C2.17974 11.5783 2.25674 11.6773 2.35941 11.758C2.46207 11.8387 2.57941 11.8827 2.71141 11.89C2.84341 11.8973 2.96807 11.8717 3.08541 11.813L5.84641 10.339L8.60741 11.813C8.72474 11.8717 8.84757 11.8973 8.97591 11.89C9.10424 11.8827 9.22341 11.8405 9.33341 11.7635C9.44341 11.6865 9.52224 11.5875 9.56991 11.4665C9.61757 11.3455 9.63041 11.219 9.60841 11.087L9.06941 7.96301L11.3134 5.74101C11.4087 5.65301 11.4711 5.54485 11.5004 5.41651C11.5297 5.28818 11.5224 5.16168 11.4784 5.03701C11.4344 4.91235 11.3647 4.80785 11.2694 4.72351C11.1741 4.63918 11.0604 4.58968 10.9284 4.57501L7.84841 4.12401L6.46241 1.27501Z" fill="#D1D5DB"/>
<path d="M19.8374 1.27501C19.7787 1.15768 19.6944 1.06418 19.5844 0.994513C19.4744 0.924847 19.3534 0.890013 19.2214 0.890013C19.0894 0.890013 18.9666 0.924847 18.8529 0.994513C18.7392 1.06418 18.6531 1.15768 18.5944 1.27501L17.2194 4.12401L14.1284 4.57501C14.0037 4.58968 13.8901 4.63918 13.7874 4.72351C13.6847 4.80785 13.6151 4.91235 13.5784 5.03701C13.5417 5.16168 13.5381 5.28818 13.5674 5.41651C13.5967 5.54485 13.6591 5.65301 13.7544 5.74101L15.9874 7.96301L15.4594 11.087C15.4374 11.219 15.4521 11.3437 15.5034 11.461C15.5547 11.5783 15.6317 11.6773 15.7344 11.758C15.8371 11.8387 15.9544 11.8827 16.0864 11.89C16.2184 11.8973 16.3431 11.8717 16.4604 11.813L19.2214 10.339L21.9824 11.813C22.0997 11.8717 22.2226 11.8973 22.3509 11.89C22.4792 11.8827 22.5984 11.8405 22.7084 11.7635C22.8184 11.6865 22.8972 11.5875 22.9449 11.4665C22.9926 11.3455 23.0054 11.219 22.9834 11.087L22.4444 7.96301L24.6884 5.74101C24.7837 5.65301 24.8461 5.54485 24.8754 5.41651C24.9047 5.28818 24.8974 5.16168 24.8534 5.03701C24.8094 4.91235 24.7397 4.80785 24.6444 4.72351C24.5491 4.63918 24.4354 4.58968 24.3034 4.57501L21.2234 4.12401L19.8374 1.27501Z" fill="#D1D5DB"/>
<path d="M33.2124 1.27501C33.1537 1.15768 33.0694 1.06418 32.9594 0.994513C32.8494 0.924847 32.7284 0.890013 32.5964 0.890013C32.4644 0.890013 32.3416 0.924847 32.2279 0.994513C32.1142 1.06418 32.0281 1.15768 31.9694 1.27501L30.5944 4.12401L27.5034 4.57501C27.3787 4.58968 27.2651 4.63918 27.1624 4.72351C27.0597 4.80785 26.9901 4.91235 26.9534 5.03701C26.9167 5.16168 26.9131 5.28818 26.9424 5.41651C26.9717 5.54485 27.0341 5.65301 27.1294 5.74101L29.3624 7.96301L28.8344 11.087C28.8124 11.219 28.8271 11.3437 28.8784 11.461C28.9297 11.5783 29.0067 11.6773 29.1094 11.758C29.2121 11.8387 29.3294 11.8827 29.4614 11.89C29.5934 11.8973 29.7181 11.8717 29.8354 11.813L32.5964 10.339L35.3574 11.813C35.4747 11.8717 35.5976 11.8973 35.7259 11.89C35.8542 11.8827 35.9734 11.8405 36.0834 11.7635C36.1934 11.6865 36.2722 11.5875 36.3199 11.4665C36.3676 11.3455 36.3804 11.219 36.3584 11.087L35.8194 7.96301L38.0634 5.74101C38.1587 5.65301 38.2211 5.54485 38.2504 5.41651C38.2797 5.28818 38.2724 5.16168 38.2284 5.03701C38.1844 4.91235 38.1147 4.80785 38.0194 4.72351C37.9241 4.63918 37.8104 4.58968 37.6784 4.57501L34.5984 4.12401L33.2124 1.27501Z" fill="#D1D5DB"/>
<path d="M46.5874 1.27501C46.5287 1.15768 46.4444 1.06418 46.3344 0.994513C46.2244 0.924847 46.1034 0.890013 45.9714 0.890013C45.8394 0.890013 45.7166 0.924847 45.6029 0.994513C45.4892 1.06418 45.4031 1.15768 45.3444 1.27501L43.9694 4.12401L40.8784 4.57501C40.7537 4.58968 40.6401 4.63918 40.5374 4.72351C40.4347 4.80785 40.3651 4.91235 40.3284 5.03701C40.2917 5.16168 40.2881 5.28818 40.3174 5.41651C40.3467 5.54485 40.4091 5.65301 40.5044 5.74101L42.7374 7.96301L42.2094 11.087C42.1874 11.219 42.2021 11.3437 42.2534 11.461C42.3047 11.5783 42.3817 11.6773 42.4844 11.758C42.5871 11.8387 42.7044 11.8827 42.8364 11.89C42.9684 11.8973 43.0931 11.8717 43.2104 11.813L45.9714 10.339L48.7324 11.813C48.8497 11.8717 48.9726 11.8973 49.1009 11.89C49.2292 11.8827 49.3484 11.8405 49.4584 11.7635C49.5684 11.6865 49.6472 11.5875 49.6949 11.4665C49.7426 11.3455 49.7554 11.219 49.7334 11.087L49.1944 7.96301L51.4384 5.74101C51.5337 5.65301 51.5961 5.54485 51.6254 5.41651C51.6547 5.28818 51.6474 5.16168 51.6034 5.03701C51.5594 4.91235 51.4897 4.80785 51.3944 4.72351C51.2991 4.63918 51.1854 4.58968 51.0534 4.57501L47.9734 4.12401L46.5874 1.27501Z" fill="#D1D5DB"/>
<path d="M59.9624 1.27501C59.9037 1.15768 59.8194 1.06418 59.7094 0.994513C59.5994 0.924847 59.4784 0.890013 59.3464 0.890013C59.2144 0.890013 59.0916 0.924847 58.9779 0.994513C58.8642 1.06418 58.7781 1.15768 58.7194 1.27501L57.3444 4.12401L54.2534 4.57501C54.1287 4.58968 54.0151 4.63918 53.9124 4.72351C53.8097 4.80785 53.7401 4.91235 53.7034 5.03701C53.6667 5.16168 53.6631 5.28818 53.6924 5.41651C53.7217 5.54485 53.7841 5.65301 53.8794 5.74101L56.1124 7.96301L55.5844 11.087C55.5624 11.219 55.5771 11.3437 55.6284 11.461C55.6797 11.5783 55.7567 11.6773 55.8594 11.758C55.9621 11.8387 56.0794 11.8827 56.2114 11.89C56.3434 11.8973 56.4681 11.8717 56.5854 11.813L59.3464 10.339L62.1074 11.813C62.2247 11.8717 62.3476 11.8973 62.4759 11.89C62.6042 11.8827 62.7234 11.8405 62.8334 11.7635C62.9434 11.6865 63.0222 11.5875 63.0699 11.4665C63.1176 11.3455 63.1304 11.219 63.1084 11.087L62.5694 7.96301L64.8134 5.74101C64.9087 5.65301 64.9711 5.54485 65.0004 5.41651C65.0297 5.28818 65.0224 5.16168 64.9784 5.03701C64.9344 4.91235 64.8647 4.80785 64.7694 4.72351C64.6741 4.63918 64.5604 4.58968 64.4284 4.57501L61.3484 4.12401L59.9624 1.27501Z" fill="#D1D5DB"/>
</g>
<g clip-path="url(#clip2_322_2184)">
<g clip-path="url(#clip3_322_2184)">
<path d="M6.46241 1.27501C6.40374 1.15768 6.31941 1.06418 6.20941 0.994513C6.09941 0.924847 5.97841 0.890013 5.84641 0.890013C5.71441 0.890013 5.59157 0.924847 5.47791 0.994513C5.36424 1.06418 5.27807 1.15768 5.21941 1.27501L3.84441 4.12401L0.753407 4.57501C0.62874 4.58968 0.515074 4.63918 0.412407 4.72351C0.30974 4.80785 0.240074 4.91235 0.203407 5.03701C0.16674 5.16168 0.163074 5.28818 0.192407 5.41651C0.22174 5.54485 0.284074 5.65301 0.379407 5.74101L2.61241 7.96301L2.08441 11.087C2.06241 11.219 2.07707 11.3437 2.12841 11.461C2.17974 11.5783 2.25674 11.6773 2.35941 11.758C2.46207 11.8387 2.57941 11.8827 2.71141 11.89C2.84341 11.8973 2.96807 11.8717 3.08541 11.813L5.84641 10.339L8.60741 11.813C8.72474 11.8717 8.84757 11.8973 8.97591 11.89C9.10424 11.8827 9.22341 11.8405 9.33341 11.7635C9.44341 11.6865 9.52224 11.5875 9.56991 11.4665C9.61757 11.3455 9.63041 11.219 9.60841 11.087L9.06941 7.96301L11.3134 5.74101C11.4087 5.65301 11.4711 5.54485 11.5004 5.41651C11.5297 5.28818 11.5224 5.16168 11.4784 5.03701C11.4344 4.91235 11.3647 4.80785 11.2694 4.72351C11.1741 4.63918 11.0604 4.58968 10.9284 4.57501L7.84841 4.12401L6.46241 1.27501Z" fill="#FACC15"/>
<path d="M19.8374 1.27501C19.7787 1.15768 19.6944 1.06418 19.5844 0.994513C19.4744 0.924847 19.3534 0.890013 19.2214 0.890013C19.0894 0.890013 18.9666 0.924847 18.8529 0.994513C18.7392 1.06418 18.6531 1.15768 18.5944 1.27501L17.2194 4.12401L14.1284 4.57501C14.0037 4.58968 13.8901 4.63918 13.7874 4.72351C13.6847 4.80785 13.6151 4.91235 13.5784 5.03701C13.5417 5.16168 13.5381 5.28818 13.5674 5.41651C13.5967 5.54485 13.6591 5.65301 13.7544 5.74101L15.9874 7.96301L15.4594 11.087C15.4374 11.219 15.4521 11.3437 15.5034 11.461C15.5547 11.5783 15.6317 11.6773 15.7344 11.758C15.8371 11.8387 15.9544 11.8827 16.0864 11.89C16.2184 11.8973 16.3431 11.8717 16.4604 11.813L19.2214 10.339L21.9824 11.813C22.0997 11.8717 22.2226 11.8973 22.3509 11.89C22.4792 11.8827 22.5984 11.8405 22.7084 11.7635C22.8184 11.6865 22.8972 11.5875 22.9449 11.4665C22.9926 11.3455 23.0054 11.219 22.9834 11.087L22.4444 7.96301L24.6884 5.74101C24.7837 5.65301 24.8461 5.54485 24.8754 5.41651C24.9047 5.28818 24.8974 5.16168 24.8534 5.03701C24.8094 4.91235 24.7397 4.80785 24.6444 4.72351C24.5491 4.63918 24.4354 4.58968 24.3034 4.57501L21.2234 4.12401L19.8374 1.27501Z" fill="#FACC15"/>
<path d="M33.2124 1.27501C33.1537 1.15768 33.0694 1.06418 32.9594 0.994513C32.8494 0.924847 32.7284 0.890013 32.5964 0.890013C32.4644 0.890013 32.3416 0.924847 32.2279 0.994513C32.1142 1.06418 32.0281 1.15768 31.9694 1.27501L30.5944 4.12401L27.5034 4.57501C27.3787 4.58968 27.2651 4.63918 27.1624 4.72351C27.0597 4.80785 26.9901 4.91235 26.9534 5.03701C26.9167 5.16168 26.9131 5.28818 26.9424 5.41651C26.9717 5.54485 27.0341 5.65301 27.1294 5.74101L29.3624 7.96301L28.8344 11.087C28.8124 11.219 28.8271 11.3437 28.8784 11.461C28.9297 11.5783 29.0067 11.6773 29.1094 11.758C29.2121 11.8387 29.3294 11.8827 29.4614 11.89C29.5934 11.8973 29.7181 11.8717 29.8354 11.813L32.5964 10.339L35.3574 11.813C35.4747 11.8717 35.5976 11.8973 35.7259 11.89C35.8542 11.8827 35.9734 11.8405 36.0834 11.7635C36.1934 11.6865 36.2722 11.5875 36.3199 11.4665C36.3676 11.3455 36.3804 11.219 36.3584 11.087L35.8194 7.96301L38.0634 5.74101C38.1587 5.65301 38.2211 5.54485 38.2504 5.41651C38.2797 5.28818 38.2724 5.16168 38.2284 5.03701C38.1844 4.91235 38.1147 4.80785 38.0194 4.72351C37.9241 4.63918 37.8104 4.58968 37.6784 4.57501L34.5984 4.12401L33.2124 1.27501Z" fill="#FACC15"/>
<path d="M46.5874 1.27501C46.5287 1.15768 46.4444 1.06418 46.3344 0.994513C46.2244 0.924847 46.1034 0.890013 45.9714 0.890013C45.8394 0.890013 45.7166 0.924847 45.6029 0.994513C45.4892 1.06418 45.4031 1.15768 45.3444 1.27501L43.9694 4.12401L40.8784 4.57501C40.7537 4.58968 40.6401 4.63918 40.5374 4.72351C40.4347 4.80785 40.3651 4.91235 40.3284 5.03701C40.2917 5.16168 40.2881 5.28818 40.3174 5.41651C40.3467 5.54485 40.4091 5.65301 40.5044 5.74101L42.7374 7.96301L42.2094 11.087C42.1874 11.219 42.2021 11.3437 42.2534 11.461C42.3047 11.5783 42.3817 11.6773 42.4844 11.758C42.5871 11.8387 42.7044 11.8827 42.8364 11.89C42.9684 11.8973 43.0931 11.8717 43.2104 11.813L45.9714 10.339L48.7324 11.813C48.8497 11.8717 48.9726 11.8973 49.1009 11.89C49.2292 11.8827 49.3484 11.8405 49.4584 11.7635C49.5684 11.6865 49.6472 11.5875 49.6949 11.4665C49.7426 11.3455 49.7554 11.219 49.7334 11.087L49.1944 7.96301L51.4384 5.74101C51.5337 5.65301 51.5961 5.54485 51.6254 5.41651C51.6547 5.28818 51.6474 5.16168 51.6034 5.03701C51.5594 4.91235 51.4897 4.80785 51.3944 4.72351C51.2991 4.63918 51.1854 4.58968 51.0534 4.57501L47.9734 4.12401L46.5874 1.27501Z" fill="#FACC15"/>
<path d="M59.9624 1.27501C59.9037 1.15768 59.8194 1.06418 59.7094 0.994513C59.5994 0.924847 59.4784 0.890013 59.3464 0.890013C59.2144 0.890013 59.0916 0.924847 58.9779 0.994513C58.8642 1.06418 58.7781 1.15768 58.7194 1.27501L57.3444 4.12401L54.2534 4.57501C54.1287 4.58968 54.0151 4.63918 53.9124 4.72351C53.8097 4.80785 53.7401 4.91235 53.7034 5.03701C53.6667 5.16168 53.6631 5.28818 53.6924 5.41651C53.7217 5.54485 53.7841 5.65301 53.8794 5.74101L56.1124 7.96301L55.5844 11.087C55.5624 11.219 55.5771 11.3437 55.6284 11.461C55.6797 11.5783 55.7567 11.6773 55.8594 11.758C55.9621 11.8387 56.0794 11.8827 56.2114 11.89C56.3434 11.8973 56.4681 11.8717 56.5854 11.813L59.3464 10.339L62.1074 11.813C62.2247 11.8717 62.3476 11.8973 62.4759 11.89C62.6042 11.8827 62.7234 11.8405 62.8334 11.7635C62.9434 11.6865 63.0222 11.5875 63.0699 11.4665C63.1176 11.3455 63.1304 11.219 63.1084 11.087L62.5694 7.96301L64.8134 5.74101C64.9087 5.65301 64.9711 5.54485 65.0004 5.41651C65.0297 5.28818 65.0224 5.16168 64.9784 5.03701C64.9344 4.91235 64.8647 4.80785 64.7694 4.72351C64.6741 4.63918 64.5604 4.58968 64.4284 4.57501L61.3484 4.12401L59.9624 1.27501Z" fill="#FACC15"/>
</g>
</g>
</g>
<defs>
<clipPath id="clip0_322_2184">
<rect width="66.88" height="11" fill="white" transform="translate(0.169922 0.890015)"/>
</clipPath>
<clipPath id="clip1_322_2184">
<rect width="66.88" height="11" fill="white" transform="matrix(1 0 0 -1 0.169922 11.89)"/>
</clipPath>
<clipPath id="clip2_322_2184">
<rect width="53.5" height="11" fill="white" transform="translate(0.169922 0.890015)"/>
</clipPath>
<clipPath id="clip3_322_2184">
<rect width="66.88" height="11" fill="white" transform="matrix(1 0 0 -1 0.169922 11.89)"/>
</clipPath>
</defs>
</svg>
