<svg width="68" height="12" viewBox="0 0 68 12" fill="none" xmlns="http://www.w3.org/2000/svg">
<g clip-path="url(#clip0_322_2357)">
<g clip-path="url(#clip1_322_2357)">
<path d="M7.12256 1.27501C7.0639 1.15768 6.97956 1.06418 6.86956 0.994513C6.75956 0.924847 6.63856 0.890013 6.50656 0.890013C6.37456 0.890013 6.25173 0.924847 6.13806 0.994513C6.0244 1.06418 5.93823 1.15768 5.87956 1.27501L4.50456 4.12401L1.41356 4.57501C1.2889 4.58968 1.17523 4.63918 1.07256 4.72351C0.969897 4.80785 0.90023 4.91235 0.863563 5.03701C0.826897 5.16168 0.82323 5.28818 0.852563 5.41651C0.881897 5.54485 0.94423 5.65301 1.03956 5.74101L3.27256 7.96301L2.74456 11.087C2.72256 11.219 2.73723 11.3437 2.78856 11.461C2.8399 11.5783 2.9169 11.6773 3.01956 11.758C3.12223 11.8387 3.23956 11.8827 3.37156 11.89C3.50356 11.8973 3.62823 11.8717 3.74556 11.813L6.50656 10.339L9.26756 11.813C9.3849 11.8717 9.50773 11.8973 9.63606 11.89C9.7644 11.8827 9.88356 11.8405 9.99356 11.7635C10.1036 11.6865 10.1824 11.5875 10.2301 11.4665C10.2777 11.3455 10.2906 11.219 10.2686 11.087L9.72956 7.96301L11.9736 5.74101C12.0689 5.65301 12.1312 5.54485 12.1606 5.41651C12.1899 5.28818 12.1826 5.16168 12.1386 5.03701C12.0946 4.91235 12.0249 4.80785 11.9296 4.72351C11.8342 4.63918 11.7206 4.58968 11.5886 4.57501L8.50856 4.12401L7.12256 1.27501Z" fill="#D1D5DB"/>
<path d="M20.4976 1.27501C20.4389 1.15768 20.3546 1.06418 20.2446 0.994513C20.1346 0.924847 20.0136 0.890013 19.8816 0.890013C19.7496 0.890013 19.6267 0.924847 19.5131 0.994513C19.3994 1.06418 19.3132 1.15768 19.2546 1.27501L17.8796 4.12401L14.7886 4.57501C14.6639 4.58968 14.5502 4.63918 14.4476 4.72351C14.3449 4.80785 14.2752 4.91235 14.2386 5.03701C14.2019 5.16168 14.1982 5.28818 14.2276 5.41651C14.2569 5.54485 14.3192 5.65301 14.4146 5.74101L16.6476 7.96301L16.1196 11.087C16.0976 11.219 16.1122 11.3437 16.1636 11.461C16.2149 11.5783 16.2919 11.6773 16.3946 11.758C16.4972 11.8387 16.6146 11.8827 16.7466 11.89C16.8786 11.8973 17.0032 11.8717 17.1206 11.813L19.8816 10.339L22.6426 11.813C22.7599 11.8717 22.8827 11.8973 23.0111 11.89C23.1394 11.8827 23.2586 11.8405 23.3686 11.7635C23.4786 11.6865 23.5574 11.5875 23.6051 11.4665C23.6527 11.3455 23.6656 11.219 23.6436 11.087L23.1046 7.96301L25.3486 5.74101C25.4439 5.65301 25.5062 5.54485 25.5356 5.41651C25.5649 5.28818 25.5576 5.16168 25.5136 5.03701C25.4696 4.91235 25.3999 4.80785 25.3046 4.72351C25.2092 4.63918 25.0956 4.58968 24.9636 4.57501L21.8836 4.12401L20.4976 1.27501Z" fill="#D1D5DB"/>
<path d="M33.8726 1.27501C33.8139 1.15768 33.7296 1.06418 33.6196 0.994513C33.5096 0.924847 33.3886 0.890013 33.2566 0.890013C33.1246 0.890013 33.0017 0.924847 32.8881 0.994513C32.7744 1.06418 32.6882 1.15768 32.6296 1.27501L31.2546 4.12401L28.1636 4.57501C28.0389 4.58968 27.9252 4.63918 27.8226 4.72351C27.7199 4.80785 27.6502 4.91235 27.6136 5.03701C27.5769 5.16168 27.5732 5.28818 27.6026 5.41651C27.6319 5.54485 27.6942 5.65301 27.7896 5.74101L30.0226 7.96301L29.4946 11.087C29.4726 11.219 29.4872 11.3437 29.5386 11.461C29.5899 11.5783 29.6669 11.6773 29.7696 11.758C29.8722 11.8387 29.9896 11.8827 30.1216 11.89C30.2536 11.8973 30.3782 11.8717 30.4956 11.813L33.2566 10.339L36.0176 11.813C36.1349 11.8717 36.2577 11.8973 36.3861 11.89C36.5144 11.8827 36.6336 11.8405 36.7436 11.7635C36.8536 11.6865 36.9324 11.5875 36.9801 11.4665C37.0277 11.3455 37.0406 11.219 37.0186 11.087L36.4796 7.96301L38.7236 5.74101C38.8189 5.65301 38.8812 5.54485 38.9106 5.41651C38.9399 5.28818 38.9326 5.16168 38.8886 5.03701C38.8446 4.91235 38.7749 4.80785 38.6796 4.72351C38.5842 4.63918 38.4706 4.58968 38.3386 4.57501L35.2586 4.12401L33.8726 1.27501Z" fill="#D1D5DB"/>
<path d="M47.2476 1.27501C47.1889 1.15768 47.1046 1.06418 46.9946 0.994513C46.8846 0.924847 46.7636 0.890013 46.6316 0.890013C46.4996 0.890013 46.3767 0.924847 46.2631 0.994513C46.1494 1.06418 46.0632 1.15768 46.0046 1.27501L44.6296 4.12401L41.5386 4.57501C41.4139 4.58968 41.3002 4.63918 41.1976 4.72351C41.0949 4.80785 41.0252 4.91235 40.9886 5.03701C40.9519 5.16168 40.9482 5.28818 40.9776 5.41651C41.0069 5.54485 41.0692 5.65301 41.1646 5.74101L43.3976 7.96301L42.8696 11.087C42.8476 11.219 42.8622 11.3437 42.9136 11.461C42.9649 11.5783 43.0419 11.6773 43.1446 11.758C43.2472 11.8387 43.3646 11.8827 43.4966 11.89C43.6286 11.8973 43.7532 11.8717 43.8706 11.813L46.6316 10.339L49.3926 11.813C49.5099 11.8717 49.6327 11.8973 49.7611 11.89C49.8894 11.8827 50.0086 11.8405 50.1186 11.7635C50.2286 11.6865 50.3074 11.5875 50.3551 11.4665C50.4027 11.3455 50.4156 11.219 50.3936 11.087L49.8546 7.96301L52.0986 5.74101C52.1939 5.65301 52.2562 5.54485 52.2856 5.41651C52.3149 5.28818 52.3076 5.16168 52.2636 5.03701C52.2196 4.91235 52.1499 4.80785 52.0546 4.72351C51.9592 4.63918 51.8456 4.58968 51.7136 4.57501L48.6336 4.12401L47.2476 1.27501Z" fill="#D1D5DB"/>
<path d="M60.6226 1.27501C60.5639 1.15768 60.4796 1.06418 60.3696 0.994513C60.2596 0.924847 60.1386 0.890013 60.0066 0.890013C59.8746 0.890013 59.7517 0.924847 59.6381 0.994513C59.5244 1.06418 59.4382 1.15768 59.3796 1.27501L58.0046 4.12401L54.9136 4.57501C54.7889 4.58968 54.6752 4.63918 54.5726 4.72351C54.4699 4.80785 54.4002 4.91235 54.3636 5.03701C54.3269 5.16168 54.3232 5.28818 54.3526 5.41651C54.3819 5.54485 54.4442 5.65301 54.5396 5.74101L56.7726 7.96301L56.2446 11.087C56.2226 11.219 56.2372 11.3437 56.2886 11.461C56.3399 11.5783 56.4169 11.6773 56.5196 11.758C56.6222 11.8387 56.7396 11.8827 56.8716 11.89C57.0036 11.8973 57.1282 11.8717 57.2456 11.813L60.0066 10.339L62.7676 11.813C62.8849 11.8717 63.0077 11.8973 63.1361 11.89C63.2644 11.8827 63.3836 11.8405 63.4936 11.7635C63.6036 11.6865 63.6824 11.5875 63.7301 11.4665C63.7777 11.3455 63.7906 11.219 63.7686 11.087L63.2296 7.96301L65.4736 5.74101C65.5689 5.65301 65.6312 5.54485 65.6606 5.41651C65.6899 5.28818 65.6826 5.16168 65.6386 5.03701C65.5946 4.91235 65.5249 4.80785 65.4296 4.72351C65.3342 4.63918 65.2206 4.58968 65.0886 4.57501L62.0086 4.12401L60.6226 1.27501Z" fill="#D1D5DB"/>
</g>
<g clip-path="url(#clip2_322_2357)">
<g clip-path="url(#clip3_322_2357)">
<path d="M7.12256 1.27501C7.0639 1.15768 6.97956 1.06418 6.86956 0.994513C6.75956 0.924847 6.63856 0.890013 6.50656 0.890013C6.37456 0.890013 6.25173 0.924847 6.13806 0.994513C6.0244 1.06418 5.93823 1.15768 5.87956 1.27501L4.50456 4.12401L1.41356 4.57501C1.2889 4.58968 1.17523 4.63918 1.07256 4.72351C0.969897 4.80785 0.90023 4.91235 0.863563 5.03701C0.826897 5.16168 0.82323 5.28818 0.852563 5.41651C0.881897 5.54485 0.94423 5.65301 1.03956 5.74101L3.27256 7.96301L2.74456 11.087C2.72256 11.219 2.73723 11.3437 2.78856 11.461C2.8399 11.5783 2.9169 11.6773 3.01956 11.758C3.12223 11.8387 3.23956 11.8827 3.37156 11.89C3.50356 11.8973 3.62823 11.8717 3.74556 11.813L6.50656 10.339L9.26756 11.813C9.3849 11.8717 9.50773 11.8973 9.63606 11.89C9.7644 11.8827 9.88356 11.8405 9.99356 11.7635C10.1036 11.6865 10.1824 11.5875 10.2301 11.4665C10.2777 11.3455 10.2906 11.219 10.2686 11.087L9.72956 7.96301L11.9736 5.74101C12.0689 5.65301 12.1312 5.54485 12.1606 5.41651C12.1899 5.28818 12.1826 5.16168 12.1386 5.03701C12.0946 4.91235 12.0249 4.80785 11.9296 4.72351C11.8342 4.63918 11.7206 4.58968 11.5886 4.57501L8.50856 4.12401L7.12256 1.27501Z" fill="#FACC15"/>
<path d="M20.4976 1.27501C20.4389 1.15768 20.3546 1.06418 20.2446 0.994513C20.1346 0.924847 20.0136 0.890013 19.8816 0.890013C19.7496 0.890013 19.6267 0.924847 19.5131 0.994513C19.3994 1.06418 19.3132 1.15768 19.2546 1.27501L17.8796 4.12401L14.7886 4.57501C14.6639 4.58968 14.5502 4.63918 14.4476 4.72351C14.3449 4.80785 14.2752 4.91235 14.2386 5.03701C14.2019 5.16168 14.1982 5.28818 14.2276 5.41651C14.2569 5.54485 14.3192 5.65301 14.4146 5.74101L16.6476 7.96301L16.1196 11.087C16.0976 11.219 16.1122 11.3437 16.1636 11.461C16.2149 11.5783 16.2919 11.6773 16.3946 11.758C16.4972 11.8387 16.6146 11.8827 16.7466 11.89C16.8786 11.8973 17.0032 11.8717 17.1206 11.813L19.8816 10.339L22.6426 11.813C22.7599 11.8717 22.8827 11.8973 23.0111 11.89C23.1394 11.8827 23.2586 11.8405 23.3686 11.7635C23.4786 11.6865 23.5574 11.5875 23.6051 11.4665C23.6527 11.3455 23.6656 11.219 23.6436 11.087L23.1046 7.96301L25.3486 5.74101C25.4439 5.65301 25.5062 5.54485 25.5356 5.41651C25.5649 5.28818 25.5576 5.16168 25.5136 5.03701C25.4696 4.91235 25.3999 4.80785 25.3046 4.72351C25.2092 4.63918 25.0956 4.58968 24.9636 4.57501L21.8836 4.12401L20.4976 1.27501Z" fill="#FACC15"/>
<path d="M33.8726 1.27501C33.8139 1.15768 33.7296 1.06418 33.6196 0.994513C33.5096 0.924847 33.3886 0.890013 33.2566 0.890013C33.1246 0.890013 33.0017 0.924847 32.8881 0.994513C32.7744 1.06418 32.6882 1.15768 32.6296 1.27501L31.2546 4.12401L28.1636 4.57501C28.0389 4.58968 27.9252 4.63918 27.8226 4.72351C27.7199 4.80785 27.6502 4.91235 27.6136 5.03701C27.5769 5.16168 27.5732 5.28818 27.6026 5.41651C27.6319 5.54485 27.6942 5.65301 27.7896 5.74101L30.0226 7.96301L29.4946 11.087C29.4726 11.219 29.4872 11.3437 29.5386 11.461C29.5899 11.5783 29.6669 11.6773 29.7696 11.758C29.8722 11.8387 29.9896 11.8827 30.1216 11.89C30.2536 11.8973 30.3782 11.8717 30.4956 11.813L33.2566 10.339L36.0176 11.813C36.1349 11.8717 36.2577 11.8973 36.3861 11.89C36.5144 11.8827 36.6336 11.8405 36.7436 11.7635C36.8536 11.6865 36.9324 11.5875 36.9801 11.4665C37.0277 11.3455 37.0406 11.219 37.0186 11.087L36.4796 7.96301L38.7236 5.74101C38.8189 5.65301 38.8812 5.54485 38.9106 5.41651C38.9399 5.28818 38.9326 5.16168 38.8886 5.03701C38.8446 4.91235 38.7749 4.80785 38.6796 4.72351C38.5842 4.63918 38.4706 4.58968 38.3386 4.57501L35.2586 4.12401L33.8726 1.27501Z" fill="#FACC15"/>
</g>
</g>
</g>
<defs>
<clipPath id="clip0_322_2357">
<rect width="66.88" height="11" fill="white" transform="translate(0.830078 0.890015)"/>
</clipPath>
<clipPath id="clip1_322_2357">
<rect width="66.88" height="11" fill="white" transform="matrix(1 0 0 -1 0.830078 11.89)"/>
</clipPath>
<clipPath id="clip2_322_2357">
<rect width="31.16" height="11" fill="white" transform="translate(0.830078 0.890015)"/>
</clipPath>
<clipPath id="clip3_322_2357">
<rect width="66.88" height="11" fill="white" transform="matrix(1 0 0 -1 0.830078 11.89)"/>
</clipPath>
</defs>
</svg>
