<svg width="67" height="12" viewBox="0 0 67 12" fill="none" xmlns="http://www.w3.org/2000/svg">
<g clip-path="url(#clip0_322_1651)">
<g clip-path="url(#clip1_322_1651)">
<path d="M6.29249 0.475087C6.23382 0.357753 6.14949 0.264253 6.03949 0.194587C5.92949 0.12492 5.80849 0.0900867 5.67649 0.0900867C5.54449 0.0900867 5.42165 0.12492 5.30799 0.194587C5.19432 0.264253 5.10815 0.357753 5.04949 0.475087L3.67449 3.32409L0.583485 3.77509C0.458819 3.78975 0.345152 3.83925 0.242485 3.92359C0.139819 4.00792 0.0701519 4.11242 0.0334852 4.23709C-0.00318142 4.36175 -0.00684809 4.48825 0.0224852 4.61659C0.0518186 4.74492 0.114152 4.85309 0.209485 4.94109L2.44249 7.16309L1.91449 10.2871C1.89249 10.4191 1.90715 10.5438 1.95849 10.6611C2.00982 10.7784 2.08682 10.8774 2.18949 10.9581C2.29215 11.0388 2.40949 11.0828 2.54149 11.0901C2.67349 11.0974 2.79815 11.0718 2.91549 11.0131L5.67649 9.53909L8.43749 11.0131C8.55482 11.0718 8.67765 11.0974 8.80599 11.0901C8.93432 11.0828 9.05349 11.0406 9.16349 10.9636C9.27349 10.8866 9.35232 10.7876 9.39999 10.6666C9.44765 10.5456 9.46049 10.4191 9.43849 10.2871L8.89949 7.16309L11.1435 4.94109C11.2388 4.85309 11.3012 4.74492 11.3305 4.61659C11.3598 4.48825 11.3525 4.36175 11.3085 4.23709C11.2645 4.11242 11.1948 4.00792 11.0995 3.92359C11.0042 3.83925 10.8905 3.78975 10.7585 3.77509L7.67849 3.32409L6.29249 0.475087Z" fill="#D1D5DB"/>
<path d="M19.6675 0.475087C19.6088 0.357753 19.5245 0.264253 19.4145 0.194587C19.3045 0.12492 19.1835 0.0900867 19.0515 0.0900867C18.9195 0.0900867 18.7967 0.12492 18.683 0.194587C18.5693 0.264253 18.4832 0.357753 18.4245 0.475087L17.0495 3.32409L13.9585 3.77509C13.8338 3.78975 13.7202 3.83925 13.6175 3.92359C13.5148 4.00792 13.4452 4.11242 13.4085 4.23709C13.3718 4.36175 13.3682 4.48825 13.3975 4.61659C13.4268 4.74492 13.4892 4.85309 13.5845 4.94109L15.8175 7.16309L15.2895 10.2871C15.2675 10.4191 15.2822 10.5438 15.3335 10.6611C15.3848 10.7784 15.4618 10.8774 15.5645 10.9581C15.6672 11.0388 15.7845 11.0828 15.9165 11.0901C16.0485 11.0974 16.1732 11.0718 16.2905 11.0131L19.0515 9.53909L21.8125 11.0131C21.9298 11.0718 22.0527 11.0974 22.181 11.0901C22.3093 11.0828 22.4285 11.0406 22.5385 10.9636C22.6485 10.8866 22.7273 10.7876 22.775 10.6666C22.8227 10.5456 22.8355 10.4191 22.8135 10.2871L22.2745 7.16309L24.5185 4.94109C24.6138 4.85309 24.6762 4.74492 24.7055 4.61659C24.7348 4.48825 24.7275 4.36175 24.6835 4.23709C24.6395 4.11242 24.5698 4.00792 24.4745 3.92359C24.3792 3.83925 24.2655 3.78975 24.1335 3.77509L21.0535 3.32409L19.6675 0.475087Z" fill="#D1D5DB"/>
<path d="M33.0425 0.475087C32.9838 0.357753 32.8995 0.264253 32.7895 0.194587C32.6795 0.12492 32.5585 0.0900867 32.4265 0.0900867C32.2945 0.0900867 32.1717 0.12492 32.058 0.194587C31.9443 0.264253 31.8582 0.357753 31.7995 0.475087L30.4245 3.32409L27.3335 3.77509C27.2088 3.78975 27.0952 3.83925 26.9925 3.92359C26.8898 4.00792 26.8202 4.11242 26.7835 4.23709C26.7468 4.36175 26.7432 4.48825 26.7725 4.61659C26.8018 4.74492 26.8642 4.85309 26.9595 4.94109L29.1925 7.16309L28.6645 10.2871C28.6425 10.4191 28.6572 10.5438 28.7085 10.6611C28.7598 10.7784 28.8368 10.8774 28.9395 10.9581C29.0422 11.0388 29.1595 11.0828 29.2915 11.0901C29.4235 11.0974 29.5482 11.0718 29.6655 11.0131L32.4265 9.53909L35.1875 11.0131C35.3048 11.0718 35.4277 11.0974 35.556 11.0901C35.6843 11.0828 35.8035 11.0406 35.9135 10.9636C36.0235 10.8866 36.1023 10.7876 36.15 10.6666C36.1977 10.5456 36.2105 10.4191 36.1885 10.2871L35.6495 7.16309L37.8935 4.94109C37.9888 4.85309 38.0512 4.74492 38.0805 4.61659C38.1098 4.48825 38.1025 4.36175 38.0585 4.23709C38.0145 4.11242 37.9448 4.00792 37.8495 3.92359C37.7542 3.83925 37.6405 3.78975 37.5085 3.77509L34.4285 3.32409L33.0425 0.475087Z" fill="#D1D5DB"/>
<path d="M46.4175 0.475087C46.3588 0.357753 46.2745 0.264253 46.1645 0.194587C46.0545 0.12492 45.9335 0.0900867 45.8015 0.0900867C45.6695 0.0900867 45.5467 0.12492 45.433 0.194587C45.3193 0.264253 45.2332 0.357753 45.1745 0.475087L43.7995 3.32409L40.7085 3.77509C40.5838 3.78975 40.4702 3.83925 40.3675 3.92359C40.2648 4.00792 40.1952 4.11242 40.1585 4.23709C40.1218 4.36175 40.1182 4.48825 40.1475 4.61659C40.1768 4.74492 40.2392 4.85309 40.3345 4.94109L42.5675 7.16309L42.0395 10.2871C42.0175 10.4191 42.0322 10.5438 42.0835 10.6611C42.1348 10.7784 42.2118 10.8774 42.3145 10.9581C42.4172 11.0388 42.5345 11.0828 42.6665 11.0901C42.7985 11.0974 42.9232 11.0718 43.0405 11.0131L45.8015 9.53909L48.5625 11.0131C48.6798 11.0718 48.8027 11.0974 48.931 11.0901C49.0593 11.0828 49.1785 11.0406 49.2885 10.9636C49.3985 10.8866 49.4773 10.7876 49.525 10.6666C49.5727 10.5456 49.5855 10.4191 49.5635 10.2871L49.0245 7.16309L51.2685 4.94109C51.3638 4.85309 51.4262 4.74492 51.4555 4.61659C51.4848 4.48825 51.4775 4.36175 51.4335 4.23709C51.3895 4.11242 51.3198 4.00792 51.2245 3.92359C51.1292 3.83925 51.0155 3.78975 50.8835 3.77509L47.8035 3.32409L46.4175 0.475087Z" fill="#D1D5DB"/>
<path d="M59.7925 0.475087C59.7338 0.357753 59.6495 0.264253 59.5395 0.194587C59.4295 0.12492 59.3085 0.0900867 59.1765 0.0900867C59.0445 0.0900867 58.9217 0.12492 58.808 0.194587C58.6943 0.264253 58.6082 0.357753 58.5495 0.475087L57.1745 3.32409L54.0835 3.77509C53.9588 3.78975 53.8452 3.83925 53.7425 3.92359C53.6398 4.00792 53.5702 4.11242 53.5335 4.23709C53.4968 4.36175 53.4932 4.48825 53.5225 4.61659C53.5518 4.74492 53.6142 4.85309 53.7095 4.94109L55.9425 7.16309L55.4145 10.2871C55.3925 10.4191 55.4072 10.5438 55.4585 10.6611C55.5098 10.7784 55.5868 10.8774 55.6895 10.9581C55.7922 11.0388 55.9095 11.0828 56.0415 11.0901C56.1735 11.0974 56.2982 11.0718 56.4155 11.0131L59.1765 9.53909L61.9375 11.0131C62.0548 11.0718 62.1777 11.0974 62.306 11.0901C62.4343 11.0828 62.5535 11.0406 62.6635 10.9636C62.7735 10.8866 62.8523 10.7876 62.9 10.6666C62.9477 10.5456 62.9605 10.4191 62.9385 10.2871L62.3995 7.16309L64.6435 4.94109C64.7388 4.85309 64.8012 4.74492 64.8305 4.61659C64.8598 4.48825 64.8525 4.36175 64.8085 4.23709C64.7645 4.11242 64.6948 4.00792 64.5995 3.92359C64.5042 3.83925 64.3905 3.78975 64.2585 3.77509L61.1785 3.32409L59.7925 0.475087Z" fill="#D1D5DB"/>
</g>
<g clip-path="url(#clip2_322_1651)">
<g clip-path="url(#clip3_322_1651)">
<path d="M6.29249 0.475087C6.23382 0.357753 6.14949 0.264253 6.03949 0.194587C5.92949 0.12492 5.80849 0.0900867 5.67649 0.0900867C5.54449 0.0900867 5.42165 0.12492 5.30799 0.194587C5.19432 0.264253 5.10815 0.357753 5.04949 0.475087L3.67449 3.32409L0.583485 3.77509C0.458819 3.78975 0.345152 3.83925 0.242485 3.92359C0.139819 4.00792 0.0701519 4.11242 0.0334852 4.23709C-0.00318142 4.36175 -0.00684809 4.48825 0.0224852 4.61659C0.0518186 4.74492 0.114152 4.85309 0.209485 4.94109L2.44249 7.16309L1.91449 10.2871C1.89249 10.4191 1.90715 10.5438 1.95849 10.6611C2.00982 10.7784 2.08682 10.8774 2.18949 10.9581C2.29215 11.0388 2.40949 11.0828 2.54149 11.0901C2.67349 11.0974 2.79815 11.0718 2.91549 11.0131L5.67649 9.53909L8.43749 11.0131C8.55482 11.0718 8.67765 11.0974 8.80599 11.0901C8.93432 11.0828 9.05349 11.0406 9.16349 10.9636C9.27349 10.8866 9.35232 10.7876 9.39999 10.6666C9.44765 10.5456 9.46049 10.4191 9.43849 10.2871L8.89949 7.16309L11.1435 4.94109C11.2388 4.85309 11.3012 4.74492 11.3305 4.61659C11.3598 4.48825 11.3525 4.36175 11.3085 4.23709C11.2645 4.11242 11.1948 4.00792 11.0995 3.92359C11.0042 3.83925 10.8905 3.78975 10.7585 3.77509L7.67849 3.32409L6.29249 0.475087Z" fill="#FACC15"/>
<path d="M19.6675 0.475087C19.6088 0.357753 19.5245 0.264253 19.4145 0.194587C19.3045 0.12492 19.1835 0.0900867 19.0515 0.0900867C18.9195 0.0900867 18.7967 0.12492 18.683 0.194587C18.5693 0.264253 18.4832 0.357753 18.4245 0.475087L17.0495 3.32409L13.9585 3.77509C13.8338 3.78975 13.7202 3.83925 13.6175 3.92359C13.5148 4.00792 13.4452 4.11242 13.4085 4.23709C13.3718 4.36175 13.3682 4.48825 13.3975 4.61659C13.4268 4.74492 13.4892 4.85309 13.5845 4.94109L15.8175 7.16309L15.2895 10.2871C15.2675 10.4191 15.2822 10.5438 15.3335 10.6611C15.3848 10.7784 15.4618 10.8774 15.5645 10.9581C15.6672 11.0388 15.7845 11.0828 15.9165 11.0901C16.0485 11.0974 16.1732 11.0718 16.2905 11.0131L19.0515 9.53909L21.8125 11.0131C21.9298 11.0718 22.0527 11.0974 22.181 11.0901C22.3093 11.0828 22.4285 11.0406 22.5385 10.9636C22.6485 10.8866 22.7273 10.7876 22.775 10.6666C22.8227 10.5456 22.8355 10.4191 22.8135 10.2871L22.2745 7.16309L24.5185 4.94109C24.6138 4.85309 24.6762 4.74492 24.7055 4.61659C24.7348 4.48825 24.7275 4.36175 24.6835 4.23709C24.6395 4.11242 24.5698 4.00792 24.4745 3.92359C24.3792 3.83925 24.2655 3.78975 24.1335 3.77509L21.0535 3.32409L19.6675 0.475087Z" fill="#FACC15"/>
<path d="M33.0425 0.475087C32.9838 0.357753 32.8995 0.264253 32.7895 0.194587C32.6795 0.12492 32.5585 0.0900867 32.4265 0.0900867C32.2945 0.0900867 32.1717 0.12492 32.058 0.194587C31.9443 0.264253 31.8582 0.357753 31.7995 0.475087L30.4245 3.32409L27.3335 3.77509C27.2088 3.78975 27.0952 3.83925 26.9925 3.92359C26.8898 4.00792 26.8202 4.11242 26.7835 4.23709C26.7468 4.36175 26.7432 4.48825 26.7725 4.61659C26.8018 4.74492 26.8642 4.85309 26.9595 4.94109L29.1925 7.16309L28.6645 10.2871C28.6425 10.4191 28.6572 10.5438 28.7085 10.6611C28.7598 10.7784 28.8368 10.8774 28.9395 10.9581C29.0422 11.0388 29.1595 11.0828 29.2915 11.0901C29.4235 11.0974 29.5482 11.0718 29.6655 11.0131L32.4265 9.53909L35.1875 11.0131C35.3048 11.0718 35.4277 11.0974 35.556 11.0901C35.6843 11.0828 35.8035 11.0406 35.9135 10.9636C36.0235 10.8866 36.1023 10.7876 36.15 10.6666C36.1977 10.5456 36.2105 10.4191 36.1885 10.2871L35.6495 7.16309L37.8935 4.94109C37.9888 4.85309 38.0512 4.74492 38.0805 4.61659C38.1098 4.48825 38.1025 4.36175 38.0585 4.23709C38.0145 4.11242 37.9448 4.00792 37.8495 3.92359C37.7542 3.83925 37.6405 3.78975 37.5085 3.77509L34.4285 3.32409L33.0425 0.475087Z" fill="#FACC15"/>
<path d="M46.4175 0.475087C46.3588 0.357753 46.2745 0.264253 46.1645 0.194587C46.0545 0.12492 45.9335 0.0900867 45.8015 0.0900867C45.6695 0.0900867 45.5467 0.12492 45.433 0.194587C45.3193 0.264253 45.2332 0.357753 45.1745 0.475087L43.7995 3.32409L40.7085 3.77509C40.5838 3.78975 40.4702 3.83925 40.3675 3.92359C40.2648 4.00792 40.1952 4.11242 40.1585 4.23709C40.1218 4.36175 40.1182 4.48825 40.1475 4.61659C40.1768 4.74492 40.2392 4.85309 40.3345 4.94109L42.5675 7.16309L42.0395 10.2871C42.0175 10.4191 42.0322 10.5438 42.0835 10.6611C42.1348 10.7784 42.2118 10.8774 42.3145 10.9581C42.4172 11.0388 42.5345 11.0828 42.6665 11.0901C42.7985 11.0974 42.9232 11.0718 43.0405 11.0131L45.8015 9.53909L48.5625 11.0131C48.6798 11.0718 48.8027 11.0974 48.931 11.0901C49.0593 11.0828 49.1785 11.0406 49.2885 10.9636C49.3985 10.8866 49.4773 10.7876 49.525 10.6666C49.5727 10.5456 49.5855 10.4191 49.5635 10.2871L49.0245 7.16309L51.2685 4.94109C51.3638 4.85309 51.4262 4.74492 51.4555 4.61659C51.4848 4.48825 51.4775 4.36175 51.4335 4.23709C51.3895 4.11242 51.3198 4.00792 51.2245 3.92359C51.1292 3.83925 51.0155 3.78975 50.8835 3.77509L47.8035 3.32409L46.4175 0.475087Z" fill="#FACC15"/>
<path d="M59.7925 0.475087C59.7338 0.357753 59.6495 0.264253 59.5395 0.194587C59.4295 0.12492 59.3085 0.0900867 59.1765 0.0900867C59.0445 0.0900867 58.9217 0.12492 58.808 0.194587C58.6943 0.264253 58.6082 0.357753 58.5495 0.475087L57.1745 3.32409L54.0835 3.77509C53.9588 3.78975 53.8452 3.83925 53.7425 3.92359C53.6398 4.00792 53.5702 4.11242 53.5335 4.23709C53.4968 4.36175 53.4932 4.48825 53.5225 4.61659C53.5518 4.74492 53.6142 4.85309 53.7095 4.94109L55.9425 7.16309L55.4145 10.2871C55.3925 10.4191 55.4072 10.5438 55.4585 10.6611C55.5098 10.7784 55.5868 10.8774 55.6895 10.9581C55.7922 11.0388 55.9095 11.0828 56.0415 11.0901C56.1735 11.0974 56.2982 11.0718 56.4155 11.0131L59.1765 9.53909L61.9375 11.0131C62.0548 11.0718 62.1777 11.0974 62.306 11.0901C62.4343 11.0828 62.5535 11.0406 62.6635 10.9636C62.7735 10.8866 62.8523 10.7876 62.9 10.6666C62.9477 10.5456 62.9605 10.4191 62.9385 10.2871L62.3995 7.16309L64.6435 4.94109C64.7388 4.85309 64.8012 4.74492 64.8305 4.61659C64.8598 4.48825 64.8525 4.36175 64.8085 4.23709C64.7645 4.11242 64.6948 4.00792 64.5995 3.92359C64.5042 3.83925 64.3905 3.78975 64.2585 3.77509L61.1785 3.32409L59.7925 0.475087Z" fill="#FACC15"/>
</g>
</g>
</g>
<defs>
<clipPath id="clip0_322_1651">
<rect width="66.88" height="11" fill="white" transform="translate(0 0.0900879)"/>
</clipPath>
<clipPath id="clip1_322_1651">
<rect width="66.88" height="11" fill="white" transform="matrix(1 0 0 -1 0 11.0901)"/>
</clipPath>
<clipPath id="clip2_322_1651">
<rect width="53.5" height="11" fill="white" transform="translate(0 0.0900879)"/>
</clipPath>
<clipPath id="clip3_322_1651">
<rect width="66.88" height="11" fill="white" transform="matrix(1 0 0 -1 0 11.0901)"/>
</clipPath>
</defs>
</svg>
