<svg width="68" height="12" viewBox="0 0 68 12" fill="none" xmlns="http://www.w3.org/2000/svg">
<g clip-path="url(#clip0_322_2273)">
<g clip-path="url(#clip1_322_2273)">
<path d="M6.46241 0.625042C6.40374 0.507709 6.31941 0.414209 6.20941 0.344542C6.09941 0.274876 5.97841 0.240042 5.84641 0.240042C5.71441 0.240042 5.59157 0.274876 5.47791 0.344542C5.36424 0.414209 5.27807 0.507709 5.21941 0.625042L3.84441 3.47404L0.753407 3.92504C0.62874 3.93971 0.515074 3.98921 0.412407 4.07354C0.30974 4.15788 0.240074 4.26238 0.203407 4.38704C0.16674 4.51171 0.163074 4.63821 0.192407 4.76654C0.22174 4.89488 0.284074 5.00304 0.379407 5.09104L2.61241 7.31304L2.08441 10.437C2.06241 10.569 2.07707 10.6937 2.12841 10.811C2.17974 10.9284 2.25674 11.0274 2.35941 11.108C2.46207 11.1887 2.57941 11.2327 2.71141 11.24C2.84341 11.2474 2.96807 11.2217 3.08541 11.163L5.84641 9.68904L8.60741 11.163C8.72474 11.2217 8.84757 11.2474 8.97591 11.24C9.10424 11.2327 9.22341 11.1905 9.33341 11.1135C9.44341 11.0365 9.52224 10.9375 9.56991 10.8165C9.61757 10.6955 9.63041 10.569 9.60841 10.437L9.06941 7.31304L11.3134 5.09104C11.4087 5.00304 11.4711 4.89488 11.5004 4.76654C11.5297 4.63821 11.5224 4.51171 11.4784 4.38704C11.4344 4.26238 11.3647 4.15788 11.2694 4.07354C11.1741 3.98921 11.0604 3.93971 10.9284 3.92504L7.84841 3.47404L6.46241 0.625042Z" fill="#D1D5DB"/>
<path d="M19.8374 0.625042C19.7787 0.507709 19.6944 0.414209 19.5844 0.344542C19.4744 0.274876 19.3534 0.240042 19.2214 0.240042C19.0894 0.240042 18.9666 0.274876 18.8529 0.344542C18.7392 0.414209 18.6531 0.507709 18.5944 0.625042L17.2194 3.47404L14.1284 3.92504C14.0037 3.93971 13.8901 3.98921 13.7874 4.07354C13.6847 4.15788 13.6151 4.26238 13.5784 4.38704C13.5417 4.51171 13.5381 4.63821 13.5674 4.76654C13.5967 4.89488 13.6591 5.00304 13.7544 5.09104L15.9874 7.31304L15.4594 10.437C15.4374 10.569 15.4521 10.6937 15.5034 10.811C15.5547 10.9284 15.6317 11.0274 15.7344 11.108C15.8371 11.1887 15.9544 11.2327 16.0864 11.24C16.2184 11.2474 16.3431 11.2217 16.4604 11.163L19.2214 9.68904L21.9824 11.163C22.0997 11.2217 22.2226 11.2474 22.3509 11.24C22.4792 11.2327 22.5984 11.1905 22.7084 11.1135C22.8184 11.0365 22.8972 10.9375 22.9449 10.8165C22.9926 10.6955 23.0054 10.569 22.9834 10.437L22.4444 7.31304L24.6884 5.09104C24.7837 5.00304 24.8461 4.89488 24.8754 4.76654C24.9047 4.63821 24.8974 4.51171 24.8534 4.38704C24.8094 4.26238 24.7397 4.15788 24.6444 4.07354C24.5491 3.98921 24.4354 3.93971 24.3034 3.92504L21.2234 3.47404L19.8374 0.625042Z" fill="#D1D5DB"/>
<path d="M33.2124 0.625042C33.1537 0.507709 33.0694 0.414209 32.9594 0.344542C32.8494 0.274876 32.7284 0.240042 32.5964 0.240042C32.4644 0.240042 32.3416 0.274876 32.2279 0.344542C32.1142 0.414209 32.0281 0.507709 31.9694 0.625042L30.5944 3.47404L27.5034 3.92504C27.3787 3.93971 27.2651 3.98921 27.1624 4.07354C27.0597 4.15788 26.9901 4.26238 26.9534 4.38704C26.9167 4.51171 26.9131 4.63821 26.9424 4.76654C26.9717 4.89488 27.0341 5.00304 27.1294 5.09104L29.3624 7.31304L28.8344 10.437C28.8124 10.569 28.8271 10.6937 28.8784 10.811C28.9297 10.9284 29.0067 11.0274 29.1094 11.108C29.2121 11.1887 29.3294 11.2327 29.4614 11.24C29.5934 11.2474 29.7181 11.2217 29.8354 11.163L32.5964 9.68904L35.3574 11.163C35.4747 11.2217 35.5976 11.2474 35.7259 11.24C35.8542 11.2327 35.9734 11.1905 36.0834 11.1135C36.1934 11.0365 36.2722 10.9375 36.3199 10.8165C36.3676 10.6955 36.3804 10.569 36.3584 10.437L35.8194 7.31304L38.0634 5.09104C38.1587 5.00304 38.2211 4.89488 38.2504 4.76654C38.2797 4.63821 38.2724 4.51171 38.2284 4.38704C38.1844 4.26238 38.1147 4.15788 38.0194 4.07354C37.9241 3.98921 37.8104 3.93971 37.6784 3.92504L34.5984 3.47404L33.2124 0.625042Z" fill="#D1D5DB"/>
<path d="M46.5874 0.625042C46.5287 0.507709 46.4444 0.414209 46.3344 0.344542C46.2244 0.274876 46.1034 0.240042 45.9714 0.240042C45.8394 0.240042 45.7166 0.274876 45.6029 0.344542C45.4892 0.414209 45.4031 0.507709 45.3444 0.625042L43.9694 3.47404L40.8784 3.92504C40.7537 3.93971 40.6401 3.98921 40.5374 4.07354C40.4347 4.15788 40.3651 4.26238 40.3284 4.38704C40.2917 4.51171 40.2881 4.63821 40.3174 4.76654C40.3467 4.89488 40.4091 5.00304 40.5044 5.09104L42.7374 7.31304L42.2094 10.437C42.1874 10.569 42.2021 10.6937 42.2534 10.811C42.3047 10.9284 42.3817 11.0274 42.4844 11.108C42.5871 11.1887 42.7044 11.2327 42.8364 11.24C42.9684 11.2474 43.0931 11.2217 43.2104 11.163L45.9714 9.68904L48.7324 11.163C48.8497 11.2217 48.9726 11.2474 49.1009 11.24C49.2292 11.2327 49.3484 11.1905 49.4584 11.1135C49.5684 11.0365 49.6472 10.9375 49.6949 10.8165C49.7426 10.6955 49.7554 10.569 49.7334 10.437L49.1944 7.31304L51.4384 5.09104C51.5337 5.00304 51.5961 4.89488 51.6254 4.76654C51.6547 4.63821 51.6474 4.51171 51.6034 4.38704C51.5594 4.26238 51.4897 4.15788 51.3944 4.07354C51.2991 3.98921 51.1854 3.93971 51.0534 3.92504L47.9734 3.47404L46.5874 0.625042Z" fill="#D1D5DB"/>
<path d="M59.9624 0.625042C59.9037 0.507709 59.8194 0.414209 59.7094 0.344542C59.5994 0.274876 59.4784 0.240042 59.3464 0.240042C59.2144 0.240042 59.0916 0.274876 58.9779 0.344542C58.8642 0.414209 58.7781 0.507709 58.7194 0.625042L57.3444 3.47404L54.2534 3.92504C54.1287 3.93971 54.0151 3.98921 53.9124 4.07354C53.8097 4.15788 53.7401 4.26238 53.7034 4.38704C53.6667 4.51171 53.6631 4.63821 53.6924 4.76654C53.7217 4.89488 53.7841 5.00304 53.8794 5.09104L56.1124 7.31304L55.5844 10.437C55.5624 10.569 55.5771 10.6937 55.6284 10.811C55.6797 10.9284 55.7567 11.0274 55.8594 11.108C55.9621 11.1887 56.0794 11.2327 56.2114 11.24C56.3434 11.2474 56.4681 11.2217 56.5854 11.163L59.3464 9.68904L62.1074 11.163C62.2247 11.2217 62.3476 11.2474 62.4759 11.24C62.6042 11.2327 62.7234 11.1905 62.8334 11.1135C62.9434 11.0365 63.0222 10.9375 63.0699 10.8165C63.1176 10.6955 63.1304 10.569 63.1084 10.437L62.5694 7.31304L64.8134 5.09104C64.9087 5.00304 64.9711 4.89488 65.0004 4.76654C65.0297 4.63821 65.0224 4.51171 64.9784 4.38704C64.9344 4.26238 64.8647 4.15788 64.7694 4.07354C64.6741 3.98921 64.5604 3.93971 64.4284 3.92504L61.3484 3.47404L59.9624 0.625042Z" fill="#D1D5DB"/>
</g>
<g clip-path="url(#clip2_322_2273)">
<g clip-path="url(#clip3_322_2273)">
<path d="M6.46241 0.625042C6.40374 0.507709 6.31941 0.414209 6.20941 0.344542C6.09941 0.274876 5.97841 0.240042 5.84641 0.240042C5.71441 0.240042 5.59157 0.274876 5.47791 0.344542C5.36424 0.414209 5.27807 0.507709 5.21941 0.625042L3.84441 3.47404L0.753407 3.92504C0.62874 3.93971 0.515074 3.98921 0.412407 4.07354C0.30974 4.15788 0.240074 4.26238 0.203407 4.38704C0.16674 4.51171 0.163074 4.63821 0.192407 4.76654C0.22174 4.89488 0.284074 5.00304 0.379407 5.09104L2.61241 7.31304L2.08441 10.437C2.06241 10.569 2.07707 10.6937 2.12841 10.811C2.17974 10.9284 2.25674 11.0274 2.35941 11.108C2.46207 11.1887 2.57941 11.2327 2.71141 11.24C2.84341 11.2474 2.96807 11.2217 3.08541 11.163L5.84641 9.68904L8.60741 11.163C8.72474 11.2217 8.84757 11.2474 8.97591 11.24C9.10424 11.2327 9.22341 11.1905 9.33341 11.1135C9.44341 11.0365 9.52224 10.9375 9.56991 10.8165C9.61757 10.6955 9.63041 10.569 9.60841 10.437L9.06941 7.31304L11.3134 5.09104C11.4087 5.00304 11.4711 4.89488 11.5004 4.76654C11.5297 4.63821 11.5224 4.51171 11.4784 4.38704C11.4344 4.26238 11.3647 4.15788 11.2694 4.07354C11.1741 3.98921 11.0604 3.93971 10.9284 3.92504L7.84841 3.47404L6.46241 0.625042Z" fill="#FACC15"/>
<path d="M19.8374 0.625042C19.7787 0.507709 19.6944 0.414209 19.5844 0.344542C19.4744 0.274876 19.3534 0.240042 19.2214 0.240042C19.0894 0.240042 18.9666 0.274876 18.8529 0.344542C18.7392 0.414209 18.6531 0.507709 18.5944 0.625042L17.2194 3.47404L14.1284 3.92504C14.0037 3.93971 13.8901 3.98921 13.7874 4.07354C13.6847 4.15788 13.6151 4.26238 13.5784 4.38704C13.5417 4.51171 13.5381 4.63821 13.5674 4.76654C13.5967 4.89488 13.6591 5.00304 13.7544 5.09104L15.9874 7.31304L15.4594 10.437C15.4374 10.569 15.4521 10.6937 15.5034 10.811C15.5547 10.9284 15.6317 11.0274 15.7344 11.108C15.8371 11.1887 15.9544 11.2327 16.0864 11.24C16.2184 11.2474 16.3431 11.2217 16.4604 11.163L19.2214 9.68904L21.9824 11.163C22.0997 11.2217 22.2226 11.2474 22.3509 11.24C22.4792 11.2327 22.5984 11.1905 22.7084 11.1135C22.8184 11.0365 22.8972 10.9375 22.9449 10.8165C22.9926 10.6955 23.0054 10.569 22.9834 10.437L22.4444 7.31304L24.6884 5.09104C24.7837 5.00304 24.8461 4.89488 24.8754 4.76654C24.9047 4.63821 24.8974 4.51171 24.8534 4.38704C24.8094 4.26238 24.7397 4.15788 24.6444 4.07354C24.5491 3.98921 24.4354 3.93971 24.3034 3.92504L21.2234 3.47404L19.8374 0.625042Z" fill="#FACC15"/>
<path d="M33.2124 0.625042C33.1537 0.507709 33.0694 0.414209 32.9594 0.344542C32.8494 0.274876 32.7284 0.240042 32.5964 0.240042C32.4644 0.240042 32.3416 0.274876 32.2279 0.344542C32.1142 0.414209 32.0281 0.507709 31.9694 0.625042L30.5944 3.47404L27.5034 3.92504C27.3787 3.93971 27.2651 3.98921 27.1624 4.07354C27.0597 4.15788 26.9901 4.26238 26.9534 4.38704C26.9167 4.51171 26.9131 4.63821 26.9424 4.76654C26.9717 4.89488 27.0341 5.00304 27.1294 5.09104L29.3624 7.31304L28.8344 10.437C28.8124 10.569 28.8271 10.6937 28.8784 10.811C28.9297 10.9284 29.0067 11.0274 29.1094 11.108C29.2121 11.1887 29.3294 11.2327 29.4614 11.24C29.5934 11.2474 29.7181 11.2217 29.8354 11.163L32.5964 9.68904L35.3574 11.163C35.4747 11.2217 35.5976 11.2474 35.7259 11.24C35.8542 11.2327 35.9734 11.1905 36.0834 11.1135C36.1934 11.0365 36.2722 10.9375 36.3199 10.8165C36.3676 10.6955 36.3804 10.569 36.3584 10.437L35.8194 7.31304L38.0634 5.09104C38.1587 5.00304 38.2211 4.89488 38.2504 4.76654C38.2797 4.63821 38.2724 4.51171 38.2284 4.38704C38.1844 4.26238 38.1147 4.15788 38.0194 4.07354C37.9241 3.98921 37.8104 3.93971 37.6784 3.92504L34.5984 3.47404L33.2124 0.625042Z" fill="#FACC15"/>
<path d="M46.5874 0.625042C46.5287 0.507709 46.4444 0.414209 46.3344 0.344542C46.2244 0.274876 46.1034 0.240042 45.9714 0.240042C45.8394 0.240042 45.7166 0.274876 45.6029 0.344542C45.4892 0.414209 45.4031 0.507709 45.3444 0.625042L43.9694 3.47404L40.8784 3.92504C40.7537 3.93971 40.6401 3.98921 40.5374 4.07354C40.4347 4.15788 40.3651 4.26238 40.3284 4.38704C40.2917 4.51171 40.2881 4.63821 40.3174 4.76654C40.3467 4.89488 40.4091 5.00304 40.5044 5.09104L42.7374 7.31304L42.2094 10.437C42.1874 10.569 42.2021 10.6937 42.2534 10.811C42.3047 10.9284 42.3817 11.0274 42.4844 11.108C42.5871 11.1887 42.7044 11.2327 42.8364 11.24C42.9684 11.2474 43.0931 11.2217 43.2104 11.163L45.9714 9.68904L48.7324 11.163C48.8497 11.2217 48.9726 11.2474 49.1009 11.24C49.2292 11.2327 49.3484 11.1905 49.4584 11.1135C49.5684 11.0365 49.6472 10.9375 49.6949 10.8165C49.7426 10.6955 49.7554 10.569 49.7334 10.437L49.1944 7.31304L51.4384 5.09104C51.5337 5.00304 51.5961 4.89488 51.6254 4.76654C51.6547 4.63821 51.6474 4.51171 51.6034 4.38704C51.5594 4.26238 51.4897 4.15788 51.3944 4.07354C51.2991 3.98921 51.1854 3.93971 51.0534 3.92504L47.9734 3.47404L46.5874 0.625042Z" fill="#FACC15"/>
</g>
</g>
</g>
<defs>
<clipPath id="clip0_322_2273">
<rect width="66.88" height="11" fill="white" transform="translate(0.169922 0.240044)"/>
</clipPath>
<clipPath id="clip1_322_2273">
<rect width="66.88" height="11" fill="white" transform="matrix(1 0 0 -1 0.169922 11.24)"/>
</clipPath>
<clipPath id="clip2_322_2273">
<rect width="44.53" height="11" fill="white" transform="translate(0.169922 0.240044)"/>
</clipPath>
<clipPath id="clip3_322_2273">
<rect width="66.88" height="11" fill="white" transform="matrix(1 0 0 -1 0.169922 11.24)"/>
</clipPath>
</defs>
</svg>
