<svg width="68" height="12" viewBox="0 0 68 12" fill="none" xmlns="http://www.w3.org/2000/svg">
<g clip-path="url(#clip0_322_2126)">
<g clip-path="url(#clip1_322_2126)">
<path d="M6.65284 0.435048C6.59417 0.317714 6.50984 0.224214 6.39984 0.154548C6.28984 0.084881 6.16884 0.0500477 6.03684 0.0500477C5.90484 0.0500477 5.782 0.084881 5.66834 0.154548C5.55467 0.224214 5.4685 0.317714 5.40984 0.435048L4.03484 3.28405L0.943837 3.73505C0.81917 3.74971 0.705503 3.79921 0.602837 3.88355C0.50017 3.96788 0.430503 4.07238 0.393837 4.19705C0.35717 4.32171 0.353503 4.44821 0.382837 4.57655C0.41217 4.70488 0.474503 4.81305 0.569837 4.90105L2.80284 7.12305L2.27484 10.247C2.25284 10.379 2.2675 10.5037 2.31884 10.621C2.37017 10.7384 2.44717 10.8374 2.54984 10.918C2.6525 10.9987 2.76984 11.0427 2.90184 11.05C3.03384 11.0574 3.1585 11.0317 3.27584 10.973L6.03684 9.49905L8.79784 10.973C8.91517 11.0317 9.038 11.0574 9.16634 11.05C9.29467 11.0427 9.41384 11.0005 9.52384 10.9235C9.63384 10.8465 9.71267 10.7475 9.76034 10.6265C9.808 10.5055 9.82084 10.379 9.79884 10.247L9.25984 7.12305L11.5038 4.90105C11.5992 4.81305 11.6615 4.70488 11.6908 4.57655C11.7202 4.44821 11.7128 4.32171 11.6688 4.19705C11.6248 4.07238 11.5552 3.96788 11.4598 3.88355C11.3645 3.79921 11.2508 3.74971 11.1188 3.73505L8.03884 3.28405L6.65284 0.435048Z" fill="#D1D5DB"/>
<path d="M20.0278 0.435048C19.9692 0.317714 19.8848 0.224214 19.7748 0.154548C19.6648 0.084881 19.5438 0.0500477 19.4118 0.0500477C19.2798 0.0500477 19.157 0.084881 19.0433 0.154548C18.9297 0.224214 18.8435 0.317714 18.7848 0.435048L17.4098 3.28405L14.3188 3.73505C14.1942 3.74971 14.0805 3.79921 13.9778 3.88355C13.8752 3.96788 13.8055 4.07238 13.7688 4.19705C13.7322 4.32171 13.7285 4.44821 13.7578 4.57655C13.7872 4.70488 13.8495 4.81305 13.9448 4.90105L16.1778 7.12305L15.6498 10.247C15.6278 10.379 15.6425 10.5037 15.6938 10.621C15.7452 10.7384 15.8222 10.8374 15.9248 10.918C16.0275 10.9987 16.1448 11.0427 16.2768 11.05C16.4088 11.0574 16.5335 11.0317 16.6508 10.973L19.4118 9.49905L22.1728 10.973C22.2902 11.0317 22.413 11.0574 22.5413 11.05C22.6697 11.0427 22.7888 11.0005 22.8988 10.9235C23.0088 10.8465 23.0877 10.7475 23.1353 10.6265C23.183 10.5055 23.1958 10.379 23.1738 10.247L22.6348 7.12305L24.8788 4.90105C24.9742 4.81305 25.0365 4.70488 25.0658 4.57655C25.0952 4.44821 25.0878 4.32171 25.0438 4.19705C24.9998 4.07238 24.9302 3.96788 24.8348 3.88355C24.7395 3.79921 24.6258 3.74971 24.4938 3.73505L21.4138 3.28405L20.0278 0.435048Z" fill="#D1D5DB"/>
<path d="M33.4028 0.435048C33.3442 0.317714 33.2598 0.224214 33.1498 0.154548C33.0398 0.084881 32.9188 0.0500477 32.7868 0.0500477C32.6548 0.0500477 32.532 0.084881 32.4183 0.154548C32.3047 0.224214 32.2185 0.317714 32.1598 0.435048L30.7848 3.28405L27.6938 3.73505C27.5692 3.74971 27.4555 3.79921 27.3528 3.88355C27.2502 3.96788 27.1805 4.07238 27.1438 4.19705C27.1072 4.32171 27.1035 4.44821 27.1328 4.57655C27.1622 4.70488 27.2245 4.81305 27.3198 4.90105L29.5528 7.12305L29.0248 10.247C29.0028 10.379 29.0175 10.5037 29.0688 10.621C29.1202 10.7384 29.1972 10.8374 29.2998 10.918C29.4025 10.9987 29.5198 11.0427 29.6518 11.05C29.7838 11.0574 29.9085 11.0317 30.0258 10.973L32.7868 9.49905L35.5478 10.973C35.6652 11.0317 35.788 11.0574 35.9163 11.05C36.0447 11.0427 36.1638 11.0005 36.2738 10.9235C36.3838 10.8465 36.4627 10.7475 36.5103 10.6265C36.558 10.5055 36.5708 10.379 36.5488 10.247L36.0098 7.12305L38.2538 4.90105C38.3492 4.81305 38.4115 4.70488 38.4408 4.57655C38.4702 4.44821 38.4628 4.32171 38.4188 4.19705C38.3748 4.07238 38.3052 3.96788 38.2098 3.88355C38.1145 3.79921 38.0008 3.74971 37.8688 3.73505L34.7888 3.28405L33.4028 0.435048Z" fill="#D1D5DB"/>
<path d="M46.7778 0.435048C46.7192 0.317714 46.6348 0.224214 46.5248 0.154548C46.4148 0.084881 46.2938 0.0500477 46.1618 0.0500477C46.0298 0.0500477 45.907 0.084881 45.7933 0.154548C45.6797 0.224214 45.5935 0.317714 45.5348 0.435048L44.1598 3.28405L41.0688 3.73505C40.9442 3.74971 40.8305 3.79921 40.7278 3.88355C40.6252 3.96788 40.5555 4.07238 40.5188 4.19705C40.4822 4.32171 40.4785 4.44821 40.5078 4.57655C40.5372 4.70488 40.5995 4.81305 40.6948 4.90105L42.9278 7.12305L42.3998 10.247C42.3778 10.379 42.3925 10.5037 42.4438 10.621C42.4952 10.7384 42.5722 10.8374 42.6748 10.918C42.7775 10.9987 42.8948 11.0427 43.0268 11.05C43.1588 11.0574 43.2835 11.0317 43.4008 10.973L46.1618 9.49905L48.9228 10.973C49.0402 11.0317 49.163 11.0574 49.2913 11.05C49.4197 11.0427 49.5388 11.0005 49.6488 10.9235C49.7588 10.8465 49.8377 10.7475 49.8853 10.6265C49.933 10.5055 49.9458 10.379 49.9238 10.247L49.3848 7.12305L51.6288 4.90105C51.7242 4.81305 51.7865 4.70488 51.8158 4.57655C51.8452 4.44821 51.8378 4.32171 51.7938 4.19705C51.7498 4.07238 51.6802 3.96788 51.5848 3.88355C51.4895 3.79921 51.3758 3.74971 51.2438 3.73505L48.1638 3.28405L46.7778 0.435048Z" fill="#D1D5DB"/>
<path d="M60.1528 0.435048C60.0942 0.317714 60.0098 0.224214 59.8998 0.154548C59.7898 0.084881 59.6688 0.0500477 59.5368 0.0500477C59.4048 0.0500477 59.282 0.084881 59.1683 0.154548C59.0547 0.224214 58.9685 0.317714 58.9098 0.435048L57.5348 3.28405L54.4438 3.73505C54.3192 3.74971 54.2055 3.79921 54.1028 3.88355C54.0002 3.96788 53.9305 4.07238 53.8938 4.19705C53.8572 4.32171 53.8535 4.44821 53.8828 4.57655C53.9122 4.70488 53.9745 4.81305 54.0698 4.90105L56.3028 7.12305L55.7748 10.247C55.7528 10.379 55.7675 10.5037 55.8188 10.621C55.8702 10.7384 55.9472 10.8374 56.0498 10.918C56.1525 10.9987 56.2698 11.0427 56.4018 11.05C56.5338 11.0574 56.6585 11.0317 56.7758 10.973L59.5368 9.49905L62.2978 10.973C62.4152 11.0317 62.538 11.0574 62.6663 11.05C62.7947 11.0427 62.9138 11.0005 63.0238 10.9235C63.1338 10.8465 63.2127 10.7475 63.2603 10.6265C63.308 10.5055 63.3208 10.379 63.2988 10.247L62.7598 7.12305L65.0038 4.90105C65.0992 4.81305 65.1615 4.70488 65.1908 4.57655C65.2202 4.44821 65.2128 4.32171 65.1688 4.19705C65.1248 4.07238 65.0552 3.96788 64.9598 3.88355C64.8645 3.79921 64.7508 3.74971 64.6188 3.73505L61.5388 3.28405L60.1528 0.435048Z" fill="#D1D5DB"/>
</g>
<g clip-path="url(#clip2_322_2126)">
<g clip-path="url(#clip3_322_2126)">
<path d="M6.65284 0.435048C6.59417 0.317714 6.50984 0.224214 6.39984 0.154548C6.28984 0.084881 6.16884 0.0500477 6.03684 0.0500477C5.90484 0.0500477 5.782 0.084881 5.66834 0.154548C5.55467 0.224214 5.4685 0.317714 5.40984 0.435048L4.03484 3.28405L0.943837 3.73505C0.81917 3.74971 0.705503 3.79921 0.602837 3.88355C0.50017 3.96788 0.430503 4.07238 0.393837 4.19705C0.35717 4.32171 0.353503 4.44821 0.382837 4.57655C0.41217 4.70488 0.474503 4.81305 0.569837 4.90105L2.80284 7.12305L2.27484 10.247C2.25284 10.379 2.2675 10.5037 2.31884 10.621C2.37017 10.7384 2.44717 10.8374 2.54984 10.918C2.6525 10.9987 2.76984 11.0427 2.90184 11.05C3.03384 11.0574 3.1585 11.0317 3.27584 10.973L6.03684 9.49905L8.79784 10.973C8.91517 11.0317 9.038 11.0574 9.16634 11.05C9.29467 11.0427 9.41384 11.0005 9.52384 10.9235C9.63384 10.8465 9.71267 10.7475 9.76034 10.6265C9.808 10.5055 9.82084 10.379 9.79884 10.247L9.25984 7.12305L11.5038 4.90105C11.5992 4.81305 11.6615 4.70488 11.6908 4.57655C11.7202 4.44821 11.7128 4.32171 11.6688 4.19705C11.6248 4.07238 11.5552 3.96788 11.4598 3.88355C11.3645 3.79921 11.2508 3.74971 11.1188 3.73505L8.03884 3.28405L6.65284 0.435048Z" fill="#FACC15"/>
<path d="M20.0278 0.435048C19.9692 0.317714 19.8848 0.224214 19.7748 0.154548C19.6648 0.084881 19.5438 0.0500477 19.4118 0.0500477C19.2798 0.0500477 19.157 0.084881 19.0433 0.154548C18.9297 0.224214 18.8435 0.317714 18.7848 0.435048L17.4098 3.28405L14.3188 3.73505C14.1942 3.74971 14.0805 3.79921 13.9778 3.88355C13.8752 3.96788 13.8055 4.07238 13.7688 4.19705C13.7322 4.32171 13.7285 4.44821 13.7578 4.57655C13.7872 4.70488 13.8495 4.81305 13.9448 4.90105L16.1778 7.12305L15.6498 10.247C15.6278 10.379 15.6425 10.5037 15.6938 10.621C15.7452 10.7384 15.8222 10.8374 15.9248 10.918C16.0275 10.9987 16.1448 11.0427 16.2768 11.05C16.4088 11.0574 16.5335 11.0317 16.6508 10.973L19.4118 9.49905L22.1728 10.973C22.2902 11.0317 22.413 11.0574 22.5413 11.05C22.6697 11.0427 22.7888 11.0005 22.8988 10.9235C23.0088 10.8465 23.0877 10.7475 23.1353 10.6265C23.183 10.5055 23.1958 10.379 23.1738 10.247L22.6348 7.12305L24.8788 4.90105C24.9742 4.81305 25.0365 4.70488 25.0658 4.57655C25.0952 4.44821 25.0878 4.32171 25.0438 4.19705C24.9998 4.07238 24.9302 3.96788 24.8348 3.88355C24.7395 3.79921 24.6258 3.74971 24.4938 3.73505L21.4138 3.28405L20.0278 0.435048Z" fill="#FACC15"/>
<path d="M33.4028 0.435048C33.3442 0.317714 33.2598 0.224214 33.1498 0.154548C33.0398 0.084881 32.9188 0.0500477 32.7868 0.0500477C32.6548 0.0500477 32.532 0.084881 32.4183 0.154548C32.3047 0.224214 32.2185 0.317714 32.1598 0.435048L30.7848 3.28405L27.6938 3.73505C27.5692 3.74971 27.4555 3.79921 27.3528 3.88355C27.2502 3.96788 27.1805 4.07238 27.1438 4.19705C27.1072 4.32171 27.1035 4.44821 27.1328 4.57655C27.1622 4.70488 27.2245 4.81305 27.3198 4.90105L29.5528 7.12305L29.0248 10.247C29.0028 10.379 29.0175 10.5037 29.0688 10.621C29.1202 10.7384 29.1972 10.8374 29.2998 10.918C29.4025 10.9987 29.5198 11.0427 29.6518 11.05C29.7838 11.0574 29.9085 11.0317 30.0258 10.973L32.7868 9.49905L35.5478 10.973C35.6652 11.0317 35.788 11.0574 35.9163 11.05C36.0447 11.0427 36.1638 11.0005 36.2738 10.9235C36.3838 10.8465 36.4627 10.7475 36.5103 10.6265C36.558 10.5055 36.5708 10.379 36.5488 10.247L36.0098 7.12305L38.2538 4.90105C38.3492 4.81305 38.4115 4.70488 38.4408 4.57655C38.4702 4.44821 38.4628 4.32171 38.4188 4.19705C38.3748 4.07238 38.3052 3.96788 38.2098 3.88355C38.1145 3.79921 38.0008 3.74971 37.8688 3.73505L34.7888 3.28405L33.4028 0.435048Z" fill="#FACC15"/>
<path d="M46.7778 0.435048C46.7192 0.317714 46.6348 0.224214 46.5248 0.154548C46.4148 0.084881 46.2938 0.0500477 46.1618 0.0500477C46.0298 0.0500477 45.907 0.084881 45.7933 0.154548C45.6797 0.224214 45.5935 0.317714 45.5348 0.435048L44.1598 3.28405L41.0688 3.73505C40.9442 3.74971 40.8305 3.79921 40.7278 3.88355C40.6252 3.96788 40.5555 4.07238 40.5188 4.19705C40.4822 4.32171 40.4785 4.44821 40.5078 4.57655C40.5372 4.70488 40.5995 4.81305 40.6948 4.90105L42.9278 7.12305L42.3998 10.247C42.3778 10.379 42.3925 10.5037 42.4438 10.621C42.4952 10.7384 42.5722 10.8374 42.6748 10.918C42.7775 10.9987 42.8948 11.0427 43.0268 11.05C43.1588 11.0574 43.2835 11.0317 43.4008 10.973L46.1618 9.49905L48.9228 10.973C49.0402 11.0317 49.163 11.0574 49.2913 11.05C49.4197 11.0427 49.5388 11.0005 49.6488 10.9235C49.7588 10.8465 49.8377 10.7475 49.8853 10.6265C49.933 10.5055 49.9458 10.379 49.9238 10.247L49.3848 7.12305L51.6288 4.90105C51.7242 4.81305 51.7865 4.70488 51.8158 4.57655C51.8452 4.44821 51.8378 4.32171 51.7938 4.19705C51.7498 4.07238 51.6802 3.96788 51.5848 3.88355C51.4895 3.79921 51.3758 3.74971 51.2438 3.73505L48.1638 3.28405L46.7778 0.435048Z" fill="#FACC15"/>
</g>
</g>
</g>
<defs>
<clipPath id="clip0_322_2126">
<rect width="66.88" height="11" fill="white" transform="translate(0.360352 0.0500488)"/>
</clipPath>
<clipPath id="clip1_322_2126">
<rect width="66.88" height="11" fill="white" transform="matrix(1 0 0 -1 0.360352 11.05)"/>
</clipPath>
<clipPath id="clip2_322_2126">
<rect width="46.81" height="11" fill="white" transform="translate(0.360352 0.0500488)"/>
</clipPath>
<clipPath id="clip3_322_2126">
<rect width="66.88" height="11" fill="white" transform="matrix(1 0 0 -1 0.360352 11.05)"/>
</clipPath>
</defs>
</svg>
