<svg width="37" height="35" viewBox="0 0 37 35" fill="none" xmlns="http://www.w3.org/2000/svg">
<rect x="0.360352" y="0.55011" width="36" height="34" rx="8" fill="#16A34A"/>
<g clip-path="url(#clip0_322_2142)">
<path d="M25.3004 10.0501H9.06035C8.86035 10.0768 8.69368 10.1701 8.56035 10.3301C8.42702 10.4901 8.36035 10.6701 8.36035 10.8701C8.36035 11.0701 8.42702 11.2534 8.56035 11.4201C8.69368 11.5868 8.86035 11.6834 9.06035 11.7101H12.2804L11.7004 19.0901V19.2301C11.7004 19.6834 11.8637 20.0734 12.1904 20.4001C12.517 20.7268 12.907 20.8901 13.3604 20.8901H23.5804C23.9804 20.8901 24.3304 20.7668 24.6304 20.5201C24.9304 20.2734 25.1204 19.9701 25.2004 19.6101L26.9204 12.0901C26.947 11.9301 26.9604 11.8034 26.9604 11.7101C26.9604 11.2434 26.8004 10.8501 26.4804 10.5301C26.1604 10.2101 25.767 10.0501 25.3004 10.0501ZM23.5804 19.2101H13.3604L13.9404 11.7101H25.3004L23.5804 19.2101ZM14.9004 25.0501C15.367 25.0501 15.7637 24.8868 16.0904 24.5601C16.417 24.2334 16.5804 23.8368 16.5804 23.3701C16.5804 22.9034 16.417 22.5101 16.0904 22.1901C15.7637 21.8701 15.367 21.7101 14.9004 21.7101C14.447 21.7101 14.057 21.8701 13.7304 22.1901C13.4037 22.5101 13.2404 22.9034 13.2404 23.3701C13.2404 23.8368 13.4037 24.2334 13.7304 24.5601C14.057 24.8868 14.447 25.0501 14.9004 25.0501ZM22.4004 25.0501C22.867 25.0501 23.2637 24.8868 23.5904 24.5601C23.917 24.2334 24.0804 23.8368 24.0804 23.3701C24.0804 22.9034 23.917 22.5101 23.5904 22.1901C23.2637 21.8701 22.867 21.7101 22.4004 21.7101C21.947 21.7101 21.557 21.8701 21.2304 22.1901C20.9037 22.5101 20.7404 22.9034 20.7404 23.3701C20.7404 23.8368 20.9037 24.2334 21.2304 24.5601C21.557 24.8868 21.947 25.0501 22.4004 25.0501Z" fill="white"/>
</g>
<defs>
<clipPath id="clip0_322_2142">
<rect width="20" height="20" fill="white" transform="matrix(1 0 0 -1 8.36035 27.5501)"/>
</clipPath>
</defs>
</svg>
