<svg width="36" height="35" viewBox="0 0 36 35" fill="none" xmlns="http://www.w3.org/2000/svg">
<rect y="0.550049" width="36" height="34" rx="8" fill="#16A34A"/>
<path d="M24.94 10.05H8.7C8.5 10.0767 8.33333 10.17 8.2 10.33C8.06667 10.49 8 10.67 8 10.87C8 11.07 8.06667 11.2534 8.2 11.42C8.33333 11.5867 8.5 11.6834 8.7 11.71H11.92L11.34 19.09V19.23C11.34 19.6834 11.5033 20.0734 11.83 20.4C12.1567 20.7267 12.5467 20.89 13 20.89H23.22C23.62 20.89 23.97 20.7667 24.27 20.52C24.57 20.2734 24.76 19.97 24.84 19.61L26.56 12.09C26.5867 11.93 26.6 11.8034 26.6 11.71C26.6 11.2434 26.44 10.85 26.12 10.53C25.8 10.21 25.4067 10.05 24.94 10.05ZM23.22 19.21H13L13.58 11.71H24.94L23.22 19.21ZM14.54 25.05C15.0067 25.05 15.4033 24.8867 15.73 24.56C16.0567 24.2334 16.22 23.8367 16.22 23.37C16.22 22.9034 16.0567 22.51 15.73 22.19C15.4033 21.87 15.0067 21.71 14.54 21.71C14.0867 21.71 13.6967 21.87 13.37 22.19C13.0433 22.51 12.88 22.9034 12.88 23.37C12.88 23.8367 13.0433 24.2334 13.37 24.56C13.6967 24.8867 14.0867 25.05 14.54 25.05ZM22.04 25.05C22.5067 25.05 22.9033 24.8867 23.23 24.56C23.5567 24.2334 23.72 23.8367 23.72 23.37C23.72 22.9034 23.5567 22.51 23.23 22.19C22.9033 21.87 22.5067 21.71 22.04 21.71C21.5867 21.71 21.1967 21.87 20.87 22.19C20.5433 22.51 20.38 22.9034 20.38 23.37C20.38 23.8367 20.5433 24.2334 20.87 24.56C21.1967 24.8867 21.5867 25.05 22.04 25.05Z" fill="white"/>
</svg>
