<svg width="33" height="33" viewBox="0 0 33 33" fill="none" xmlns="http://www.w3.org/2000/svg">
<rect x="0.830078" y="0.0200195" width="32" height="32" rx="16" fill="white"/>
<g clip-path="url(#clip0_322_2351)">
<path d="M18.8114 7.77002C18.0487 7.77002 17.319 7.93502 16.6224 8.26502C15.9257 8.59502 15.3427 9.03869 14.8734 9.59602C14.4187 9.00935 13.8467 8.55835 13.1574 8.24302C12.468 7.92769 11.7274 7.77002 10.9354 7.77002C10.0407 7.77002 9.20468 7.99002 8.42735 8.43002C7.67935 8.85535 7.08535 9.43469 6.64535 10.168C6.20535 10.9014 5.98535 11.6934 5.98535 12.544C5.98535 14.1427 6.41802 15.7194 7.28335 17.274C7.97268 18.5207 8.93335 19.7307 10.1654 20.904C11.0454 21.7547 12.028 22.5394 13.1134 23.258C13.788 23.7274 14.2867 24.0354 14.6094 24.182C14.668 24.2407 14.756 24.27 14.8734 24.27C14.9907 24.27 15.1154 24.2407 15.2474 24.182C15.5994 24.006 16.098 23.698 16.7434 23.258C17.814 22.5394 18.7967 21.7547 19.6914 20.904C20.9087 19.7307 21.862 18.5207 22.5514 17.274C23.4167 15.7194 23.8494 14.1427 23.8494 12.544C23.8494 11.6934 23.622 10.9014 23.1674 10.168C22.7127 9.43469 22.0967 8.85169 21.3194 8.41902C20.542 7.98635 19.706 7.77002 18.8114 7.77002ZM14.8734 22.796C13.9347 22.224 13.0694 21.6154 12.2774 20.97C10.884 19.8407 9.78402 18.6747 8.97735 17.472C7.89202 15.8734 7.34935 14.26 7.34935 12.632C7.34935 12.0014 7.51435 11.4184 7.84435 10.883C8.17435 10.3477 8.61435 9.92235 9.16435 9.60702C9.71435 9.29169 10.3047 9.13402 10.9354 9.13402C11.6687 9.13402 12.3324 9.32469 12.9264 9.70602C13.5204 10.0874 13.9567 10.6007 14.2354 11.246C14.294 11.3927 14.4077 11.4954 14.5764 11.554C14.745 11.6127 14.921 11.6127 15.1044 11.554C15.2877 11.4954 15.4234 11.3927 15.5114 11.246C15.79 10.6007 16.23 10.0874 16.8314 9.70602C17.4327 9.32469 18.0927 9.13402 18.8114 9.13402C19.4714 9.13402 20.0764 9.29169 20.6264 9.60702C21.1764 9.92235 21.609 10.3477 21.9244 10.883C22.2397 11.4184 22.3974 12.0014 22.3974 12.632C22.3974 14.2307 21.8547 15.8294 20.7694 17.428C19.948 18.6307 18.848 19.804 17.4694 20.948C16.648 21.6227 15.7827 22.2387 14.8734 22.796Z" fill="#030712"/>
</g>
<defs>
<clipPath id="clip0_322_2351">
<rect width="21.69" height="22" fill="white" transform="matrix(1 0 0 -1 5.98047 27.02)"/>
</clipPath>
</defs>
</svg>
