<svg width="33" height="33" viewBox="0 0 33 33" fill="none" xmlns="http://www.w3.org/2000/svg">
<rect x="0.689453" y="0.0900879" width="32" height="32" rx="16" fill="white"/>
<g clip-path="url(#clip0_322_2061)">
<path d="M18.6707 7.84009C17.9081 7.84009 17.1784 8.00509 16.4817 8.33509C15.7851 8.66509 15.2021 9.10875 14.7327 9.66609C14.2781 9.07942 13.7061 8.62842 13.0167 8.31309C12.3274 7.99775 11.5867 7.84009 10.7947 7.84009C9.90006 7.84009 9.06406 8.06009 8.28673 8.50009C7.53873 8.92542 6.94473 9.50475 6.50473 10.2381C6.06473 10.9714 5.84473 11.7634 5.84473 12.6141C5.84473 14.2128 6.27739 15.7894 7.14273 17.3441C7.83206 18.5908 8.79273 19.8008 10.0247 20.9741C10.9047 21.8248 11.8874 22.6094 12.9727 23.3281C13.6474 23.7974 14.1461 24.1054 14.4687 24.2521C14.5274 24.3108 14.6154 24.3401 14.7327 24.3401C14.8501 24.3401 14.9747 24.3108 15.1067 24.2521C15.4587 24.0761 15.9574 23.7681 16.6027 23.3281C17.6734 22.6094 18.6561 21.8248 19.5507 20.9741C20.7681 19.8008 21.7214 18.5908 22.4107 17.3441C23.2761 15.7894 23.7087 14.2128 23.7087 12.6141C23.7087 11.7634 23.4814 10.9714 23.0267 10.2381C22.5721 9.50475 21.9561 8.92175 21.1787 8.48909C20.4014 8.05642 19.5654 7.84009 18.6707 7.84009ZM14.7327 22.8661C13.7941 22.2941 12.9287 21.6854 12.1367 21.0401C10.7434 19.9108 9.64339 18.7448 8.83673 17.5421C7.75139 15.9434 7.20873 14.3301 7.20873 12.7021C7.20873 12.0714 7.37373 11.4884 7.70373 10.9531C8.03373 10.4178 8.47373 9.99242 9.02373 9.67709C9.57373 9.36175 10.1641 9.20409 10.7947 9.20409C11.5281 9.20409 12.1917 9.39475 12.7857 9.77609C13.3797 10.1574 13.8161 10.6708 14.0947 11.3161C14.1534 11.4628 14.2671 11.5654 14.4357 11.6241C14.6044 11.6828 14.7804 11.6828 14.9637 11.6241C15.1471 11.5654 15.2827 11.4628 15.3707 11.3161C15.6494 10.6708 16.0894 10.1574 16.6907 9.77609C17.2921 9.39475 17.9521 9.20409 18.6707 9.20409C19.3307 9.20409 19.9357 9.36175 20.4857 9.67709C21.0357 9.99242 21.4684 10.4178 21.7837 10.9531C22.0991 11.4884 22.2567 12.0714 22.2567 12.7021C22.2567 14.3008 21.7141 15.8994 20.6287 17.4981C19.8074 18.7008 18.7074 19.8741 17.3287 21.0181C16.5074 21.6928 15.6421 22.3088 14.7327 22.8661Z" fill="#030712"/>
</g>
<defs>
<clipPath id="clip0_322_2061">
<rect width="21.69" height="22" fill="white" transform="matrix(1 0 0 -1 5.83984 27.0901)"/>
</clipPath>
</defs>
</svg>
