<svg width="27" height="26" viewBox="0 0 27 26" fill="none" xmlns="http://www.w3.org/2000/svg">
<g clip-path="url(#clip0_322_2713)">
<path d="M7.44043 5.40804C6.66043 5.40804 5.93676 5.60304 5.26943 5.99304C4.6021 6.38304 4.07343 6.91171 3.68343 7.57904C3.29343 8.24637 3.09843 8.97004 3.09843 9.75004C3.09843 11.5354 3.60976 13.234 4.63243 14.846C5.46443 16.198 6.62576 17.4634 8.11643 18.642C9.4511 19.734 10.9851 20.696 12.7184 21.528L12.8484 21.58C14.6338 20.7307 16.2284 19.7427 17.6324 18.616L17.5804 18.642C19.0711 17.4634 20.2324 16.198 21.0644 14.846C22.0871 13.234 22.5984 11.5354 22.5984 9.75004C22.5984 8.97004 22.4034 8.24637 22.0134 7.57904C21.6234 6.91171 21.0948 6.38304 20.4274 5.99304C19.7601 5.60304 19.0364 5.40804 18.2564 5.40804C17.5631 5.40804 16.9088 5.55971 16.2934 5.86304C15.6781 6.16637 15.1581 6.58237 14.7334 7.11104C14.3088 7.63971 14.0358 8.23337 13.9144 8.89204C13.8624 9.13471 13.7368 9.33837 13.5374 9.50304C13.3381 9.66771 13.1084 9.75004 12.8484 9.75004C12.5884 9.75004 12.3588 9.66771 12.1594 9.50304C11.9601 9.33837 11.8344 9.13471 11.7824 8.89204C11.6611 8.23337 11.3881 7.63971 10.9634 7.11104C10.5388 6.58237 10.0188 6.16637 9.40343 5.86304C8.7881 5.55971 8.13376 5.40804 7.44043 5.40804ZM12.8484 23.842C12.6924 23.8247 12.5364 23.79 12.3804 23.738C12.2938 23.7034 12.1464 23.634 11.9384 23.53C10.0318 22.6287 8.28976 21.5454 6.71243 20.28L6.76443 20.332C5.0831 19.0147 3.7571 17.576 2.78643 16.016C1.55576 14.04 0.94043 11.9514 0.94043 9.75004C0.94043 8.57137 1.23076 7.48371 1.81143 6.48704C2.3921 5.49037 3.18076 4.70171 4.17743 4.12104C5.1741 3.54037 6.26176 3.25004 7.44043 3.25004C8.53243 3.25004 9.55076 3.49704 10.4954 3.99104C11.4401 4.48504 12.2244 5.15671 12.8484 6.00604V6.03204C13.4724 5.16537 14.2568 4.48504 15.2014 3.99104C16.1461 3.49704 17.1644 3.25004 18.2564 3.25004C19.4351 3.25004 20.5228 3.54037 21.5194 4.12104C22.5161 4.70171 23.3048 5.49037 23.8854 6.48704C24.4661 7.48371 24.7564 8.57137 24.7564 9.75004C24.7564 11.9514 24.1411 14.04 22.9104 16.016C21.9398 17.576 20.6138 19.0147 18.9324 20.332C17.3898 21.5454 15.7171 22.594 13.9144 23.478L13.7584 23.53C13.3424 23.738 13.0391 23.842 12.8484 23.842Z" fill="#030712"/>
</g>
<defs>
<clipPath id="clip0_322_2713">
<rect width="26" height="26" fill="white" transform="matrix(1 0 0 -1 0.780273 26)"/>
</clipPath>
</defs>
</svg>
