<svg width="27" height="26" viewBox="0 0 27 26" fill="none" xmlns="http://www.w3.org/2000/svg">
<g clip-path="url(#clip0_322_2718)">
<path d="M22.6519 3.25H1.53988C1.27988 3.28467 1.06322 3.406 0.889883 3.614C0.716549 3.822 0.629883 4.056 0.629883 4.316C0.629883 4.576 0.716549 4.81433 0.889883 5.031C1.06322 5.24767 1.27988 5.37333 1.53988 5.408H5.72588L4.97188 15.002V15.184C4.97188 15.7733 5.18422 16.2803 5.60888 16.705C6.03355 17.1297 6.54055 17.342 7.12988 17.342H20.4159C20.9359 17.342 21.3909 17.1817 21.7809 16.861C22.1709 16.5403 22.4179 16.146 22.5219 15.678L24.7579 5.902C24.7925 5.694 24.8099 5.52933 24.8099 5.408C24.8099 4.80133 24.6019 4.29 24.1859 3.874C23.7699 3.458 23.2585 3.25 22.6519 3.25ZM20.4159 15.158H7.12988L7.88388 5.408H22.6519L20.4159 15.158ZM9.13188 22.75C9.73855 22.75 10.2542 22.5377 10.6789 22.113C11.1035 21.6883 11.3159 21.1727 11.3159 20.566C11.3159 19.9593 11.1035 19.448 10.6789 19.032C10.2542 18.616 9.73855 18.408 9.13188 18.408C8.54255 18.408 8.03555 18.616 7.61088 19.032C7.18622 19.448 6.97388 19.9593 6.97388 20.566C6.97388 21.1727 7.18622 21.6883 7.61088 22.113C8.03555 22.5377 8.54255 22.75 9.13188 22.75ZM18.8819 22.75C19.4885 22.75 20.0042 22.5377 20.4289 22.113C20.8535 21.6883 21.0659 21.1727 21.0659 20.566C21.0659 19.9593 20.8535 19.448 20.4289 19.032C20.0042 18.616 19.4885 18.408 18.8819 18.408C18.2925 18.408 17.7855 18.616 17.3609 19.032C16.9362 19.448 16.7239 19.9593 16.7239 20.566C16.7239 21.1727 16.9362 21.6883 17.3609 22.113C17.7855 22.5377 18.2925 22.75 18.8819 22.75Z" fill="#030712"/>
</g>
<defs>
<clipPath id="clip0_322_2718">
<rect width="26" height="26" fill="white" transform="matrix(1 0 0 -1 0.469727 26)"/>
</clipPath>
</defs>
</svg>
