<svg width="33" height="33" viewBox="0 0 33 33" fill="none" xmlns="http://www.w3.org/2000/svg">
<rect x="0.0302734" y="0.0900879" width="32" height="32" rx="16" fill="white"/>
<g clip-path="url(#clip0_322_2120)">
<path d="M18.0213 7.84009C17.2586 7.84009 16.529 8.00509 15.8323 8.33509C15.1356 8.66509 14.5526 9.10875 14.0833 9.66609C13.6286 9.07942 13.0566 8.62842 12.3673 8.31309C11.678 7.99775 10.9373 7.84009 10.1453 7.84009C9.25065 7.84009 8.41465 8.06009 7.63731 8.50009C6.88931 8.92542 6.29531 9.50475 5.85531 10.2381C5.41531 10.9714 5.19531 11.7634 5.19531 12.6141C5.19531 14.2128 5.62798 15.7894 6.49331 17.3441C7.18265 18.5908 8.14331 19.8008 9.37531 20.9741C10.2553 21.8248 11.238 22.6094 12.3233 23.3281C12.998 23.7974 13.4966 24.1054 13.8193 24.2521C13.878 24.3108 13.966 24.3401 14.0833 24.3401C14.2006 24.3401 14.3253 24.3108 14.4573 24.2521C14.8093 24.0761 15.308 23.7681 15.9533 23.3281C17.024 22.6094 18.0066 21.8248 18.9013 20.9741C20.1186 19.8008 21.072 18.5908 21.7613 17.3441C22.6266 15.7894 23.0593 14.2128 23.0593 12.6141C23.0593 11.7634 22.832 10.9714 22.3773 10.2381C21.9226 9.50475 21.3066 8.92175 20.5293 8.48909C19.752 8.05642 18.916 7.84009 18.0213 7.84009ZM14.0833 22.8661C13.1446 22.2941 12.2793 21.6854 11.4873 21.0401C10.094 19.9108 8.99398 18.7448 8.18731 17.5421C7.10198 15.9434 6.55931 14.3301 6.55931 12.7021C6.55931 12.0714 6.72431 11.4884 7.05431 10.9531C7.38431 10.4178 7.82431 9.99242 8.37431 9.67709C8.92431 9.36175 9.51465 9.20409 10.1453 9.20409C10.8786 9.20409 11.5423 9.39475 12.1363 9.77609C12.7303 10.1574 13.1666 10.6708 13.4453 11.3161C13.504 11.4628 13.6176 11.5654 13.7863 11.6241C13.955 11.6828 14.131 11.6828 14.3143 11.6241C14.4976 11.5654 14.6333 11.4628 14.7213 11.3161C15 10.6708 15.44 10.1574 16.0413 9.77609C16.6426 9.39475 17.3026 9.20409 18.0213 9.20409C18.6813 9.20409 19.2863 9.36175 19.8363 9.67709C20.3863 9.99242 20.819 10.4178 21.1343 10.9531C21.4496 11.4884 21.6073 12.0714 21.6073 12.7021C21.6073 14.3008 21.0646 15.8994 19.9793 17.4981C19.158 18.7008 18.058 19.8741 16.6793 21.0181C15.858 21.6928 14.9926 22.3088 14.0833 22.8661Z" fill="#030712"/>
</g>
<defs>
<clipPath id="clip0_322_2120">
<rect width="21.69" height="22" fill="white" transform="matrix(1 0 0 -1 5.19043 27.0901)"/>
</clipPath>
</defs>
</svg>
