<svg width="33" height="33" viewBox="0 0 33 33" fill="none" xmlns="http://www.w3.org/2000/svg">
<rect x="0.0195312" y="0.0900879" width="32" height="32" rx="16" fill="white"/>
<g clip-path="url(#clip0_322_2031)">
<path d="M18.0008 7.84009C17.2381 7.84009 16.5085 8.00509 15.8118 8.33509C15.1151 8.66509 14.5321 9.10875 14.0628 9.66609C13.6081 9.07942 13.0361 8.62842 12.3468 8.31309C11.6575 7.99775 10.9168 7.84009 10.1248 7.84009C9.23014 7.84009 8.39414 8.06009 7.6168 8.50009C6.8688 8.92542 6.2748 9.50475 5.8348 10.2381C5.3948 10.9714 5.1748 11.7634 5.1748 12.6141C5.1748 14.2128 5.60747 15.7894 6.4728 17.3441C7.16214 18.5908 8.1228 19.8008 9.3548 20.9741C10.2348 21.8248 11.2175 22.6094 12.3028 23.3281C12.9775 23.7974 13.4761 24.1054 13.7988 24.2521C13.8575 24.3108 13.9455 24.3401 14.0628 24.3401C14.1801 24.3401 14.3048 24.3108 14.4368 24.2521C14.7888 24.0761 15.2875 23.7681 15.9328 23.3281C17.0035 22.6094 17.9861 21.8248 18.8808 20.9741C20.0981 19.8008 21.0515 18.5908 21.7408 17.3441C22.6061 15.7894 23.0388 14.2128 23.0388 12.6141C23.0388 11.7634 22.8115 10.9714 22.3568 10.2381C21.9021 9.50475 21.2861 8.92175 20.5088 8.48909C19.7315 8.05642 18.8955 7.84009 18.0008 7.84009ZM14.0628 22.8661C13.1241 22.2941 12.2588 21.6854 11.4668 21.0401C10.0735 19.9108 8.97347 18.7448 8.1668 17.5421C7.08147 15.9434 6.5388 14.3301 6.5388 12.7021C6.5388 12.0714 6.7038 11.4884 7.0338 10.9531C7.3638 10.4178 7.8038 9.99242 8.3538 9.67709C8.9038 9.36175 9.49414 9.20409 10.1248 9.20409C10.8581 9.20409 11.5218 9.39475 12.1158 9.77609C12.7098 10.1574 13.1461 10.6708 13.4248 11.3161C13.4835 11.4628 13.5971 11.5654 13.7658 11.6241C13.9345 11.6828 14.1105 11.6828 14.2938 11.6241C14.4771 11.5654 14.6128 11.4628 14.7008 11.3161C14.9795 10.6708 15.4195 10.1574 16.0208 9.77609C16.6221 9.39475 17.2821 9.20409 18.0008 9.20409C18.6608 9.20409 19.2658 9.36175 19.8158 9.67709C20.3658 9.99242 20.7985 10.4178 21.1138 10.9531C21.4291 11.4884 21.5868 12.0714 21.5868 12.7021C21.5868 14.3008 21.0441 15.8994 19.9588 17.4981C19.1375 18.7008 18.0375 19.8741 16.6588 21.0181C15.8375 21.6928 14.9721 22.3088 14.0628 22.8661Z" fill="#030712"/>
</g>
<defs>
<clipPath id="clip0_322_2031">
<rect width="21.69" height="22" fill="white" transform="matrix(1 0 0 -1 5.16992 27.0901)"/>
</clipPath>
</defs>
</svg>
