<svg width="32" height="33" viewBox="0 0 32 33" fill="none" xmlns="http://www.w3.org/2000/svg">
<rect y="0.590088" width="32" height="32" rx="16" fill="#634C9F"/>
<g clip-path="url(#clip0_322_1647)">
<path d="M17.872 16.126H13.728V11.918C13.728 11.7794 13.68 11.6567 13.584 11.55C13.488 11.4434 13.36 11.39 13.2 11.39C13.04 11.39 12.912 11.4434 12.816 11.55C12.72 11.6567 12.672 11.7794 12.672 11.918V16.062H8.528C8.38933 16.062 8.26667 16.11 8.16 16.206C8.05333 16.302 8 16.4327 8 16.598C8 16.7634 8.048 16.8914 8.144 16.982C8.24 17.0727 8.368 17.118 8.528 17.118H12.672V21.262C12.672 21.4007 12.72 21.5234 12.816 21.63C12.912 21.7367 13.0427 21.79 13.208 21.79C13.3733 21.79 13.5013 21.742 13.592 21.646C13.6827 21.55 13.728 21.422 13.728 21.262V17.118H17.872C18.0107 17.118 18.1333 17.07 18.24 16.974C18.3467 16.878 18.4 16.75 18.4 16.59C18.4 16.43 18.3493 16.3127 18.248 16.238C18.1467 16.1634 18.0213 16.126 17.872 16.126Z" fill="white"/>
</g>
<defs>
<clipPath id="clip0_322_1647">
<rect width="16" height="16" fill="white" transform="matrix(1 0 0 -1 8 24.5901)"/>
</clipPath>
</defs>
</svg>
