<svg width="33" height="33" viewBox="0 0 33 33" fill="none" xmlns="http://www.w3.org/2000/svg">
<rect x="0.669922" y="0.0900879" width="32" height="32" rx="16" fill="white"/>
<g clip-path="url(#clip0_322_1964)">
<path d="M18.661 7.84009C17.8983 7.84009 17.1686 8.00509 16.472 8.33509C15.7753 8.66509 15.1923 9.10875 14.723 9.66609C14.2683 9.07942 13.6963 8.62842 13.007 8.31309C12.3176 7.99775 11.577 7.84009 10.785 7.84009C9.89029 7.84009 9.05429 8.06009 8.27696 8.50009C7.52896 8.92542 6.93496 9.50475 6.49496 10.2381C6.05496 10.9714 5.83496 11.7634 5.83496 12.6141C5.83496 14.2128 6.26763 15.7894 7.13296 17.3441C7.82229 18.5908 8.78296 19.8008 10.015 20.9741C10.895 21.8248 11.8776 22.6094 12.963 23.3281C13.6376 23.7974 14.1363 24.1054 14.459 24.2521C14.5176 24.3108 14.6056 24.3401 14.723 24.3401C14.8403 24.3401 14.965 24.3108 15.097 24.2521C15.449 24.0761 15.9476 23.7681 16.593 23.3281C17.6636 22.6094 18.6463 21.8248 19.541 20.9741C20.7583 19.8008 21.7116 18.5908 22.401 17.3441C23.2663 15.7894 23.699 14.2128 23.699 12.6141C23.699 11.7634 23.4716 10.9714 23.017 10.2381C22.5623 9.50475 21.9463 8.92175 21.169 8.48909C20.3916 8.05642 19.5556 7.84009 18.661 7.84009ZM14.723 22.8661C13.7843 22.2941 12.919 21.6854 12.127 21.0401C10.7336 19.9108 9.63363 18.7448 8.82696 17.5421C7.74163 15.9434 7.19896 14.3301 7.19896 12.7021C7.19896 12.0714 7.36396 11.4884 7.69396 10.9531C8.02396 10.4178 8.46396 9.99242 9.01396 9.67709C9.56396 9.36175 10.1543 9.20409 10.785 9.20409C11.5183 9.20409 12.182 9.39475 12.776 9.77609C13.37 10.1574 13.8063 10.6708 14.085 11.3161C14.1436 11.4628 14.2573 11.5654 14.426 11.6241C14.5946 11.6828 14.7706 11.6828 14.954 11.6241C15.1373 11.5654 15.273 11.4628 15.361 11.3161C15.6396 10.6708 16.0796 10.1574 16.681 9.77609C17.2823 9.39475 17.9423 9.20409 18.661 9.20409C19.321 9.20409 19.926 9.36175 20.476 9.67709C21.026 9.99242 21.4586 10.4178 21.774 10.9531C22.0893 11.4884 22.247 12.0714 22.247 12.7021C22.247 14.3008 21.7043 15.8994 20.619 17.4981C19.7976 18.7008 18.6976 19.8741 17.319 21.0181C16.4976 21.6928 15.6323 22.3088 14.723 22.8661Z" fill="#030712"/>
</g>
<defs>
<clipPath id="clip0_322_1964">
<rect width="21.69" height="22" fill="white" transform="matrix(1 0 0 -1 5.83008 27.0901)"/>
</clipPath>
</defs>
</svg>
