<svg width="27" height="26" viewBox="0 0 27 26" fill="none" xmlns="http://www.w3.org/2000/svg">
<g clip-path="url(#clip0_322_2710)">
<path d="M12.704 11.102C11.872 11.6394 10.9707 11.908 10 11.908C9.35867 11.908 8.739 11.7824 8.141 11.531C7.543 11.2797 7.01433 10.9287 6.555 10.478C6.09567 10.0274 5.74467 9.50304 5.502 8.90504C5.25933 8.30704 5.138 7.68738 5.138 7.04604C5.138 6.04071 5.411 5.13071 5.957 4.31604C6.503 3.50138 7.22233 2.90771 8.115 2.53504C9.00767 2.16238 9.95667 2.07138 10.962 2.26204C11.898 2.43538 12.7213 2.87304 13.432 3.57504C14.1427 4.27704 14.589 5.10904 14.771 6.07104C14.953 7.03304 14.862 7.97338 14.498 8.89204C14.134 9.81071 13.536 10.5474 12.704 11.102ZM11.508 4.78404C11.0573 4.48938 10.5547 4.34204 10 4.34204C9.272 4.34204 8.63067 4.60204 8.076 5.12204C7.556 5.67671 7.296 6.31804 7.296 7.04604C7.296 7.60071 7.44767 8.10338 7.751 8.55404C8.05433 9.00471 8.45733 9.33404 8.96 9.54204C9.46267 9.75004 9.98267 9.80204 10.52 9.69804C11.0573 9.59404 11.521 9.34704 11.911 8.95704C12.301 8.56704 12.548 8.10338 12.652 7.56604C12.756 7.02871 12.704 6.50871 12.496 6.00604C12.288 5.50338 11.9587 5.09604 11.508 4.78404ZM3.11 15.86C4.01133 14.9414 5.06 14.235 6.256 13.741C7.452 13.247 8.7 13 10 13C11.3 13 12.548 13.247 13.744 13.741C14.94 14.235 15.993 14.937 16.903 15.847C17.813 16.757 18.515 17.81 19.009 19.006C19.503 20.202 19.75 21.45 19.75 22.75C19.75 23.062 19.6373 23.322 19.412 23.53C19.1867 23.738 18.9353 23.842 18.658 23.842H13.25C12.9553 23.842 12.6997 23.7337 12.483 23.517C12.2663 23.3004 12.158 23.0447 12.158 22.75C12.158 22.4554 12.2663 22.1997 12.483 21.983C12.6997 21.7664 12.9553 21.658 13.25 21.658H17.514C17.3753 20.7567 17.0893 19.903 16.656 19.097C16.2227 18.291 15.6593 17.5934 14.966 17.004C14.2727 16.4147 13.5013 15.9597 12.652 15.639C11.8027 15.3184 10.9187 15.158 10 15.158C9.08133 15.158 8.19733 15.3184 7.348 15.639C6.49867 15.9597 5.72733 16.4147 5.034 17.004C4.34067 17.5934 3.77733 18.291 3.344 19.097C2.91067 19.903 2.62467 20.7567 2.486 21.658H6.75C7.02733 21.658 7.28733 21.762 7.53 21.97C7.738 22.2127 7.842 22.4727 7.842 22.75C7.842 23.0274 7.738 23.2874 7.53 23.53C7.28733 23.738 7.02733 23.842 6.75 23.842H1.342C1.06467 23.842 0.813333 23.738 0.588 23.53C0.362667 23.322 0.25 23.062 0.25 22.75C0.25 21.45 0.497 20.2064 0.991 19.019C1.485 17.8317 2.19133 16.7787 3.11 15.86Z" fill="#030712"/>
</g>
<defs>
<clipPath id="clip0_322_2710">
<rect width="26" height="26" fill="white" transform="matrix(1 0 0 -1 0.0898438 26)"/>
</clipPath>
</defs>
</svg>
