<svg width="32" height="33" viewBox="0 0 32 33" fill="none" xmlns="http://www.w3.org/2000/svg">
<rect y="0.590088" width="32" height="32" rx="16" fill="white"/>
<g clip-path="url(#clip0_322_1644)">
<path d="M17.991 8.34009C17.2284 8.34009 16.4987 8.50509 15.802 8.83509C15.1054 9.16509 14.5224 9.60875 14.053 10.1661C13.5984 9.57942 13.0264 9.12842 12.337 8.81309C11.6477 8.49775 10.907 8.34009 10.115 8.34009C9.22037 8.34009 8.38437 8.56009 7.60704 9.00009C6.85904 9.42542 6.26504 10.0048 5.82504 10.7381C5.38504 11.4714 5.16504 12.2634 5.16504 13.1141C5.16504 14.7128 5.59771 16.2894 6.46304 17.8441C7.15237 19.0908 8.11304 20.3008 9.34504 21.4741C10.225 22.3248 11.2077 23.1094 12.293 23.8281C12.9677 24.2974 13.4664 24.6054 13.789 24.7521C13.8477 24.8108 13.9357 24.8401 14.053 24.8401C14.1704 24.8401 14.295 24.8108 14.427 24.7521C14.779 24.5761 15.2777 24.2681 15.923 23.8281C16.9937 23.1094 17.9764 22.3248 18.871 21.4741C20.0884 20.3008 21.0417 19.0908 21.731 17.8441C22.5964 16.2894 23.029 14.7128 23.029 13.1141C23.029 12.2634 22.8017 11.4714 22.347 10.7381C21.8924 10.0048 21.2764 9.42175 20.499 8.98909C19.7217 8.55642 18.8857 8.34009 17.991 8.34009ZM14.053 23.3661C13.1144 22.7941 12.249 22.1854 11.457 21.5401C10.0637 20.4108 8.96371 19.2448 8.15704 18.0421C7.07171 16.4434 6.52904 14.8301 6.52904 13.2021C6.52904 12.5714 6.69404 11.9884 7.02404 11.4531C7.35404 10.9178 7.79404 10.4924 8.34404 10.1771C8.89404 9.86175 9.48437 9.70409 10.115 9.70409C10.8484 9.70409 11.512 9.89475 12.106 10.2761C12.7 10.6574 13.1364 11.1708 13.415 11.8161C13.4737 11.9628 13.5874 12.0654 13.756 12.1241C13.9247 12.1828 14.1007 12.1828 14.284 12.1241C14.4674 12.0654 14.603 11.9628 14.691 11.8161C14.9697 11.1708 15.4097 10.6574 16.011 10.2761C16.6124 9.89475 17.2724 9.70409 17.991 9.70409C18.651 9.70409 19.256 9.86175 19.806 10.1771C20.356 10.4924 20.7887 10.9178 21.104 11.4531C21.4194 11.9884 21.577 12.5714 21.577 13.2021C21.577 14.8008 21.0344 16.3994 19.949 17.9981C19.1277 19.2008 18.0277 20.3741 16.649 21.5181C15.8277 22.1928 14.9624 22.8088 14.053 23.3661Z" fill="#030712"/>
</g>
<defs>
<clipPath id="clip0_322_1644">
<rect width="21.69" height="22" fill="white" transform="matrix(1 0 0 -1 5.16016 27.5901)"/>
</clipPath>
</defs>
</svg>
