<svg width="33" height="33" viewBox="0 0 33 33" fill="none" xmlns="http://www.w3.org/2000/svg">
<rect x="0.660156" y="0.540039" width="32" height="32" rx="16" fill="white"/>
<g clip-path="url(#clip0_322_2310)">
<path d="M15.6414 8.29004C14.8788 8.29004 14.1491 8.45504 13.4524 8.78504C12.7558 9.11504 12.1728 9.55871 11.7034 10.116C11.2488 9.52937 10.6768 9.07837 9.98743 8.76304C9.2981 8.44771 8.55743 8.29004 7.76543 8.29004C6.87076 8.29004 6.03476 8.51004 5.25743 8.95004C4.50943 9.37537 3.91543 9.95471 3.47543 10.688C3.03543 11.4214 2.81543 12.2134 2.81543 13.064C2.81543 14.6627 3.2481 16.2394 4.11343 17.794C4.80276 19.0407 5.76343 20.2507 6.99543 21.424C7.87543 22.2747 8.8581 23.0594 9.94343 23.778C10.6181 24.2474 11.1168 24.5554 11.4394 24.702C11.4981 24.7607 11.5861 24.79 11.7034 24.79C11.8208 24.79 11.9454 24.7607 12.0774 24.702C12.4294 24.526 12.9281 24.218 13.5734 23.778C14.6441 23.0594 15.6268 22.2747 16.5214 21.424C17.7388 20.2507 18.6921 19.0407 19.3814 17.794C20.2468 16.2394 20.6794 14.6627 20.6794 13.064C20.6794 12.2134 20.4521 11.4214 19.9974 10.688C19.5428 9.95471 18.9268 9.37171 18.1494 8.93904C17.3721 8.50637 16.5361 8.29004 15.6414 8.29004ZM11.7034 23.316C10.7648 22.744 9.89943 22.1354 9.10743 21.49C7.7141 20.3607 6.6141 19.1947 5.80743 17.992C4.7221 16.3934 4.17943 14.78 4.17943 13.152C4.17943 12.5214 4.34443 11.9384 4.67443 11.403C5.00443 10.8677 5.44443 10.4424 5.99443 10.127C6.54443 9.81171 7.13476 9.65404 7.76543 9.65404C8.49876 9.65404 9.16243 9.84471 9.75643 10.226C10.3504 10.6074 10.7868 11.1207 11.0654 11.766C11.1241 11.9127 11.2378 12.0154 11.4064 12.074C11.5751 12.1327 11.7511 12.1327 11.9344 12.074C12.1178 12.0154 12.2534 11.9127 12.3414 11.766C12.6201 11.1207 13.0601 10.6074 13.6614 10.226C14.2628 9.84471 14.9228 9.65404 15.6414 9.65404C16.3014 9.65404 16.9064 9.81171 17.4564 10.127C18.0064 10.4424 18.4391 10.8677 18.7544 11.403C19.0698 11.9384 19.2274 12.5214 19.2274 13.152C19.2274 14.7507 18.6848 16.3494 17.5994 17.948C16.7781 19.1507 15.6781 20.324 14.2994 21.468C13.4781 22.1427 12.6128 22.7587 11.7034 23.316Z" fill="#030712"/>
</g>
<defs>
<clipPath id="clip0_322_2310">
<rect width="21.69" height="22" fill="white" transform="matrix(1 0 0 -1 2.81055 27.54)"/>
</clipPath>
</defs>
</svg>
