<svg width="33" height="33" viewBox="0 0 33 33" fill="none" xmlns="http://www.w3.org/2000/svg">
<rect x="0.169922" y="0.0200195" width="32" height="32" rx="16" fill="white"/>
<g clip-path="url(#clip0_322_2178)">
<path d="M18.161 7.77002C17.3983 7.77002 16.6686 7.93502 15.972 8.26502C15.2753 8.59502 14.6923 9.03869 14.223 9.59602C13.7683 9.00935 13.1963 8.55835 12.507 8.24302C11.8176 7.92769 11.077 7.77002 10.285 7.77002C9.39029 7.77002 8.55429 7.99002 7.77696 8.43002C7.02896 8.85535 6.43496 9.43469 5.99496 10.168C5.55496 10.9014 5.33496 11.6934 5.33496 12.544C5.33496 14.1427 5.76763 15.7194 6.63296 17.274C7.32229 18.5207 8.28296 19.7307 9.51496 20.904C10.395 21.7547 11.3776 22.5394 12.463 23.258C13.1376 23.7274 13.6363 24.0354 13.959 24.182C14.0176 24.2407 14.1056 24.27 14.223 24.27C14.3403 24.27 14.465 24.2407 14.597 24.182C14.949 24.006 15.4476 23.698 16.093 23.258C17.1636 22.5394 18.1463 21.7547 19.041 20.904C20.2583 19.7307 21.2116 18.5207 21.901 17.274C22.7663 15.7194 23.199 14.1427 23.199 12.544C23.199 11.6934 22.9716 10.9014 22.517 10.168C22.0623 9.43469 21.4463 8.85169 20.669 8.41902C19.8916 7.98635 19.0556 7.77002 18.161 7.77002ZM14.223 22.796C13.2843 22.224 12.419 21.6154 11.627 20.97C10.2336 19.8407 9.13363 18.6747 8.32696 17.472C7.24163 15.8734 6.69896 14.26 6.69896 12.632C6.69896 12.0014 6.86396 11.4184 7.19396 10.883C7.52396 10.3477 7.96396 9.92235 8.51396 9.60702C9.06396 9.29169 9.65429 9.13402 10.285 9.13402C11.0183 9.13402 11.682 9.32469 12.276 9.70602C12.87 10.0874 13.3063 10.6007 13.585 11.246C13.6436 11.3927 13.7573 11.4954 13.926 11.554C14.0946 11.6127 14.2706 11.6127 14.454 11.554C14.6373 11.4954 14.773 11.3927 14.861 11.246C15.1396 10.6007 15.5796 10.0874 16.181 9.70602C16.7823 9.32469 17.4423 9.13402 18.161 9.13402C18.821 9.13402 19.426 9.29169 19.976 9.60702C20.526 9.92235 20.9586 10.3477 21.274 10.883C21.5893 11.4184 21.747 12.0014 21.747 12.632C21.747 14.2307 21.2043 15.8294 20.119 17.428C19.2976 18.6307 18.1976 19.804 16.819 20.948C15.9976 21.6227 15.1323 22.2387 14.223 22.796Z" fill="#030712"/>
</g>
<defs>
<clipPath id="clip0_322_2178">
<rect width="21.69" height="22" fill="white" transform="matrix(1 0 0 -1 5.33008 27.02)"/>
</clipPath>
</defs>
</svg>
