<svg width="37" height="37" viewBox="0 0 37 37" fill="none" xmlns="http://www.w3.org/2000/svg">
<rect x="0.5" y="0.0599365" width="36" height="36" rx="6" fill="white"/>
<g clip-path="url(#clip0_322_2633)">
<path d="M24.6152 14.9999C24.6252 15.0899 24.6302 15.2249 24.6302 15.4049C24.6302 16.4449 24.4402 17.4699 24.0602 18.4799C23.6702 19.5399 23.1102 20.4799 22.3802 21.2999C21.6002 22.1799 20.6852 22.8649 19.6352 23.3549C18.4952 23.8849 17.2452 24.1499 15.8852 24.1499C15.0252 24.1499 14.1952 24.0324 13.3952 23.7974C12.5952 23.5624 11.8502 23.2199 11.1602 22.7699C11.4202 22.7999 11.6702 22.8149 11.9102 22.8149C12.6102 22.8149 13.2877 22.6999 13.9427 22.4699C14.5977 22.2399 15.1902 21.9149 15.7202 21.4949C15.0502 21.4849 14.4527 21.2799 13.9277 20.8799C13.4027 20.4799 13.0402 19.9749 12.8402 19.3649C13.0402 19.3949 13.2352 19.4099 13.4252 19.4099C13.7252 19.4099 13.9952 19.3749 14.2352 19.3049C13.7652 19.2149 13.3452 19.0249 12.9752 18.7349C12.6052 18.4449 12.3127 18.0874 12.0977 17.6624C11.8827 17.2374 11.7752 16.7799 11.7752 16.2899V16.2449C12.1852 16.4849 12.6452 16.6149 13.1552 16.6349C12.7352 16.3649 12.4027 16.0024 12.1577 15.5474C11.9127 15.0924 11.7902 14.6049 11.7902 14.0849C11.7902 13.5249 11.9302 13.0049 12.2102 12.5249C12.9802 13.4749 13.9052 14.2299 14.9852 14.7899C16.0952 15.3599 17.2802 15.6799 18.5402 15.7499C18.4902 15.4999 18.4652 15.2649 18.4652 15.0449C18.4652 14.4849 18.6027 13.9699 18.8777 13.4999C19.1527 13.0299 19.5252 12.6574 19.9952 12.3824C20.4652 12.1074 20.9802 11.9699 21.5402 11.9699C21.9802 11.9699 22.3952 12.0574 22.7852 12.2324C23.1752 12.4074 23.5102 12.6449 23.7902 12.9449C24.5002 12.8049 25.1502 12.5549 25.7402 12.1949C25.6302 12.5549 25.4577 12.8799 25.2227 13.1699C24.9877 13.4599 24.7102 13.6999 24.3902 13.8899C24.9602 13.8299 25.5502 13.6699 26.1602 13.4099C25.7402 14.0299 25.2252 14.5599 24.6152 14.9999Z" fill="#1DA1F2"/>
</g>
<defs>
<clipPath id="clip0_322_2633">
<rect width="15" height="15" fill="white" transform="matrix(1 0 0 -1 11 25.5599)"/>
</clipPath>
</defs>
</svg>
