<svg width="37" height="37" viewBox="0 0 37 37" fill="none" xmlns="http://www.w3.org/2000/svg">
<rect x="0.5" y="0.0599365" width="36" height="36" rx="6" fill="white"/>
<g clip-path="url(#clip0_322_2639)">
<path d="M15.0377 23.6849H12.3227V14.9249H15.0377V23.6849ZM13.6727 13.7249C13.3927 13.7249 13.1302 13.6524 12.8852 13.5074C12.6402 13.3624 12.4477 13.1699 12.3077 12.9299C12.1677 12.6899 12.0977 12.4249 12.0977 12.1349C12.0977 11.8449 12.1677 11.5799 12.3077 11.3399C12.4477 11.0999 12.6377 10.9099 12.8777 10.7699C13.1177 10.6299 13.3827 10.5599 13.6727 10.5599C13.9627 10.5599 14.2277 10.6299 14.4677 10.7699C14.7077 10.9099 14.8977 11.0999 15.0377 11.3399C15.1777 11.5799 15.2477 11.8449 15.2477 12.1349C15.2477 12.4249 15.1777 12.6899 15.0377 12.9299C14.8977 13.1699 14.7052 13.3624 14.4602 13.5074C14.2152 13.6524 13.9527 13.7249 13.6727 13.7249ZM25.2227 23.6849H22.5077V19.4249C22.5077 18.9649 22.4877 18.6149 22.4477 18.3749C22.3877 17.9849 22.2627 17.6849 22.0727 17.4749C21.8527 17.2249 21.5277 17.0999 21.0977 17.0999C20.4477 17.0999 19.9977 17.3299 19.7477 17.7899C19.5577 18.1399 19.4627 18.6599 19.4627 19.3499V23.6849H16.7477V14.9249H19.3577V16.1099H19.3877C19.5877 15.7299 19.8977 15.4099 20.3177 15.1499C20.7977 14.8499 21.3477 14.6999 21.9677 14.6999C22.8377 14.6999 23.5277 14.8849 24.0377 15.2549C24.4877 15.5849 24.8027 16.0799 24.9827 16.7399C25.1427 17.2899 25.2227 17.9999 25.2227 18.8699V23.6849Z" fill="#0077B5"/>
</g>
<defs>
<clipPath id="clip0_322_2639">
<rect width="15" height="15" fill="white" transform="matrix(1 0 0 -1 11 25.5599)"/>
</clipPath>
</defs>
</svg>
