<svg width="37" height="37" viewBox="0 0 37 37" fill="none" xmlns="http://www.w3.org/2000/svg">
<rect x="0.5" y="0.0599365" width="36" height="36" rx="6" fill="white"/>
<g clip-path="url(#clip0_322_2630)">
<path d="M21.4727 18.9899L21.8927 16.2749H19.2827V14.5199C19.2827 14.0999 19.3927 13.7649 19.6127 13.5149C19.8827 13.2049 20.2827 13.0499 20.8127 13.0499H21.9977V10.7399L21.3377 10.6499C20.8077 10.5899 20.3277 10.5599 19.8977 10.5599C19.1777 10.5599 18.5527 10.7024 18.0227 10.9874C17.4927 11.2724 17.0827 11.6899 16.7927 12.2399C16.5027 12.7899 16.3577 13.4499 16.3577 14.2199V16.2749H13.9727V18.9899H16.3577V25.5599H19.2827V18.9899H21.4727Z" fill="#1877F2"/>
</g>
<defs>
<clipPath id="clip0_322_2630">
<rect width="15" height="15" fill="white" transform="matrix(1 0 0 -1 11 25.5599)"/>
</clipPath>
</defs>
</svg>
