<svg width="28" height="29" viewBox="0 0 28 29" fill="none" xmlns="http://www.w3.org/2000/svg">
<path d="M22.3434 16.656C21.13 16.5253 20.122 16.2547 19.3194 15.844C18.7407 15.62 18.148 15.578 17.5414 15.718C16.9347 15.858 16.398 16.1333 15.9314 16.544L14.8674 17.72C12.5154 16.1893 10.574 14.248 9.04338 11.896L10.1074 10.832C10.5554 10.384 10.84 9.85668 10.9614 9.25001C11.0827 8.64334 11.0314 8.04134 10.8074 7.44401C10.4714 6.56668 10.238 5.55868 10.1074 4.42001C9.97672 3.65468 9.59872 3.01534 8.97338 2.50201C8.34805 1.98868 7.63405 1.73201 6.83138 1.73201H3.10738C2.52872 1.76934 2.01072 1.95601 1.55338 2.29201C1.09605 2.62801 0.741382 3.05734 0.489382 3.58001C0.237382 4.10268 0.130049 4.65334 0.167382 5.23201C0.354049 7.09868 0.764715 8.92334 1.39938 10.706C2.03405 12.4887 2.87405 14.164 3.91938 15.732C5.78605 18.6813 8.19405 21.0893 11.1434 22.956C12.73 23.9453 14.41 24.7573 16.1834 25.392C17.9567 26.0267 19.7767 26.4653 21.6434 26.708H22.0074C22.3994 26.708 22.7914 26.624 23.1834 26.456C23.5754 26.288 23.9207 26.0593 24.2194 25.77C24.518 25.4807 24.7467 25.14 24.9054 24.748C25.064 24.356 25.1434 23.9547 25.1434 23.544V20.044C25.1434 19.1853 24.882 18.4387 24.3594 17.804C23.8367 17.1693 23.1647 16.7867 22.3434 16.656ZM23.2674 19.932V23.432C23.2674 23.824 23.118 24.1787 22.8194 24.496C22.4834 24.7947 22.1287 24.944 21.7554 24.944H21.6434C19.926 24.776 18.2554 24.4027 16.6314 23.824C14.9514 23.2267 13.3927 22.4333 11.9554 21.444C10.63 20.5853 9.39338 19.582 8.24538 18.434C7.09738 17.286 6.08472 16.04 5.20738 14.696C4.27405 13.24 3.51338 11.6907 2.92538 10.048C2.33738 8.40534 1.93138 6.72534 1.70738 5.00801C1.76338 4.57868 1.93138 4.21934 2.21138 3.93001C2.49138 3.64068 2.82738 3.49601 3.21938 3.49601H6.83138C7.18605 3.49601 7.50805 3.62201 7.79738 3.87401C8.08672 4.12601 8.23138 4.42001 8.23138 4.75601C8.26872 5.24134 8.36205 5.78268 8.51138 6.38001C8.60472 6.75334 8.75405 7.29468 8.95938 8.00401L9.04338 8.25601C9.15538 8.55468 9.18338 8.83934 9.12738 9.11001C9.07138 9.38068 8.93138 9.60934 8.70738 9.79601L7.41938 11.196C7.25138 11.308 7.15338 11.462 7.12538 11.658C7.09738 11.854 7.11138 12.0453 7.16738 12.232C8.04472 13.744 9.11338 15.13 10.3734 16.39C11.6334 17.65 13.0194 18.7187 14.5314 19.596C14.6994 19.708 14.886 19.7453 15.0914 19.708C15.2967 19.6707 15.4554 19.5867 15.5674 19.456L17.1074 17.944C17.294 17.7573 17.5367 17.6267 17.8354 17.552C18.134 17.4773 18.3954 17.496 18.6194 17.608C19.702 18.0373 20.8687 18.308 22.1194 18.42C22.474 18.476 22.7727 18.658 23.0154 18.966C23.258 19.274 23.342 19.596 23.2674 19.932ZM14.8674 3.35601C16.3794 3.50534 17.7514 3.97201 18.9834 4.75601C20.2154 5.54001 21.2234 6.54801 22.0074 7.78001C22.7914 9.01201 23.258 10.384 23.4074 11.896C23.4074 12.12 23.496 12.3113 23.6734 12.47C23.8507 12.6287 24.0327 12.708 24.2194 12.708H24.3314C24.5554 12.708 24.7467 12.61 24.9054 12.414C25.064 12.218 25.1434 11.9987 25.1434 11.756C24.9567 10.0013 24.3874 8.38668 23.4354 6.91201C22.5207 5.47468 21.3307 4.29868 19.8654 3.38401C18.4 2.46934 16.7807 1.91868 15.0074 1.73201C14.7647 1.73201 14.5454 1.81134 14.3494 1.97001C14.1534 2.12868 14.0554 2.31068 14.0554 2.51601C14.0554 2.72134 14.1347 2.91268 14.2934 3.09001C14.452 3.26734 14.6434 3.35601 14.8674 3.35601ZM14.0554 7.10801C13.9994 7.33201 14.046 7.54668 14.1954 7.75201C14.3447 7.95734 14.5314 8.08801 14.7554 8.14401C15.726 8.33068 16.5707 8.78801 17.2894 9.51601C18.008 10.244 18.4887 11.112 18.7314 12.12C18.7874 12.344 18.89 12.5167 19.0394 12.638C19.1887 12.7593 19.3567 12.82 19.5434 12.82H19.6554C19.898 12.764 20.0894 12.6333 20.2294 12.428C20.3694 12.2227 20.4114 11.9987 20.3554 11.756C20.1314 10.4307 19.5387 9.28268 18.5774 8.31201C17.616 7.34134 16.4634 6.70668 15.1194 6.40801C14.8767 6.35201 14.6527 6.38468 14.4474 6.50601C14.242 6.62734 14.1114 6.82801 14.0554 7.10801Z" fill="#111827"/>
</svg>
