<svg width="28" height="29" viewBox="0 0 28 29" fill="none" xmlns="http://www.w3.org/2000/svg">
<path d="M22.0842 4.55597H3.43616C2.85749 4.55597 2.31616 4.69597 1.81216 4.97597C1.30816 5.25597 0.906823 5.63864 0.608156 6.12397C0.30949 6.6093 0.160156 7.1413 0.160156 7.71997V21.72C0.160156 22.2986 0.304823 22.84 0.594156 23.344C0.88349 23.848 1.27549 24.2493 1.77016 24.548C2.26482 24.8466 2.82016 24.996 3.43616 24.996H22.0842C22.6628 24.996 23.2042 24.8513 23.7082 24.562C24.2122 24.2726 24.6135 23.8806 24.9122 23.386C25.2108 22.8913 25.3602 22.336 25.3602 21.72V7.71997C25.3602 7.1413 25.2108 6.6093 24.9122 6.12397C24.6135 5.63864 24.2122 5.25597 23.7082 4.97597C23.2042 4.69597 22.6628 4.55597 22.0842 4.55597ZM3.43616 6.31997H22.0842C22.4948 6.31997 22.8308 6.45997 23.0922 6.73997C23.3535 7.01997 23.4842 7.34664 23.4842 7.71997V8.41997L13.4602 14.832C13.2175 14.944 12.9655 15 12.7042 15C12.4428 15 12.1908 14.944 11.9482 14.832L2.03616 8.41997V7.71997C2.03616 7.3093 2.16682 6.9733 2.42816 6.71197C2.68949 6.45064 3.02549 6.31997 3.43616 6.31997ZM22.0842 23.232H3.43616C3.04416 23.232 2.71282 23.0873 2.44216 22.798C2.17149 22.5086 2.03616 22.1866 2.03616 21.832V10.52L11.1362 16.344C11.5282 16.6613 12.0695 16.82 12.7602 16.82C13.4508 16.82 13.9922 16.6613 14.3842 16.344L23.4842 10.52V21.72C23.4842 22.1306 23.3535 22.4853 23.0922 22.784C22.8308 23.0826 22.4948 23.232 22.0842 23.232Z" fill="#111827"/>
</svg>
