<svg width="37" height="37" viewBox="0 0 37 37" fill="none" xmlns="http://www.w3.org/2000/svg">
<rect x="0.5" y="0.0599365" width="36" height="36" rx="6" fill="white"/>
<path d="M18.6682 14.46C18.0175 14.46 17.4175 14.6227 16.8682 14.948C16.3188 15.2733 15.8815 15.7107 15.5562 16.26C15.2308 16.8093 15.0682 17.4093 15.0682 18.06C15.0682 18.7107 15.2308 19.3107 15.5562 19.86C15.8815 20.4093 16.3188 20.844 16.8682 21.164C17.4175 21.484 18.0175 21.644 18.6682 21.644C19.3188 21.644 19.9188 21.484 20.4682 21.164C21.0175 20.844 21.4522 20.4093 21.7722 19.86C22.0922 19.3107 22.2522 18.7107 22.2522 18.06C22.2522 17.4093 22.0922 16.8093 21.7722 16.26C21.4522 15.7107 21.0175 15.2733 20.4682 14.948C19.9188 14.6227 19.3188 14.46 18.6682 14.46ZM18.6682 20.396C18.2415 20.396 17.8495 20.292 17.4922 20.084C17.1348 19.876 16.8522 19.5907 16.6442 19.228C16.4362 18.8653 16.3322 18.476 16.3322 18.06C16.3322 17.644 16.4362 17.2547 16.6442 16.892C16.8522 16.5293 17.1348 16.244 17.4922 16.036C17.8495 15.828 18.2415 15.724 18.6682 15.724C19.0948 15.724 19.4868 15.828 19.8442 16.036C20.2015 16.244 20.4842 16.5267 20.6922 16.884C20.9002 17.2413 21.0042 17.6333 21.0042 18.06C21.0042 18.4867 20.9002 18.8787 20.6922 19.236C20.4842 19.5933 20.1988 19.876 19.8362 20.084C19.4735 20.292 19.0842 20.396 18.6682 20.396ZM23.2442 14.316C23.2442 14.5507 23.1615 14.7507 22.9962 14.916C22.8308 15.0813 22.6308 15.164 22.3962 15.164C22.1615 15.164 21.9642 15.0813 21.8042 14.916C21.6442 14.7507 21.5642 14.5507 21.5642 14.316C21.5642 14.0813 21.6442 13.884 21.8042 13.724C21.9642 13.564 22.1615 13.484 22.3962 13.484C22.6308 13.484 22.8308 13.564 22.9962 13.724C23.1615 13.884 23.2442 14.0813 23.2442 14.316ZM25.6122 15.164C25.5908 14.556 25.5002 14.028 25.3402 13.58C25.1588 13.068 24.8735 12.62 24.4842 12.236C24.0948 11.852 23.6442 11.5693 23.1322 11.388C22.6842 11.228 22.1562 11.132 21.5482 11.1C20.9722 11.068 20.0095 11.052 18.6602 11.052C17.3108 11.052 16.3482 11.068 15.7722 11.1C15.1535 11.132 14.6255 11.228 14.1882 11.388C13.6762 11.5693 13.2282 11.852 12.8442 12.236C12.4602 12.62 12.1775 13.068 11.9962 13.58C11.8255 14.028 11.7295 14.556 11.7082 15.164C11.6762 15.74 11.6602 16.7027 11.6602 18.052C11.6602 19.4013 11.6762 20.364 11.7082 20.94C11.7295 21.548 11.8202 22.076 11.9802 22.524C12.1615 23.036 12.4495 23.4893 12.8442 23.884C13.2388 24.2787 13.6922 24.5613 14.2042 24.732C14.6308 24.892 15.1535 24.9827 15.7722 25.004C16.3482 25.0467 17.3108 25.068 18.6602 25.068C20.0095 25.068 20.9722 25.0467 21.5482 25.004C22.1562 24.9827 22.6842 24.892 23.1322 24.732C23.6442 24.5507 24.0948 24.2653 24.4842 23.876C24.8735 23.4867 25.1588 23.036 25.3402 22.524C25.5002 22.076 25.5908 21.548 25.6122 20.94C25.6442 20.364 25.6602 19.404 25.6602 18.06C25.6602 16.716 25.6442 15.7507 25.6122 15.164ZM24.1242 22.188C24.0068 22.4867 23.8335 22.7533 23.6042 22.988C23.3748 23.2227 23.1055 23.3987 22.7962 23.516C22.4442 23.6547 21.8735 23.7453 21.0842 23.788C20.6362 23.8093 19.9908 23.8147 19.1482 23.804H18.1882C17.3455 23.8147 16.7002 23.8093 16.2522 23.788C15.4522 23.7453 14.8815 23.6547 14.5402 23.516C14.2308 23.3987 13.9615 23.2253 13.7322 22.996C13.5028 22.7667 13.3295 22.4973 13.2122 22.188C13.0735 21.836 12.9828 21.2653 12.9402 20.476C12.9188 20.028 12.9135 19.3827 12.9242 18.54V17.58C12.9135 16.7373 12.9188 16.092 12.9402 15.644C12.9828 14.844 13.0735 14.2733 13.2122 13.932C13.3295 13.6227 13.5028 13.3533 13.7322 13.124C13.9615 12.8947 14.2308 12.7213 14.5402 12.604C14.8815 12.4653 15.4468 12.3747 16.2362 12.332C16.6842 12.3107 17.3348 12.3053 18.1882 12.316H19.1482C19.9908 12.3053 20.6362 12.3107 21.0842 12.332C21.8735 12.3747 22.4442 12.4653 22.7962 12.604C23.1055 12.7213 23.3748 12.8947 23.6042 13.124C23.8335 13.3533 24.0068 13.6227 24.1242 13.932C24.2628 14.2733 24.3535 14.8387 24.3962 15.628C24.4175 16.076 24.4228 16.7267 24.4122 17.58V18.54C24.4228 19.3827 24.4175 20.028 24.3962 20.476C24.3535 21.2653 24.2628 21.836 24.1242 22.188Z" fill="#FD1D1D"/>
</svg>
