<svg width="27" height="26" viewBox="0 0 27 26" fill="none" xmlns="http://www.w3.org/2000/svg">
<g clip-path="url(#clip0_322_2701)">
<path d="M21.2536 22.2039L17.1456 18.0959C17.8563 17.2639 18.4109 16.3236 18.8096 15.2749C19.2083 14.2262 19.4076 13.1386 19.4076 12.0119C19.4076 10.2959 18.9743 8.70124 18.1076 7.22791C17.2756 5.78924 16.1403 4.64524 14.7016 3.79591C13.2283 2.92924 11.6249 2.49591 9.89161 2.49591C8.15828 2.49591 6.55494 2.92924 5.08161 3.79591C3.64294 4.62791 2.49894 5.75458 1.64961 7.17591C0.782943 8.66658 0.349609 10.2742 0.349609 11.9989C0.349609 13.7236 0.782943 15.3226 1.64961 16.7959C2.48161 18.2346 3.60828 19.3786 5.02961 20.2279C6.52028 21.1119 8.13228 21.5539 9.86561 21.5539C10.9923 21.5539 12.0799 21.3546 13.1286 20.9559C14.1773 20.5572 15.1176 20.0026 15.9496 19.2919L20.0576 23.3999C20.1096 23.4519 20.1876 23.4996 20.2916 23.5429C20.3956 23.5862 20.4996 23.6079 20.6036 23.6079C20.7076 23.6079 20.8116 23.5862 20.9156 23.5429C21.0196 23.4996 21.0976 23.4519 21.1496 23.3999C21.3576 23.1919 21.4659 22.9839 21.4746 22.7759C21.4833 22.5679 21.4096 22.3772 21.2536 22.2039ZM2.06561 11.9079C2.06561 10.4866 2.42094 9.16924 3.13161 7.95591C3.82494 6.79458 4.75228 5.86724 5.91361 5.17391C7.12694 4.46324 8.44428 4.10791 9.86561 4.10791C11.2869 4.10791 12.6043 4.47191 13.8176 5.19991C14.9963 5.89324 15.9323 6.83791 16.6256 8.03391C17.3189 9.22991 17.6656 10.5299 17.6656 11.9339C17.6656 13.3379 17.3016 14.6466 16.5736 15.8599C15.8803 17.0386 14.9356 17.9746 13.7396 18.6679C12.5436 19.3612 11.2523 19.7079 9.86561 19.7079C8.46161 19.7426 7.14428 19.4046 5.91361 18.6939C4.75228 18.0179 3.82061 17.0732 3.11861 15.8599C2.41661 14.6466 2.06561 13.3292 2.06561 11.9079Z" fill="black"/>
</g>
<defs>
<clipPath id="clip0_322_2701">
<rect width="26" height="26" fill="white" transform="matrix(1 0 0 -1 0.0898438 26)"/>
</clipPath>
</defs>
</svg>
