<svg width="14" height="15" viewBox="0 0 14 15" fill="none" xmlns="http://www.w3.org/2000/svg">
<g clip-path="url(#clip0_322_1685)">
<path d="M12.5007 9.96265L11.1679 9.20473L12.3178 8.52527C12.5269 8.3946 12.6053 8.1202 12.4746 7.91113C12.357 7.70207 12.0826 7.62367 11.8605 7.75433L10.2794 8.68207L7.88818 7.31007L10.2794 5.925L11.8605 6.8658C11.9389 6.905 12.0173 6.93113 12.0957 6.93113C12.2394 6.93113 12.3962 6.85273 12.4746 6.709C12.6053 6.49993 12.5269 6.22553 12.3178 6.09487L11.1679 5.4154L12.5007 4.65753C12.7098 4.52687 12.7751 4.25247 12.6575 4.0434C12.5399 3.83433 12.2655 3.75593 12.0434 3.87353L10.7237 4.64447L10.7106 3.31167C10.7106 3.0634 10.5015 2.8674 10.2663 2.8674C10.0181 2.8674 9.82206 3.07647 9.82206 3.32473L9.83512 5.15407L7.44391 6.53913V3.78207L9.05111 2.88047C9.26018 2.7498 9.33858 2.4754 9.22098 2.26633C9.09031 2.05727 8.82898 1.97887 8.60685 2.09647L7.44391 2.7498V1.221C7.44391 0.972733 7.24791 0.776733 6.99965 0.776733C6.75138 0.776733 6.55538 0.972733 6.55538 1.221V2.7498L5.39245 2.09647C5.18338 1.97887 4.90898 2.05727 4.77831 2.26633C4.66071 2.4754 4.73911 2.7498 4.94818 2.88047L6.55538 3.78207V6.53913L4.16418 5.15407L4.17725 3.32473C4.19031 3.07647 3.98125 2.8674 3.74605 2.8674C3.73298 2.8674 3.73298 2.8674 3.73298 2.8674C3.49778 2.8674 3.28871 3.0634 3.28871 3.31167L3.27565 4.64447L1.95591 3.87353C1.73378 3.75593 1.45938 3.83433 1.34178 4.0434C1.22418 4.25247 1.28951 4.52687 1.51165 4.65753L2.83138 5.4154L1.68151 6.09487C1.47245 6.22553 1.39405 6.49993 1.52471 6.709C1.60311 6.85273 1.75991 6.93113 1.90365 6.93113C1.98205 6.93113 2.06045 6.905 2.13885 6.8658L3.71991 5.925L6.11111 7.31007L3.71991 8.69513L2.13885 7.75433C1.91671 7.62367 1.65538 7.70207 1.52471 7.91113C1.39405 8.1202 1.47245 8.3946 1.68151 8.52527L2.83138 9.20473L1.51165 9.96265C1.28951 10.0933 1.22418 10.3677 1.34178 10.5768C1.42018 10.7205 1.57698 10.7989 1.73378 10.7989C1.79911 10.7989 1.87751 10.7858 1.95591 10.7336L3.27565 9.97571L3.28871 11.3085C3.28871 11.5568 3.49778 11.7528 3.73298 11.7528C3.73298 11.7528 3.73298 11.7528 3.74605 11.7528C3.98125 11.7528 4.19031 11.5437 4.17725 11.2954L4.16418 9.46607L6.55538 8.081V10.8381L4.94818 11.7397C4.73911 11.8704 4.66071 12.1448 4.77831 12.3538C4.86978 12.4976 5.01351 12.576 5.17031 12.576C5.24871 12.576 5.32711 12.5629 5.39245 12.5237L6.55538 11.8704V13.3992C6.55538 13.6474 6.75138 13.8434 6.99965 13.8434C7.24791 13.8434 7.44391 13.6474 7.44391 13.3992V11.8704L8.60685 12.5237C8.67218 12.5629 8.75058 12.576 8.82898 12.576C8.98578 12.576 9.12951 12.4976 9.22098 12.3538C9.33858 12.1448 9.26018 11.8704 9.05111 11.7397L7.44391 10.8381V8.081L9.83512 9.46607L9.82206 11.2954C9.82206 11.5437 10.0181 11.7528 10.2533 11.7528C10.2663 11.7528 10.2663 11.7528 10.2663 11.7528C10.5146 11.7528 10.7106 11.5568 10.7106 11.3085L10.7237 9.97571L12.0434 10.7336C12.1218 10.7858 12.2002 10.7989 12.2655 10.7989C12.4223 10.7989 12.5791 10.7205 12.6575 10.5768C12.7751 10.3677 12.7098 10.0933 12.5007 9.96265Z" fill="#0891B2"/>
</g>
<defs>
<clipPath id="clip0_322_1685">
<rect width="14" height="14" fill="white" transform="translate(0 0.590088)"/>
</clipPath>
</defs>
</svg>
